G04 #@! TF.GenerationSoftware,KiCad,Pcbnew,(5.1.5)-3*
G04 #@! TF.CreationDate,2020-04-06T14:20:24-04:00*
G04 #@! TF.ProjectId,atusbprog,61747573-6270-4726-9f67-2e6b69636164,rev?*
G04 #@! TF.SameCoordinates,Original*
G04 #@! TF.FileFunction,Copper,L2,Bot*
G04 #@! TF.FilePolarity,Positive*
%FSLAX46Y46*%
G04 Gerber Fmt 4.6, Leading zero omitted, Abs format (unit mm)*
G04 Created by KiCad (PCBNEW (5.1.5)-3) date 2020-04-06 14:20:24*
%MOMM*%
%LPD*%
G04 APERTURE LIST*
%ADD10C,1.600000*%
%ADD11O,1.600000X1.600000*%
%ADD12R,1.800000X1.800000*%
%ADD13C,1.800000*%
%ADD14C,2.000000*%
%ADD15R,1.600000X1.600000*%
%ADD16C,1.500000*%
%ADD17O,2.400000X1.600000*%
%ADD18R,2.400000X1.600000*%
%ADD19O,1.700000X1.700000*%
%ADD20R,1.700000X1.700000*%
%ADD21C,0.800000*%
%ADD22C,0.250000*%
%ADD23C,0.254000*%
G04 APERTURE END LIST*
D10*
X107188000Y-68580000D03*
D11*
X114808000Y-68580000D03*
D10*
X107188000Y-72136000D03*
D11*
X114808000Y-72136000D03*
D12*
X130048000Y-70104000D03*
D13*
X132588000Y-70104000D03*
D12*
X120904000Y-70104000D03*
D13*
X123444000Y-70104000D03*
D14*
X127000000Y-118800000D03*
X127000000Y-114300000D03*
X133500000Y-118800000D03*
X133500000Y-114300000D03*
X121816000Y-114300000D03*
X121816000Y-118800000D03*
X115316000Y-114300000D03*
X115316000Y-118800000D03*
D10*
X128468000Y-78232000D03*
D15*
X124968000Y-78232000D03*
D10*
X134112000Y-82296000D03*
X134112000Y-79796000D03*
X139740000Y-116332000D03*
X142240000Y-116332000D03*
X142240000Y-121920000D03*
X139740000Y-121920000D03*
X163616000Y-71120000D03*
X166116000Y-71120000D03*
D16*
X146812000Y-116532000D03*
X146812000Y-121412000D03*
D11*
X134112000Y-85344000D03*
X126492000Y-100584000D03*
X134112000Y-87884000D03*
X126492000Y-98044000D03*
X134112000Y-90424000D03*
X126492000Y-95504000D03*
X134112000Y-92964000D03*
X126492000Y-92964000D03*
X134112000Y-95504000D03*
X126492000Y-90424000D03*
X134112000Y-98044000D03*
X126492000Y-87884000D03*
X134112000Y-100584000D03*
D15*
X126492000Y-85344000D03*
D17*
X168148000Y-74676000D03*
X152908000Y-122936000D03*
X168148000Y-77216000D03*
X152908000Y-120396000D03*
X168148000Y-79756000D03*
X152908000Y-117856000D03*
X168148000Y-82296000D03*
X152908000Y-115316000D03*
X168148000Y-84836000D03*
X152908000Y-112776000D03*
X168148000Y-87376000D03*
X152908000Y-110236000D03*
X168148000Y-89916000D03*
X152908000Y-107696000D03*
X168148000Y-92456000D03*
X152908000Y-105156000D03*
X168148000Y-94996000D03*
X152908000Y-102616000D03*
X168148000Y-97536000D03*
X152908000Y-100076000D03*
X168148000Y-100076000D03*
X152908000Y-97536000D03*
X168148000Y-102616000D03*
X152908000Y-94996000D03*
X168148000Y-105156000D03*
X152908000Y-92456000D03*
X168148000Y-107696000D03*
X152908000Y-89916000D03*
X168148000Y-110236000D03*
X152908000Y-87376000D03*
X168148000Y-112776000D03*
X152908000Y-84836000D03*
X168148000Y-115316000D03*
X152908000Y-82296000D03*
X168148000Y-117856000D03*
X152908000Y-79756000D03*
X168148000Y-120396000D03*
X152908000Y-77216000D03*
X168148000Y-122936000D03*
D18*
X152908000Y-74676000D03*
D12*
X187960000Y-88900000D03*
D13*
X190500000Y-88900000D03*
X190500000Y-75692000D03*
D12*
X187960000Y-75692000D03*
X187960000Y-82296000D03*
D13*
X190500000Y-82296000D03*
X190500000Y-95504000D03*
D12*
X187960000Y-95504000D03*
X187960000Y-108712000D03*
D13*
X190500000Y-108712000D03*
X190500000Y-121920000D03*
D12*
X187960000Y-121920000D03*
X187960000Y-102108000D03*
D13*
X190500000Y-102108000D03*
X190500000Y-115316000D03*
D12*
X187960000Y-115316000D03*
D19*
X118364000Y-81280000D03*
X115824000Y-81280000D03*
X113284000Y-81280000D03*
D20*
X110744000Y-81280000D03*
D19*
X140208000Y-88392000D03*
X140208000Y-85852000D03*
X140208000Y-83312000D03*
X140208000Y-80772000D03*
X140208000Y-78232000D03*
X140208000Y-75692000D03*
X140208000Y-73152000D03*
D20*
X140208000Y-70612000D03*
X140208000Y-94488000D03*
D19*
X140208000Y-97028000D03*
X140208000Y-99568000D03*
X140208000Y-102108000D03*
X140208000Y-104648000D03*
X140208000Y-107188000D03*
X140208000Y-109728000D03*
X140208000Y-112268000D03*
X178308000Y-105156000D03*
X178308000Y-107696000D03*
X178308000Y-110236000D03*
X178308000Y-112776000D03*
X178308000Y-115316000D03*
X178308000Y-117856000D03*
X178308000Y-120396000D03*
D20*
X178308000Y-122936000D03*
D11*
X175260000Y-94996000D03*
X175260000Y-92456000D03*
X175260000Y-89916000D03*
X175260000Y-87376000D03*
X175260000Y-84836000D03*
X175260000Y-82296000D03*
X175260000Y-79756000D03*
X175260000Y-77216000D03*
D15*
X175260000Y-74676000D03*
D10*
X129032000Y-106680000D03*
D11*
X121412000Y-106680000D03*
X119380000Y-92964000D03*
D10*
X119380000Y-85344000D03*
D21*
X112776000Y-91948000D03*
X109220000Y-91948000D03*
X125984000Y-103632000D03*
X115824000Y-109728000D03*
D22*
X124968000Y-91440000D02*
X126492000Y-92964000D01*
X124968000Y-85818000D02*
X124968000Y-91440000D01*
X126492000Y-85344000D02*
X125442000Y-85344000D01*
X125442000Y-85344000D02*
X124968000Y-85818000D01*
X131572000Y-85344000D02*
X134112000Y-87884000D01*
X126492000Y-85344000D02*
X131572000Y-85344000D01*
X133312001Y-94704001D02*
X134112000Y-95504000D01*
X133034599Y-94426599D02*
X133312001Y-94704001D01*
X133034599Y-88961401D02*
X133034599Y-94426599D01*
X134112000Y-87884000D02*
X133034599Y-88961401D01*
X112776000Y-91948000D02*
X109220000Y-91948000D01*
X127569401Y-88961401D02*
X127291999Y-88683999D01*
X127569401Y-102046599D02*
X127569401Y-88961401D01*
X127291999Y-88683999D02*
X126492000Y-87884000D01*
X125984000Y-103632000D02*
X127569401Y-102046599D01*
X130163370Y-106680000D02*
X129032000Y-106680000D01*
X137160000Y-99568000D02*
X130163370Y-106680000D01*
X141224000Y-89916000D02*
X137160000Y-93980000D01*
X137160000Y-93980000D02*
X137160000Y-99568000D01*
X152908000Y-89916000D02*
X141224000Y-89916000D01*
X189600001Y-121020001D02*
X190500000Y-121920000D01*
X185977779Y-117397779D02*
X189600001Y-121020001D01*
X185977779Y-105713779D02*
X185977779Y-117397779D01*
X175260000Y-94996000D02*
X185977779Y-105713779D01*
X189600001Y-114416001D02*
X190500000Y-115316000D01*
X186380189Y-111196189D02*
X189600001Y-114416001D01*
X186380189Y-103576189D02*
X186380189Y-111196189D01*
X175260000Y-92456000D02*
X186380189Y-103576189D01*
X189600001Y-107812001D02*
X190500000Y-108712000D01*
X186782599Y-101438599D02*
X186782599Y-104994599D01*
X186782599Y-104994599D02*
X189600001Y-107812001D01*
X175260000Y-89916000D02*
X186782599Y-101438599D01*
X190500000Y-101484630D02*
X190500000Y-102108000D01*
X176391370Y-87376000D02*
X190500000Y-101484630D01*
X175260000Y-87376000D02*
X176391370Y-87376000D01*
X179832000Y-84836000D02*
X190500000Y-95504000D01*
X175260000Y-84836000D02*
X179832000Y-84836000D01*
X183896000Y-82296000D02*
X190500000Y-88900000D01*
X175260000Y-82296000D02*
X183896000Y-82296000D01*
X187960000Y-79756000D02*
X190500000Y-82296000D01*
X175260000Y-79756000D02*
X187960000Y-79756000D01*
X188976000Y-77216000D02*
X190500000Y-75692000D01*
X175260000Y-77216000D02*
X188976000Y-77216000D01*
X115824000Y-83312000D02*
X115824000Y-109728000D01*
X115824000Y-83312000D02*
X115824000Y-81280000D01*
X115824000Y-77216000D02*
X107188000Y-68580000D01*
X115824000Y-81280000D02*
X115824000Y-77216000D01*
X122544001Y-71003999D02*
X123444000Y-70104000D01*
X115607999Y-72935999D02*
X120612001Y-72935999D01*
X120612001Y-72935999D02*
X122544001Y-71003999D01*
X114808000Y-72136000D02*
X115607999Y-72935999D01*
X131064000Y-68580000D02*
X132588000Y-70104000D01*
X114808000Y-68580000D02*
X131064000Y-68580000D01*
D23*
G36*
X195378001Y-126290000D02*
G01*
X105358000Y-126290000D01*
X105358000Y-121778665D01*
X138305000Y-121778665D01*
X138305000Y-122061335D01*
X138360147Y-122338574D01*
X138468320Y-122599727D01*
X138625363Y-122834759D01*
X138825241Y-123034637D01*
X139060273Y-123191680D01*
X139321426Y-123299853D01*
X139598665Y-123355000D01*
X139881335Y-123355000D01*
X140158574Y-123299853D01*
X140419727Y-123191680D01*
X140654759Y-123034637D01*
X140854637Y-122834759D01*
X140990000Y-122632173D01*
X141125363Y-122834759D01*
X141325241Y-123034637D01*
X141560273Y-123191680D01*
X141821426Y-123299853D01*
X142098665Y-123355000D01*
X142381335Y-123355000D01*
X142658574Y-123299853D01*
X142919727Y-123191680D01*
X143154759Y-123034637D01*
X143354637Y-122834759D01*
X143511680Y-122599727D01*
X143619853Y-122338574D01*
X143675000Y-122061335D01*
X143675000Y-121778665D01*
X143619853Y-121501426D01*
X143526309Y-121275589D01*
X145427000Y-121275589D01*
X145427000Y-121548411D01*
X145480225Y-121815989D01*
X145584629Y-122068043D01*
X145736201Y-122294886D01*
X145929114Y-122487799D01*
X146155957Y-122639371D01*
X146408011Y-122743775D01*
X146675589Y-122797000D01*
X146948411Y-122797000D01*
X147215989Y-122743775D01*
X147468043Y-122639371D01*
X147694886Y-122487799D01*
X147887799Y-122294886D01*
X148039371Y-122068043D01*
X148143775Y-121815989D01*
X148197000Y-121548411D01*
X148197000Y-121275589D01*
X148143775Y-121008011D01*
X148039371Y-120755957D01*
X147887799Y-120529114D01*
X147694886Y-120336201D01*
X147468043Y-120184629D01*
X147215989Y-120080225D01*
X146948411Y-120027000D01*
X146675589Y-120027000D01*
X146408011Y-120080225D01*
X146155957Y-120184629D01*
X145929114Y-120336201D01*
X145736201Y-120529114D01*
X145584629Y-120755957D01*
X145480225Y-121008011D01*
X145427000Y-121275589D01*
X143526309Y-121275589D01*
X143511680Y-121240273D01*
X143354637Y-121005241D01*
X143154759Y-120805363D01*
X142919727Y-120648320D01*
X142658574Y-120540147D01*
X142381335Y-120485000D01*
X142098665Y-120485000D01*
X141821426Y-120540147D01*
X141560273Y-120648320D01*
X141325241Y-120805363D01*
X141125363Y-121005241D01*
X140990000Y-121207827D01*
X140854637Y-121005241D01*
X140654759Y-120805363D01*
X140419727Y-120648320D01*
X140158574Y-120540147D01*
X139881335Y-120485000D01*
X139598665Y-120485000D01*
X139321426Y-120540147D01*
X139060273Y-120648320D01*
X138825241Y-120805363D01*
X138625363Y-121005241D01*
X138468320Y-121240273D01*
X138360147Y-121501426D01*
X138305000Y-121778665D01*
X105358000Y-121778665D01*
X105358000Y-118638967D01*
X113681000Y-118638967D01*
X113681000Y-118961033D01*
X113743832Y-119276912D01*
X113867082Y-119574463D01*
X114046013Y-119842252D01*
X114273748Y-120069987D01*
X114541537Y-120248918D01*
X114839088Y-120372168D01*
X115154967Y-120435000D01*
X115477033Y-120435000D01*
X115792912Y-120372168D01*
X116090463Y-120248918D01*
X116358252Y-120069987D01*
X116585987Y-119842252D01*
X116764918Y-119574463D01*
X116888168Y-119276912D01*
X116951000Y-118961033D01*
X116951000Y-118638967D01*
X120181000Y-118638967D01*
X120181000Y-118961033D01*
X120243832Y-119276912D01*
X120367082Y-119574463D01*
X120546013Y-119842252D01*
X120773748Y-120069987D01*
X121041537Y-120248918D01*
X121339088Y-120372168D01*
X121654967Y-120435000D01*
X121977033Y-120435000D01*
X122292912Y-120372168D01*
X122590463Y-120248918D01*
X122858252Y-120069987D01*
X123085987Y-119842252D01*
X123264918Y-119574463D01*
X123388168Y-119276912D01*
X123451000Y-118961033D01*
X123451000Y-118638967D01*
X125365000Y-118638967D01*
X125365000Y-118961033D01*
X125427832Y-119276912D01*
X125551082Y-119574463D01*
X125730013Y-119842252D01*
X125957748Y-120069987D01*
X126225537Y-120248918D01*
X126523088Y-120372168D01*
X126838967Y-120435000D01*
X127161033Y-120435000D01*
X127476912Y-120372168D01*
X127774463Y-120248918D01*
X128042252Y-120069987D01*
X128269987Y-119842252D01*
X128448918Y-119574463D01*
X128572168Y-119276912D01*
X128635000Y-118961033D01*
X128635000Y-118638967D01*
X131865000Y-118638967D01*
X131865000Y-118961033D01*
X131927832Y-119276912D01*
X132051082Y-119574463D01*
X132230013Y-119842252D01*
X132457748Y-120069987D01*
X132725537Y-120248918D01*
X133023088Y-120372168D01*
X133338967Y-120435000D01*
X133661033Y-120435000D01*
X133976912Y-120372168D01*
X134274463Y-120248918D01*
X134542252Y-120069987D01*
X134769987Y-119842252D01*
X134948918Y-119574463D01*
X135072168Y-119276912D01*
X135135000Y-118961033D01*
X135135000Y-118638967D01*
X135072168Y-118323088D01*
X134948918Y-118025537D01*
X134769987Y-117757748D01*
X134542252Y-117530013D01*
X134274463Y-117351082D01*
X133976912Y-117227832D01*
X133661033Y-117165000D01*
X133338967Y-117165000D01*
X133023088Y-117227832D01*
X132725537Y-117351082D01*
X132457748Y-117530013D01*
X132230013Y-117757748D01*
X132051082Y-118025537D01*
X131927832Y-118323088D01*
X131865000Y-118638967D01*
X128635000Y-118638967D01*
X128572168Y-118323088D01*
X128448918Y-118025537D01*
X128269987Y-117757748D01*
X128042252Y-117530013D01*
X127774463Y-117351082D01*
X127476912Y-117227832D01*
X127161033Y-117165000D01*
X126838967Y-117165000D01*
X126523088Y-117227832D01*
X126225537Y-117351082D01*
X125957748Y-117530013D01*
X125730013Y-117757748D01*
X125551082Y-118025537D01*
X125427832Y-118323088D01*
X125365000Y-118638967D01*
X123451000Y-118638967D01*
X123388168Y-118323088D01*
X123264918Y-118025537D01*
X123085987Y-117757748D01*
X122858252Y-117530013D01*
X122590463Y-117351082D01*
X122292912Y-117227832D01*
X121977033Y-117165000D01*
X121654967Y-117165000D01*
X121339088Y-117227832D01*
X121041537Y-117351082D01*
X120773748Y-117530013D01*
X120546013Y-117757748D01*
X120367082Y-118025537D01*
X120243832Y-118323088D01*
X120181000Y-118638967D01*
X116951000Y-118638967D01*
X116888168Y-118323088D01*
X116764918Y-118025537D01*
X116585987Y-117757748D01*
X116358252Y-117530013D01*
X116090463Y-117351082D01*
X115792912Y-117227832D01*
X115477033Y-117165000D01*
X115154967Y-117165000D01*
X114839088Y-117227832D01*
X114541537Y-117351082D01*
X114273748Y-117530013D01*
X114046013Y-117757748D01*
X113867082Y-118025537D01*
X113743832Y-118323088D01*
X113681000Y-118638967D01*
X105358000Y-118638967D01*
X105358000Y-116190665D01*
X138305000Y-116190665D01*
X138305000Y-116473335D01*
X138360147Y-116750574D01*
X138468320Y-117011727D01*
X138625363Y-117246759D01*
X138825241Y-117446637D01*
X139060273Y-117603680D01*
X139321426Y-117711853D01*
X139598665Y-117767000D01*
X139881335Y-117767000D01*
X140158574Y-117711853D01*
X140419727Y-117603680D01*
X140654759Y-117446637D01*
X140854637Y-117246759D01*
X140990000Y-117044173D01*
X141125363Y-117246759D01*
X141325241Y-117446637D01*
X141560273Y-117603680D01*
X141821426Y-117711853D01*
X142098665Y-117767000D01*
X142381335Y-117767000D01*
X142658574Y-117711853D01*
X142919727Y-117603680D01*
X143154759Y-117446637D01*
X143354637Y-117246759D01*
X143511680Y-117011727D01*
X143619853Y-116750574D01*
X143675000Y-116473335D01*
X143675000Y-116395589D01*
X145427000Y-116395589D01*
X145427000Y-116668411D01*
X145480225Y-116935989D01*
X145584629Y-117188043D01*
X145736201Y-117414886D01*
X145929114Y-117607799D01*
X146155957Y-117759371D01*
X146408011Y-117863775D01*
X146675589Y-117917000D01*
X146948411Y-117917000D01*
X147215989Y-117863775D01*
X147468043Y-117759371D01*
X147694886Y-117607799D01*
X147887799Y-117414886D01*
X148039371Y-117188043D01*
X148143775Y-116935989D01*
X148197000Y-116668411D01*
X148197000Y-116395589D01*
X148143775Y-116128011D01*
X148039371Y-115875957D01*
X147887799Y-115649114D01*
X147694886Y-115456201D01*
X147468043Y-115304629D01*
X147215989Y-115200225D01*
X146948411Y-115147000D01*
X146675589Y-115147000D01*
X146408011Y-115200225D01*
X146155957Y-115304629D01*
X145929114Y-115456201D01*
X145736201Y-115649114D01*
X145584629Y-115875957D01*
X145480225Y-116128011D01*
X145427000Y-116395589D01*
X143675000Y-116395589D01*
X143675000Y-116190665D01*
X143619853Y-115913426D01*
X143511680Y-115652273D01*
X143354637Y-115417241D01*
X143154759Y-115217363D01*
X142919727Y-115060320D01*
X142658574Y-114952147D01*
X142381335Y-114897000D01*
X142098665Y-114897000D01*
X141821426Y-114952147D01*
X141560273Y-115060320D01*
X141325241Y-115217363D01*
X141125363Y-115417241D01*
X140990000Y-115619827D01*
X140854637Y-115417241D01*
X140654759Y-115217363D01*
X140419727Y-115060320D01*
X140158574Y-114952147D01*
X139881335Y-114897000D01*
X139598665Y-114897000D01*
X139321426Y-114952147D01*
X139060273Y-115060320D01*
X138825241Y-115217363D01*
X138625363Y-115417241D01*
X138468320Y-115652273D01*
X138360147Y-115913426D01*
X138305000Y-116190665D01*
X105358000Y-116190665D01*
X105358000Y-114138967D01*
X113681000Y-114138967D01*
X113681000Y-114461033D01*
X113743832Y-114776912D01*
X113867082Y-115074463D01*
X114046013Y-115342252D01*
X114273748Y-115569987D01*
X114541537Y-115748918D01*
X114839088Y-115872168D01*
X115154967Y-115935000D01*
X115477033Y-115935000D01*
X115792912Y-115872168D01*
X116090463Y-115748918D01*
X116358252Y-115569987D01*
X116585987Y-115342252D01*
X116764918Y-115074463D01*
X116888168Y-114776912D01*
X116951000Y-114461033D01*
X116951000Y-114138967D01*
X120181000Y-114138967D01*
X120181000Y-114461033D01*
X120243832Y-114776912D01*
X120367082Y-115074463D01*
X120546013Y-115342252D01*
X120773748Y-115569987D01*
X121041537Y-115748918D01*
X121339088Y-115872168D01*
X121654967Y-115935000D01*
X121977033Y-115935000D01*
X122292912Y-115872168D01*
X122590463Y-115748918D01*
X122858252Y-115569987D01*
X123085987Y-115342252D01*
X123264918Y-115074463D01*
X123388168Y-114776912D01*
X123451000Y-114461033D01*
X123451000Y-114138967D01*
X125365000Y-114138967D01*
X125365000Y-114461033D01*
X125427832Y-114776912D01*
X125551082Y-115074463D01*
X125730013Y-115342252D01*
X125957748Y-115569987D01*
X126225537Y-115748918D01*
X126523088Y-115872168D01*
X126838967Y-115935000D01*
X127161033Y-115935000D01*
X127476912Y-115872168D01*
X127774463Y-115748918D01*
X128042252Y-115569987D01*
X128269987Y-115342252D01*
X128448918Y-115074463D01*
X128572168Y-114776912D01*
X128635000Y-114461033D01*
X128635000Y-114138967D01*
X131865000Y-114138967D01*
X131865000Y-114461033D01*
X131927832Y-114776912D01*
X132051082Y-115074463D01*
X132230013Y-115342252D01*
X132457748Y-115569987D01*
X132725537Y-115748918D01*
X133023088Y-115872168D01*
X133338967Y-115935000D01*
X133661033Y-115935000D01*
X133976912Y-115872168D01*
X134274463Y-115748918D01*
X134542252Y-115569987D01*
X134769987Y-115342252D01*
X134948918Y-115074463D01*
X135072168Y-114776912D01*
X135135000Y-114461033D01*
X135135000Y-114138967D01*
X135072168Y-113823088D01*
X134948918Y-113525537D01*
X134769987Y-113257748D01*
X134542252Y-113030013D01*
X134274463Y-112851082D01*
X133976912Y-112727832D01*
X133661033Y-112665000D01*
X133338967Y-112665000D01*
X133023088Y-112727832D01*
X132725537Y-112851082D01*
X132457748Y-113030013D01*
X132230013Y-113257748D01*
X132051082Y-113525537D01*
X131927832Y-113823088D01*
X131865000Y-114138967D01*
X128635000Y-114138967D01*
X128572168Y-113823088D01*
X128448918Y-113525537D01*
X128269987Y-113257748D01*
X128042252Y-113030013D01*
X127774463Y-112851082D01*
X127476912Y-112727832D01*
X127161033Y-112665000D01*
X126838967Y-112665000D01*
X126523088Y-112727832D01*
X126225537Y-112851082D01*
X125957748Y-113030013D01*
X125730013Y-113257748D01*
X125551082Y-113525537D01*
X125427832Y-113823088D01*
X125365000Y-114138967D01*
X123451000Y-114138967D01*
X123388168Y-113823088D01*
X123264918Y-113525537D01*
X123085987Y-113257748D01*
X122858252Y-113030013D01*
X122590463Y-112851082D01*
X122292912Y-112727832D01*
X121977033Y-112665000D01*
X121654967Y-112665000D01*
X121339088Y-112727832D01*
X121041537Y-112851082D01*
X120773748Y-113030013D01*
X120546013Y-113257748D01*
X120367082Y-113525537D01*
X120243832Y-113823088D01*
X120181000Y-114138967D01*
X116951000Y-114138967D01*
X116888168Y-113823088D01*
X116764918Y-113525537D01*
X116585987Y-113257748D01*
X116358252Y-113030013D01*
X116090463Y-112851082D01*
X115792912Y-112727832D01*
X115477033Y-112665000D01*
X115154967Y-112665000D01*
X114839088Y-112727832D01*
X114541537Y-112851082D01*
X114273748Y-113030013D01*
X114046013Y-113257748D01*
X113867082Y-113525537D01*
X113743832Y-113823088D01*
X113681000Y-114138967D01*
X105358000Y-114138967D01*
X105358000Y-91846061D01*
X108185000Y-91846061D01*
X108185000Y-92049939D01*
X108224774Y-92249898D01*
X108302795Y-92438256D01*
X108416063Y-92607774D01*
X108560226Y-92751937D01*
X108729744Y-92865205D01*
X108918102Y-92943226D01*
X109118061Y-92983000D01*
X109321939Y-92983000D01*
X109521898Y-92943226D01*
X109710256Y-92865205D01*
X109879774Y-92751937D01*
X109923711Y-92708000D01*
X112072289Y-92708000D01*
X112116226Y-92751937D01*
X112285744Y-92865205D01*
X112474102Y-92943226D01*
X112674061Y-92983000D01*
X112877939Y-92983000D01*
X113077898Y-92943226D01*
X113266256Y-92865205D01*
X113435774Y-92751937D01*
X113579937Y-92607774D01*
X113693205Y-92438256D01*
X113771226Y-92249898D01*
X113811000Y-92049939D01*
X113811000Y-91846061D01*
X113771226Y-91646102D01*
X113693205Y-91457744D01*
X113579937Y-91288226D01*
X113435774Y-91144063D01*
X113266256Y-91030795D01*
X113077898Y-90952774D01*
X112877939Y-90913000D01*
X112674061Y-90913000D01*
X112474102Y-90952774D01*
X112285744Y-91030795D01*
X112116226Y-91144063D01*
X112072289Y-91188000D01*
X109923711Y-91188000D01*
X109879774Y-91144063D01*
X109710256Y-91030795D01*
X109521898Y-90952774D01*
X109321939Y-90913000D01*
X109118061Y-90913000D01*
X108918102Y-90952774D01*
X108729744Y-91030795D01*
X108560226Y-91144063D01*
X108416063Y-91288226D01*
X108302795Y-91457744D01*
X108224774Y-91646102D01*
X108185000Y-91846061D01*
X105358000Y-91846061D01*
X105358000Y-82130000D01*
X109255928Y-82130000D01*
X109268188Y-82254482D01*
X109304498Y-82374180D01*
X109363463Y-82484494D01*
X109442815Y-82581185D01*
X109539506Y-82660537D01*
X109649820Y-82719502D01*
X109769518Y-82755812D01*
X109894000Y-82768072D01*
X110458250Y-82765000D01*
X110617000Y-82606250D01*
X110617000Y-81407000D01*
X109417750Y-81407000D01*
X109259000Y-81565750D01*
X109255928Y-82130000D01*
X105358000Y-82130000D01*
X105358000Y-80430000D01*
X109255928Y-80430000D01*
X109259000Y-80994250D01*
X109417750Y-81153000D01*
X110617000Y-81153000D01*
X110617000Y-79953750D01*
X110458250Y-79795000D01*
X109894000Y-79791928D01*
X109769518Y-79804188D01*
X109649820Y-79840498D01*
X109539506Y-79899463D01*
X109442815Y-79978815D01*
X109363463Y-80075506D01*
X109304498Y-80185820D01*
X109268188Y-80305518D01*
X109255928Y-80430000D01*
X105358000Y-80430000D01*
X105358000Y-73128702D01*
X106374903Y-73128702D01*
X106446486Y-73372671D01*
X106701996Y-73493571D01*
X106976184Y-73562300D01*
X107258512Y-73576217D01*
X107538130Y-73534787D01*
X107804292Y-73439603D01*
X107929514Y-73372671D01*
X108001097Y-73128702D01*
X107188000Y-72315605D01*
X106374903Y-73128702D01*
X105358000Y-73128702D01*
X105358000Y-72206512D01*
X105747783Y-72206512D01*
X105789213Y-72486130D01*
X105884397Y-72752292D01*
X105951329Y-72877514D01*
X106195298Y-72949097D01*
X107008395Y-72136000D01*
X107367605Y-72136000D01*
X108180702Y-72949097D01*
X108424671Y-72877514D01*
X108545571Y-72622004D01*
X108614300Y-72347816D01*
X108628217Y-72065488D01*
X108586787Y-71785870D01*
X108491603Y-71519708D01*
X108424671Y-71394486D01*
X108180702Y-71322903D01*
X107367605Y-72136000D01*
X107008395Y-72136000D01*
X106195298Y-71322903D01*
X105951329Y-71394486D01*
X105830429Y-71649996D01*
X105761700Y-71924184D01*
X105747783Y-72206512D01*
X105358000Y-72206512D01*
X105358000Y-71143298D01*
X106374903Y-71143298D01*
X107188000Y-71956395D01*
X108001097Y-71143298D01*
X107929514Y-70899329D01*
X107674004Y-70778429D01*
X107399816Y-70709700D01*
X107117488Y-70695783D01*
X106837870Y-70737213D01*
X106571708Y-70832397D01*
X106446486Y-70899329D01*
X106374903Y-71143298D01*
X105358000Y-71143298D01*
X105358000Y-68438665D01*
X105753000Y-68438665D01*
X105753000Y-68721335D01*
X105808147Y-68998574D01*
X105916320Y-69259727D01*
X106073363Y-69494759D01*
X106273241Y-69694637D01*
X106508273Y-69851680D01*
X106769426Y-69959853D01*
X107046665Y-70015000D01*
X107329335Y-70015000D01*
X107511887Y-69978688D01*
X115064001Y-77530803D01*
X115064000Y-80001821D01*
X114877368Y-80126525D01*
X114670525Y-80333368D01*
X114554000Y-80507760D01*
X114437475Y-80333368D01*
X114230632Y-80126525D01*
X113987411Y-79964010D01*
X113717158Y-79852068D01*
X113430260Y-79795000D01*
X113137740Y-79795000D01*
X112850842Y-79852068D01*
X112580589Y-79964010D01*
X112337368Y-80126525D01*
X112205513Y-80258380D01*
X112183502Y-80185820D01*
X112124537Y-80075506D01*
X112045185Y-79978815D01*
X111948494Y-79899463D01*
X111838180Y-79840498D01*
X111718482Y-79804188D01*
X111594000Y-79791928D01*
X111029750Y-79795000D01*
X110871000Y-79953750D01*
X110871000Y-81153000D01*
X110891000Y-81153000D01*
X110891000Y-81407000D01*
X110871000Y-81407000D01*
X110871000Y-82606250D01*
X111029750Y-82765000D01*
X111594000Y-82768072D01*
X111718482Y-82755812D01*
X111838180Y-82719502D01*
X111948494Y-82660537D01*
X112045185Y-82581185D01*
X112124537Y-82484494D01*
X112183502Y-82374180D01*
X112205513Y-82301620D01*
X112337368Y-82433475D01*
X112580589Y-82595990D01*
X112850842Y-82707932D01*
X113137740Y-82765000D01*
X113430260Y-82765000D01*
X113717158Y-82707932D01*
X113987411Y-82595990D01*
X114230632Y-82433475D01*
X114437475Y-82226632D01*
X114554000Y-82052240D01*
X114670525Y-82226632D01*
X114877368Y-82433475D01*
X115064000Y-82558179D01*
X115064000Y-83274668D01*
X115064001Y-109024288D01*
X115020063Y-109068226D01*
X114906795Y-109237744D01*
X114828774Y-109426102D01*
X114789000Y-109626061D01*
X114789000Y-109829939D01*
X114828774Y-110029898D01*
X114906795Y-110218256D01*
X115020063Y-110387774D01*
X115164226Y-110531937D01*
X115333744Y-110645205D01*
X115522102Y-110723226D01*
X115722061Y-110763000D01*
X115925939Y-110763000D01*
X116125898Y-110723226D01*
X116314256Y-110645205D01*
X116483774Y-110531937D01*
X116627937Y-110387774D01*
X116741205Y-110218256D01*
X116819226Y-110029898D01*
X116859000Y-109829939D01*
X116859000Y-109626061D01*
X116819226Y-109426102D01*
X116741205Y-109237744D01*
X116627937Y-109068226D01*
X116584000Y-109024289D01*
X116584000Y-106538665D01*
X119977000Y-106538665D01*
X119977000Y-106821335D01*
X120032147Y-107098574D01*
X120140320Y-107359727D01*
X120297363Y-107594759D01*
X120497241Y-107794637D01*
X120732273Y-107951680D01*
X120993426Y-108059853D01*
X121270665Y-108115000D01*
X121553335Y-108115000D01*
X121830574Y-108059853D01*
X122091727Y-107951680D01*
X122326759Y-107794637D01*
X122526637Y-107594759D01*
X122683680Y-107359727D01*
X122791853Y-107098574D01*
X122847000Y-106821335D01*
X122847000Y-106538665D01*
X122791853Y-106261426D01*
X122683680Y-106000273D01*
X122526637Y-105765241D01*
X122326759Y-105565363D01*
X122091727Y-105408320D01*
X121830574Y-105300147D01*
X121553335Y-105245000D01*
X121270665Y-105245000D01*
X120993426Y-105300147D01*
X120732273Y-105408320D01*
X120497241Y-105565363D01*
X120297363Y-105765241D01*
X120140320Y-106000273D01*
X120032147Y-106261426D01*
X119977000Y-106538665D01*
X116584000Y-106538665D01*
X116584000Y-93313040D01*
X117988091Y-93313040D01*
X118082930Y-93577881D01*
X118227615Y-93819131D01*
X118416586Y-94027519D01*
X118642580Y-94195037D01*
X118896913Y-94315246D01*
X119030961Y-94355904D01*
X119253000Y-94233915D01*
X119253000Y-93091000D01*
X119507000Y-93091000D01*
X119507000Y-94233915D01*
X119729039Y-94355904D01*
X119863087Y-94315246D01*
X120117420Y-94195037D01*
X120343414Y-94027519D01*
X120532385Y-93819131D01*
X120677070Y-93577881D01*
X120771909Y-93313040D01*
X120650624Y-93091000D01*
X119507000Y-93091000D01*
X119253000Y-93091000D01*
X118109376Y-93091000D01*
X117988091Y-93313040D01*
X116584000Y-93313040D01*
X116584000Y-92614960D01*
X117988091Y-92614960D01*
X118109376Y-92837000D01*
X119253000Y-92837000D01*
X119253000Y-91694085D01*
X119507000Y-91694085D01*
X119507000Y-92837000D01*
X120650624Y-92837000D01*
X120771909Y-92614960D01*
X120677070Y-92350119D01*
X120532385Y-92108869D01*
X120343414Y-91900481D01*
X120117420Y-91732963D01*
X119863087Y-91612754D01*
X119729039Y-91572096D01*
X119507000Y-91694085D01*
X119253000Y-91694085D01*
X119030961Y-91572096D01*
X118896913Y-91612754D01*
X118642580Y-91732963D01*
X118416586Y-91900481D01*
X118227615Y-92108869D01*
X118082930Y-92350119D01*
X117988091Y-92614960D01*
X116584000Y-92614960D01*
X116584000Y-85202665D01*
X117945000Y-85202665D01*
X117945000Y-85485335D01*
X118000147Y-85762574D01*
X118108320Y-86023727D01*
X118265363Y-86258759D01*
X118465241Y-86458637D01*
X118700273Y-86615680D01*
X118961426Y-86723853D01*
X119238665Y-86779000D01*
X119521335Y-86779000D01*
X119798574Y-86723853D01*
X120059727Y-86615680D01*
X120294759Y-86458637D01*
X120494637Y-86258759D01*
X120651680Y-86023727D01*
X120736894Y-85818000D01*
X124204324Y-85818000D01*
X124208000Y-85855323D01*
X124208001Y-91402668D01*
X124204324Y-91440000D01*
X124208001Y-91477333D01*
X124217335Y-91572096D01*
X124218998Y-91588985D01*
X124262454Y-91732246D01*
X124333026Y-91864276D01*
X124401737Y-91948000D01*
X124428000Y-91980001D01*
X124456998Y-92003799D01*
X125093312Y-92640114D01*
X125057000Y-92822665D01*
X125057000Y-93105335D01*
X125112147Y-93382574D01*
X125220320Y-93643727D01*
X125377363Y-93878759D01*
X125577241Y-94078637D01*
X125809759Y-94234000D01*
X125577241Y-94389363D01*
X125377363Y-94589241D01*
X125220320Y-94824273D01*
X125112147Y-95085426D01*
X125057000Y-95362665D01*
X125057000Y-95645335D01*
X125112147Y-95922574D01*
X125220320Y-96183727D01*
X125377363Y-96418759D01*
X125577241Y-96618637D01*
X125809759Y-96774000D01*
X125577241Y-96929363D01*
X125377363Y-97129241D01*
X125220320Y-97364273D01*
X125112147Y-97625426D01*
X125057000Y-97902665D01*
X125057000Y-98185335D01*
X125112147Y-98462574D01*
X125220320Y-98723727D01*
X125377363Y-98958759D01*
X125577241Y-99158637D01*
X125809759Y-99314000D01*
X125577241Y-99469363D01*
X125377363Y-99669241D01*
X125220320Y-99904273D01*
X125112147Y-100165426D01*
X125057000Y-100442665D01*
X125057000Y-100725335D01*
X125112147Y-101002574D01*
X125220320Y-101263727D01*
X125377363Y-101498759D01*
X125577241Y-101698637D01*
X125812273Y-101855680D01*
X126073426Y-101963853D01*
X126350665Y-102019000D01*
X126522198Y-102019000D01*
X125944199Y-102597000D01*
X125882061Y-102597000D01*
X125682102Y-102636774D01*
X125493744Y-102714795D01*
X125324226Y-102828063D01*
X125180063Y-102972226D01*
X125066795Y-103141744D01*
X124988774Y-103330102D01*
X124949000Y-103530061D01*
X124949000Y-103733939D01*
X124988774Y-103933898D01*
X125066795Y-104122256D01*
X125180063Y-104291774D01*
X125324226Y-104435937D01*
X125493744Y-104549205D01*
X125682102Y-104627226D01*
X125882061Y-104667000D01*
X126085939Y-104667000D01*
X126285898Y-104627226D01*
X126474256Y-104549205D01*
X126643774Y-104435937D01*
X126787937Y-104291774D01*
X126901205Y-104122256D01*
X126979226Y-103933898D01*
X127019000Y-103733939D01*
X127019000Y-103671801D01*
X128080405Y-102610397D01*
X128109402Y-102586600D01*
X128204375Y-102470875D01*
X128274947Y-102338846D01*
X128318404Y-102195585D01*
X128329401Y-102083932D01*
X128329401Y-102083931D01*
X128333078Y-102046599D01*
X128329401Y-102009266D01*
X128329401Y-88998726D01*
X128333077Y-88961401D01*
X128329401Y-88924076D01*
X128329401Y-88924068D01*
X128318404Y-88812415D01*
X128274947Y-88669154D01*
X128204375Y-88537125D01*
X128109402Y-88421400D01*
X128080398Y-88397597D01*
X127890688Y-88207887D01*
X127927000Y-88025335D01*
X127927000Y-87742665D01*
X127871853Y-87465426D01*
X127763680Y-87204273D01*
X127606637Y-86969241D01*
X127408039Y-86770643D01*
X127416482Y-86769812D01*
X127536180Y-86733502D01*
X127646494Y-86674537D01*
X127743185Y-86595185D01*
X127822537Y-86498494D01*
X127881502Y-86388180D01*
X127917812Y-86268482D01*
X127930072Y-86144000D01*
X127930072Y-86104000D01*
X131257199Y-86104000D01*
X132713312Y-87560114D01*
X132677000Y-87742665D01*
X132677000Y-88025335D01*
X132713312Y-88207887D01*
X132523601Y-88397597D01*
X132494598Y-88421400D01*
X132469275Y-88452257D01*
X132399625Y-88537125D01*
X132348377Y-88633002D01*
X132329053Y-88669155D01*
X132285596Y-88812416D01*
X132274599Y-88924069D01*
X132274599Y-88924079D01*
X132270923Y-88961401D01*
X132274599Y-88998724D01*
X132274600Y-94389267D01*
X132270923Y-94426599D01*
X132274600Y-94463932D01*
X132285597Y-94575585D01*
X132297545Y-94614974D01*
X132329053Y-94718845D01*
X132399625Y-94850875D01*
X132470800Y-94937601D01*
X132494599Y-94966600D01*
X132523597Y-94990398D01*
X132713312Y-95180113D01*
X132677000Y-95362665D01*
X132677000Y-95645335D01*
X132732147Y-95922574D01*
X132840320Y-96183727D01*
X132997363Y-96418759D01*
X133197241Y-96618637D01*
X133429759Y-96774000D01*
X133197241Y-96929363D01*
X132997363Y-97129241D01*
X132840320Y-97364273D01*
X132732147Y-97625426D01*
X132677000Y-97902665D01*
X132677000Y-98185335D01*
X132732147Y-98462574D01*
X132840320Y-98723727D01*
X132997363Y-98958759D01*
X133197241Y-99158637D01*
X133429759Y-99314000D01*
X133197241Y-99469363D01*
X132997363Y-99669241D01*
X132840320Y-99904273D01*
X132732147Y-100165426D01*
X132677000Y-100442665D01*
X132677000Y-100725335D01*
X132732147Y-101002574D01*
X132840320Y-101263727D01*
X132997363Y-101498759D01*
X133197241Y-101698637D01*
X133432273Y-101855680D01*
X133693426Y-101963853D01*
X133729778Y-101971084D01*
X130071292Y-105689896D01*
X129946759Y-105565363D01*
X129711727Y-105408320D01*
X129450574Y-105300147D01*
X129173335Y-105245000D01*
X128890665Y-105245000D01*
X128613426Y-105300147D01*
X128352273Y-105408320D01*
X128117241Y-105565363D01*
X127917363Y-105765241D01*
X127760320Y-106000273D01*
X127652147Y-106261426D01*
X127597000Y-106538665D01*
X127597000Y-106821335D01*
X127652147Y-107098574D01*
X127760320Y-107359727D01*
X127917363Y-107594759D01*
X128117241Y-107794637D01*
X128352273Y-107951680D01*
X128613426Y-108059853D01*
X128890665Y-108115000D01*
X129173335Y-108115000D01*
X129450574Y-108059853D01*
X129711727Y-107951680D01*
X129946759Y-107794637D01*
X130146637Y-107594759D01*
X130253519Y-107434798D01*
X130312356Y-107429003D01*
X130315361Y-107428091D01*
X130318475Y-107427759D01*
X130386858Y-107406403D01*
X130455617Y-107385546D01*
X130458387Y-107384066D01*
X130461376Y-107383132D01*
X130524307Y-107348830D01*
X130587646Y-107314974D01*
X130590072Y-107312983D01*
X130592824Y-107311483D01*
X130647869Y-107265550D01*
X130703371Y-107220001D01*
X130729148Y-107188591D01*
X137673409Y-100129824D01*
X137700001Y-100108001D01*
X137725776Y-100076594D01*
X137727958Y-100074376D01*
X137749441Y-100047758D01*
X137794974Y-99992276D01*
X137796452Y-99989510D01*
X137798421Y-99987071D01*
X137831686Y-99923594D01*
X137865546Y-99860247D01*
X137866458Y-99857241D01*
X137867911Y-99854468D01*
X137888141Y-99785761D01*
X137909003Y-99716986D01*
X137909311Y-99713860D01*
X137910195Y-99710857D01*
X137916629Y-99639559D01*
X137920000Y-99605333D01*
X137920000Y-99602203D01*
X137923650Y-99561756D01*
X137920000Y-99527564D01*
X137920000Y-94294801D01*
X138745645Y-93469156D01*
X138732188Y-93513518D01*
X138719928Y-93638000D01*
X138719928Y-95338000D01*
X138732188Y-95462482D01*
X138768498Y-95582180D01*
X138827463Y-95692494D01*
X138906815Y-95789185D01*
X139003506Y-95868537D01*
X139113820Y-95927502D01*
X139186380Y-95949513D01*
X139054525Y-96081368D01*
X138892010Y-96324589D01*
X138780068Y-96594842D01*
X138723000Y-96881740D01*
X138723000Y-97174260D01*
X138780068Y-97461158D01*
X138892010Y-97731411D01*
X139054525Y-97974632D01*
X139261368Y-98181475D01*
X139435760Y-98298000D01*
X139261368Y-98414525D01*
X139054525Y-98621368D01*
X138892010Y-98864589D01*
X138780068Y-99134842D01*
X138723000Y-99421740D01*
X138723000Y-99714260D01*
X138780068Y-100001158D01*
X138892010Y-100271411D01*
X139054525Y-100514632D01*
X139261368Y-100721475D01*
X139435760Y-100838000D01*
X139261368Y-100954525D01*
X139054525Y-101161368D01*
X138892010Y-101404589D01*
X138780068Y-101674842D01*
X138723000Y-101961740D01*
X138723000Y-102254260D01*
X138780068Y-102541158D01*
X138892010Y-102811411D01*
X139054525Y-103054632D01*
X139261368Y-103261475D01*
X139435760Y-103378000D01*
X139261368Y-103494525D01*
X139054525Y-103701368D01*
X138892010Y-103944589D01*
X138780068Y-104214842D01*
X138723000Y-104501740D01*
X138723000Y-104794260D01*
X138780068Y-105081158D01*
X138892010Y-105351411D01*
X139054525Y-105594632D01*
X139261368Y-105801475D01*
X139435760Y-105918000D01*
X139261368Y-106034525D01*
X139054525Y-106241368D01*
X138892010Y-106484589D01*
X138780068Y-106754842D01*
X138723000Y-107041740D01*
X138723000Y-107334260D01*
X138780068Y-107621158D01*
X138892010Y-107891411D01*
X139054525Y-108134632D01*
X139261368Y-108341475D01*
X139435760Y-108458000D01*
X139261368Y-108574525D01*
X139054525Y-108781368D01*
X138892010Y-109024589D01*
X138780068Y-109294842D01*
X138723000Y-109581740D01*
X138723000Y-109874260D01*
X138780068Y-110161158D01*
X138892010Y-110431411D01*
X139054525Y-110674632D01*
X139261368Y-110881475D01*
X139435760Y-110998000D01*
X139261368Y-111114525D01*
X139054525Y-111321368D01*
X138892010Y-111564589D01*
X138780068Y-111834842D01*
X138723000Y-112121740D01*
X138723000Y-112414260D01*
X138780068Y-112701158D01*
X138892010Y-112971411D01*
X139054525Y-113214632D01*
X139261368Y-113421475D01*
X139504589Y-113583990D01*
X139774842Y-113695932D01*
X140061740Y-113753000D01*
X140354260Y-113753000D01*
X140641158Y-113695932D01*
X140911411Y-113583990D01*
X141154632Y-113421475D01*
X141361475Y-113214632D01*
X141523990Y-112971411D01*
X141635932Y-112701158D01*
X141693000Y-112414260D01*
X141693000Y-112121740D01*
X141635932Y-111834842D01*
X141523990Y-111564589D01*
X141361475Y-111321368D01*
X141154632Y-111114525D01*
X140980240Y-110998000D01*
X141154632Y-110881475D01*
X141361475Y-110674632D01*
X141523990Y-110431411D01*
X141635932Y-110161158D01*
X141693000Y-109874260D01*
X141693000Y-109581740D01*
X141635932Y-109294842D01*
X141523990Y-109024589D01*
X141361475Y-108781368D01*
X141154632Y-108574525D01*
X140980240Y-108458000D01*
X141154632Y-108341475D01*
X141361475Y-108134632D01*
X141523990Y-107891411D01*
X141635932Y-107621158D01*
X141693000Y-107334260D01*
X141693000Y-107041740D01*
X141635932Y-106754842D01*
X141523990Y-106484589D01*
X141361475Y-106241368D01*
X141154632Y-106034525D01*
X140980240Y-105918000D01*
X141154632Y-105801475D01*
X141361475Y-105594632D01*
X141523990Y-105351411D01*
X141635932Y-105081158D01*
X141693000Y-104794260D01*
X141693000Y-104501740D01*
X141635932Y-104214842D01*
X141523990Y-103944589D01*
X141361475Y-103701368D01*
X141154632Y-103494525D01*
X140980240Y-103378000D01*
X141154632Y-103261475D01*
X141361475Y-103054632D01*
X141523990Y-102811411D01*
X141635932Y-102541158D01*
X141693000Y-102254260D01*
X141693000Y-101961740D01*
X141635932Y-101674842D01*
X141523990Y-101404589D01*
X141361475Y-101161368D01*
X141154632Y-100954525D01*
X140980240Y-100838000D01*
X141154632Y-100721475D01*
X141361475Y-100514632D01*
X141523990Y-100271411D01*
X141635932Y-100001158D01*
X141693000Y-99714260D01*
X141693000Y-99421740D01*
X141635932Y-99134842D01*
X141523990Y-98864589D01*
X141361475Y-98621368D01*
X141154632Y-98414525D01*
X140980240Y-98298000D01*
X141154632Y-98181475D01*
X141361475Y-97974632D01*
X141523990Y-97731411D01*
X141635932Y-97461158D01*
X141693000Y-97174260D01*
X141693000Y-96881740D01*
X141635932Y-96594842D01*
X141523990Y-96324589D01*
X141361475Y-96081368D01*
X141229620Y-95949513D01*
X141302180Y-95927502D01*
X141412494Y-95868537D01*
X141509185Y-95789185D01*
X141588537Y-95692494D01*
X141647502Y-95582180D01*
X141683812Y-95462482D01*
X141696072Y-95338000D01*
X141696072Y-93638000D01*
X141683812Y-93513518D01*
X141647502Y-93393820D01*
X141588537Y-93283506D01*
X141509185Y-93186815D01*
X141412494Y-93107463D01*
X141302180Y-93048498D01*
X141182482Y-93012188D01*
X141058000Y-92999928D01*
X139358000Y-92999928D01*
X139233518Y-93012188D01*
X139189156Y-93025645D01*
X141538802Y-90676000D01*
X151287099Y-90676000D01*
X151309068Y-90717101D01*
X151488392Y-90935608D01*
X151706899Y-91114932D01*
X151839858Y-91186000D01*
X151706899Y-91257068D01*
X151488392Y-91436392D01*
X151309068Y-91654899D01*
X151175818Y-91904192D01*
X151093764Y-92174691D01*
X151066057Y-92456000D01*
X151093764Y-92737309D01*
X151175818Y-93007808D01*
X151309068Y-93257101D01*
X151488392Y-93475608D01*
X151706899Y-93654932D01*
X151839858Y-93726000D01*
X151706899Y-93797068D01*
X151488392Y-93976392D01*
X151309068Y-94194899D01*
X151175818Y-94444192D01*
X151093764Y-94714691D01*
X151066057Y-94996000D01*
X151093764Y-95277309D01*
X151175818Y-95547808D01*
X151309068Y-95797101D01*
X151488392Y-96015608D01*
X151706899Y-96194932D01*
X151839858Y-96266000D01*
X151706899Y-96337068D01*
X151488392Y-96516392D01*
X151309068Y-96734899D01*
X151175818Y-96984192D01*
X151093764Y-97254691D01*
X151066057Y-97536000D01*
X151093764Y-97817309D01*
X151175818Y-98087808D01*
X151309068Y-98337101D01*
X151488392Y-98555608D01*
X151706899Y-98734932D01*
X151839858Y-98806000D01*
X151706899Y-98877068D01*
X151488392Y-99056392D01*
X151309068Y-99274899D01*
X151175818Y-99524192D01*
X151093764Y-99794691D01*
X151066057Y-100076000D01*
X151093764Y-100357309D01*
X151175818Y-100627808D01*
X151309068Y-100877101D01*
X151488392Y-101095608D01*
X151706899Y-101274932D01*
X151839858Y-101346000D01*
X151706899Y-101417068D01*
X151488392Y-101596392D01*
X151309068Y-101814899D01*
X151175818Y-102064192D01*
X151093764Y-102334691D01*
X151066057Y-102616000D01*
X151093764Y-102897309D01*
X151175818Y-103167808D01*
X151309068Y-103417101D01*
X151488392Y-103635608D01*
X151706899Y-103814932D01*
X151839858Y-103886000D01*
X151706899Y-103957068D01*
X151488392Y-104136392D01*
X151309068Y-104354899D01*
X151175818Y-104604192D01*
X151093764Y-104874691D01*
X151066057Y-105156000D01*
X151093764Y-105437309D01*
X151175818Y-105707808D01*
X151309068Y-105957101D01*
X151488392Y-106175608D01*
X151706899Y-106354932D01*
X151839858Y-106426000D01*
X151706899Y-106497068D01*
X151488392Y-106676392D01*
X151309068Y-106894899D01*
X151175818Y-107144192D01*
X151093764Y-107414691D01*
X151066057Y-107696000D01*
X151093764Y-107977309D01*
X151175818Y-108247808D01*
X151309068Y-108497101D01*
X151488392Y-108715608D01*
X151706899Y-108894932D01*
X151839858Y-108966000D01*
X151706899Y-109037068D01*
X151488392Y-109216392D01*
X151309068Y-109434899D01*
X151175818Y-109684192D01*
X151093764Y-109954691D01*
X151066057Y-110236000D01*
X151093764Y-110517309D01*
X151175818Y-110787808D01*
X151309068Y-111037101D01*
X151488392Y-111255608D01*
X151706899Y-111434932D01*
X151839858Y-111506000D01*
X151706899Y-111577068D01*
X151488392Y-111756392D01*
X151309068Y-111974899D01*
X151175818Y-112224192D01*
X151093764Y-112494691D01*
X151066057Y-112776000D01*
X151093764Y-113057309D01*
X151175818Y-113327808D01*
X151309068Y-113577101D01*
X151488392Y-113795608D01*
X151706899Y-113974932D01*
X151839858Y-114046000D01*
X151706899Y-114117068D01*
X151488392Y-114296392D01*
X151309068Y-114514899D01*
X151175818Y-114764192D01*
X151093764Y-115034691D01*
X151066057Y-115316000D01*
X151093764Y-115597309D01*
X151175818Y-115867808D01*
X151309068Y-116117101D01*
X151488392Y-116335608D01*
X151706899Y-116514932D01*
X151839858Y-116586000D01*
X151706899Y-116657068D01*
X151488392Y-116836392D01*
X151309068Y-117054899D01*
X151175818Y-117304192D01*
X151093764Y-117574691D01*
X151066057Y-117856000D01*
X151093764Y-118137309D01*
X151175818Y-118407808D01*
X151309068Y-118657101D01*
X151488392Y-118875608D01*
X151706899Y-119054932D01*
X151839858Y-119126000D01*
X151706899Y-119197068D01*
X151488392Y-119376392D01*
X151309068Y-119594899D01*
X151175818Y-119844192D01*
X151093764Y-120114691D01*
X151066057Y-120396000D01*
X151093764Y-120677309D01*
X151175818Y-120947808D01*
X151309068Y-121197101D01*
X151488392Y-121415608D01*
X151706899Y-121594932D01*
X151839858Y-121666000D01*
X151706899Y-121737068D01*
X151488392Y-121916392D01*
X151309068Y-122134899D01*
X151175818Y-122384192D01*
X151093764Y-122654691D01*
X151066057Y-122936000D01*
X151093764Y-123217309D01*
X151175818Y-123487808D01*
X151309068Y-123737101D01*
X151488392Y-123955608D01*
X151706899Y-124134932D01*
X151956192Y-124268182D01*
X152226691Y-124350236D01*
X152437508Y-124371000D01*
X153378492Y-124371000D01*
X153589309Y-124350236D01*
X153859808Y-124268182D01*
X154109101Y-124134932D01*
X154327608Y-123955608D01*
X154506932Y-123737101D01*
X154640182Y-123487808D01*
X154722236Y-123217309D01*
X154749943Y-122936000D01*
X154722236Y-122654691D01*
X154640182Y-122384192D01*
X154506932Y-122134899D01*
X154327608Y-121916392D01*
X154109101Y-121737068D01*
X153976142Y-121666000D01*
X154109101Y-121594932D01*
X154327608Y-121415608D01*
X154506932Y-121197101D01*
X154640182Y-120947808D01*
X154722236Y-120677309D01*
X154749943Y-120396000D01*
X154722236Y-120114691D01*
X154640182Y-119844192D01*
X154506932Y-119594899D01*
X154327608Y-119376392D01*
X154109101Y-119197068D01*
X153976142Y-119126000D01*
X154109101Y-119054932D01*
X154327608Y-118875608D01*
X154506932Y-118657101D01*
X154640182Y-118407808D01*
X154722236Y-118137309D01*
X154749943Y-117856000D01*
X154722236Y-117574691D01*
X154640182Y-117304192D01*
X154506932Y-117054899D01*
X154327608Y-116836392D01*
X154109101Y-116657068D01*
X153976142Y-116586000D01*
X154109101Y-116514932D01*
X154327608Y-116335608D01*
X154506932Y-116117101D01*
X154640182Y-115867808D01*
X154722236Y-115597309D01*
X154749943Y-115316000D01*
X154722236Y-115034691D01*
X154640182Y-114764192D01*
X154506932Y-114514899D01*
X154327608Y-114296392D01*
X154109101Y-114117068D01*
X153976142Y-114046000D01*
X154109101Y-113974932D01*
X154327608Y-113795608D01*
X154506932Y-113577101D01*
X154640182Y-113327808D01*
X154722236Y-113057309D01*
X154749943Y-112776000D01*
X154722236Y-112494691D01*
X154640182Y-112224192D01*
X154506932Y-111974899D01*
X154327608Y-111756392D01*
X154109101Y-111577068D01*
X153976142Y-111506000D01*
X154109101Y-111434932D01*
X154327608Y-111255608D01*
X154506932Y-111037101D01*
X154640182Y-110787808D01*
X154722236Y-110517309D01*
X154749943Y-110236000D01*
X154722236Y-109954691D01*
X154640182Y-109684192D01*
X154506932Y-109434899D01*
X154327608Y-109216392D01*
X154109101Y-109037068D01*
X153976142Y-108966000D01*
X154109101Y-108894932D01*
X154327608Y-108715608D01*
X154506932Y-108497101D01*
X154640182Y-108247808D01*
X154722236Y-107977309D01*
X154749943Y-107696000D01*
X154722236Y-107414691D01*
X154640182Y-107144192D01*
X154506932Y-106894899D01*
X154327608Y-106676392D01*
X154109101Y-106497068D01*
X153976142Y-106426000D01*
X154109101Y-106354932D01*
X154327608Y-106175608D01*
X154506932Y-105957101D01*
X154640182Y-105707808D01*
X154722236Y-105437309D01*
X154749943Y-105156000D01*
X154722236Y-104874691D01*
X154640182Y-104604192D01*
X154506932Y-104354899D01*
X154327608Y-104136392D01*
X154109101Y-103957068D01*
X153976142Y-103886000D01*
X154109101Y-103814932D01*
X154327608Y-103635608D01*
X154506932Y-103417101D01*
X154640182Y-103167808D01*
X154722236Y-102897309D01*
X154749943Y-102616000D01*
X154722236Y-102334691D01*
X154640182Y-102064192D01*
X154506932Y-101814899D01*
X154327608Y-101596392D01*
X154109101Y-101417068D01*
X153976142Y-101346000D01*
X154109101Y-101274932D01*
X154327608Y-101095608D01*
X154506932Y-100877101D01*
X154640182Y-100627808D01*
X154722236Y-100357309D01*
X154749943Y-100076000D01*
X166306057Y-100076000D01*
X166333764Y-100357309D01*
X166415818Y-100627808D01*
X166549068Y-100877101D01*
X166728392Y-101095608D01*
X166946899Y-101274932D01*
X167079858Y-101346000D01*
X166946899Y-101417068D01*
X166728392Y-101596392D01*
X166549068Y-101814899D01*
X166415818Y-102064192D01*
X166333764Y-102334691D01*
X166306057Y-102616000D01*
X166333764Y-102897309D01*
X166415818Y-103167808D01*
X166549068Y-103417101D01*
X166728392Y-103635608D01*
X166946899Y-103814932D01*
X167079858Y-103886000D01*
X166946899Y-103957068D01*
X166728392Y-104136392D01*
X166549068Y-104354899D01*
X166415818Y-104604192D01*
X166333764Y-104874691D01*
X166306057Y-105156000D01*
X166333764Y-105437309D01*
X166415818Y-105707808D01*
X166549068Y-105957101D01*
X166728392Y-106175608D01*
X166946899Y-106354932D01*
X167079858Y-106426000D01*
X166946899Y-106497068D01*
X166728392Y-106676392D01*
X166549068Y-106894899D01*
X166415818Y-107144192D01*
X166333764Y-107414691D01*
X166306057Y-107696000D01*
X166333764Y-107977309D01*
X166415818Y-108247808D01*
X166549068Y-108497101D01*
X166728392Y-108715608D01*
X166946899Y-108894932D01*
X167079858Y-108966000D01*
X166946899Y-109037068D01*
X166728392Y-109216392D01*
X166549068Y-109434899D01*
X166415818Y-109684192D01*
X166333764Y-109954691D01*
X166306057Y-110236000D01*
X166333764Y-110517309D01*
X166415818Y-110787808D01*
X166549068Y-111037101D01*
X166728392Y-111255608D01*
X166946899Y-111434932D01*
X167079858Y-111506000D01*
X166946899Y-111577068D01*
X166728392Y-111756392D01*
X166549068Y-111974899D01*
X166415818Y-112224192D01*
X166333764Y-112494691D01*
X166306057Y-112776000D01*
X166333764Y-113057309D01*
X166415818Y-113327808D01*
X166549068Y-113577101D01*
X166728392Y-113795608D01*
X166946899Y-113974932D01*
X167079858Y-114046000D01*
X166946899Y-114117068D01*
X166728392Y-114296392D01*
X166549068Y-114514899D01*
X166415818Y-114764192D01*
X166333764Y-115034691D01*
X166306057Y-115316000D01*
X166333764Y-115597309D01*
X166415818Y-115867808D01*
X166549068Y-116117101D01*
X166728392Y-116335608D01*
X166946899Y-116514932D01*
X167079858Y-116586000D01*
X166946899Y-116657068D01*
X166728392Y-116836392D01*
X166549068Y-117054899D01*
X166415818Y-117304192D01*
X166333764Y-117574691D01*
X166306057Y-117856000D01*
X166333764Y-118137309D01*
X166415818Y-118407808D01*
X166549068Y-118657101D01*
X166728392Y-118875608D01*
X166946899Y-119054932D01*
X167079858Y-119126000D01*
X166946899Y-119197068D01*
X166728392Y-119376392D01*
X166549068Y-119594899D01*
X166415818Y-119844192D01*
X166333764Y-120114691D01*
X166306057Y-120396000D01*
X166333764Y-120677309D01*
X166415818Y-120947808D01*
X166549068Y-121197101D01*
X166728392Y-121415608D01*
X166946899Y-121594932D01*
X167079858Y-121666000D01*
X166946899Y-121737068D01*
X166728392Y-121916392D01*
X166549068Y-122134899D01*
X166415818Y-122384192D01*
X166333764Y-122654691D01*
X166306057Y-122936000D01*
X166333764Y-123217309D01*
X166415818Y-123487808D01*
X166549068Y-123737101D01*
X166728392Y-123955608D01*
X166946899Y-124134932D01*
X167196192Y-124268182D01*
X167466691Y-124350236D01*
X167677508Y-124371000D01*
X168618492Y-124371000D01*
X168829309Y-124350236D01*
X169099808Y-124268182D01*
X169349101Y-124134932D01*
X169567608Y-123955608D01*
X169746932Y-123737101D01*
X169880182Y-123487808D01*
X169962236Y-123217309D01*
X169989943Y-122936000D01*
X169962236Y-122654691D01*
X169880182Y-122384192D01*
X169746932Y-122134899D01*
X169706802Y-122086000D01*
X176819928Y-122086000D01*
X176819928Y-123786000D01*
X176832188Y-123910482D01*
X176868498Y-124030180D01*
X176927463Y-124140494D01*
X177006815Y-124237185D01*
X177103506Y-124316537D01*
X177213820Y-124375502D01*
X177333518Y-124411812D01*
X177458000Y-124424072D01*
X179158000Y-124424072D01*
X179282482Y-124411812D01*
X179402180Y-124375502D01*
X179512494Y-124316537D01*
X179609185Y-124237185D01*
X179688537Y-124140494D01*
X179747502Y-124030180D01*
X179783812Y-123910482D01*
X179796072Y-123786000D01*
X179796072Y-122086000D01*
X179783812Y-121961518D01*
X179747502Y-121841820D01*
X179688537Y-121731506D01*
X179609185Y-121634815D01*
X179512494Y-121555463D01*
X179402180Y-121496498D01*
X179329620Y-121474487D01*
X179461475Y-121342632D01*
X179623990Y-121099411D01*
X179735932Y-120829158D01*
X179793000Y-120542260D01*
X179793000Y-120249740D01*
X179735932Y-119962842D01*
X179623990Y-119692589D01*
X179461475Y-119449368D01*
X179254632Y-119242525D01*
X179080240Y-119126000D01*
X179254632Y-119009475D01*
X179461475Y-118802632D01*
X179623990Y-118559411D01*
X179735932Y-118289158D01*
X179793000Y-118002260D01*
X179793000Y-117709740D01*
X179735932Y-117422842D01*
X179623990Y-117152589D01*
X179461475Y-116909368D01*
X179254632Y-116702525D01*
X179080240Y-116586000D01*
X179254632Y-116469475D01*
X179461475Y-116262632D01*
X179623990Y-116019411D01*
X179735932Y-115749158D01*
X179793000Y-115462260D01*
X179793000Y-115169740D01*
X179735932Y-114882842D01*
X179623990Y-114612589D01*
X179461475Y-114369368D01*
X179254632Y-114162525D01*
X179080240Y-114046000D01*
X179254632Y-113929475D01*
X179461475Y-113722632D01*
X179623990Y-113479411D01*
X179735932Y-113209158D01*
X179793000Y-112922260D01*
X179793000Y-112629740D01*
X179735932Y-112342842D01*
X179623990Y-112072589D01*
X179461475Y-111829368D01*
X179254632Y-111622525D01*
X179080240Y-111506000D01*
X179254632Y-111389475D01*
X179461475Y-111182632D01*
X179623990Y-110939411D01*
X179735932Y-110669158D01*
X179793000Y-110382260D01*
X179793000Y-110089740D01*
X179735932Y-109802842D01*
X179623990Y-109532589D01*
X179461475Y-109289368D01*
X179254632Y-109082525D01*
X179080240Y-108966000D01*
X179254632Y-108849475D01*
X179461475Y-108642632D01*
X179623990Y-108399411D01*
X179735932Y-108129158D01*
X179793000Y-107842260D01*
X179793000Y-107549740D01*
X179735932Y-107262842D01*
X179623990Y-106992589D01*
X179461475Y-106749368D01*
X179254632Y-106542525D01*
X179080240Y-106426000D01*
X179254632Y-106309475D01*
X179461475Y-106102632D01*
X179623990Y-105859411D01*
X179735932Y-105589158D01*
X179793000Y-105302260D01*
X179793000Y-105009740D01*
X179735932Y-104722842D01*
X179623990Y-104452589D01*
X179461475Y-104209368D01*
X179254632Y-104002525D01*
X179011411Y-103840010D01*
X178741158Y-103728068D01*
X178454260Y-103671000D01*
X178161740Y-103671000D01*
X177874842Y-103728068D01*
X177604589Y-103840010D01*
X177361368Y-104002525D01*
X177154525Y-104209368D01*
X176992010Y-104452589D01*
X176880068Y-104722842D01*
X176823000Y-105009740D01*
X176823000Y-105302260D01*
X176880068Y-105589158D01*
X176992010Y-105859411D01*
X177154525Y-106102632D01*
X177361368Y-106309475D01*
X177535760Y-106426000D01*
X177361368Y-106542525D01*
X177154525Y-106749368D01*
X176992010Y-106992589D01*
X176880068Y-107262842D01*
X176823000Y-107549740D01*
X176823000Y-107842260D01*
X176880068Y-108129158D01*
X176992010Y-108399411D01*
X177154525Y-108642632D01*
X177361368Y-108849475D01*
X177535760Y-108966000D01*
X177361368Y-109082525D01*
X177154525Y-109289368D01*
X176992010Y-109532589D01*
X176880068Y-109802842D01*
X176823000Y-110089740D01*
X176823000Y-110382260D01*
X176880068Y-110669158D01*
X176992010Y-110939411D01*
X177154525Y-111182632D01*
X177361368Y-111389475D01*
X177535760Y-111506000D01*
X177361368Y-111622525D01*
X177154525Y-111829368D01*
X176992010Y-112072589D01*
X176880068Y-112342842D01*
X176823000Y-112629740D01*
X176823000Y-112922260D01*
X176880068Y-113209158D01*
X176992010Y-113479411D01*
X177154525Y-113722632D01*
X177361368Y-113929475D01*
X177535760Y-114046000D01*
X177361368Y-114162525D01*
X177154525Y-114369368D01*
X176992010Y-114612589D01*
X176880068Y-114882842D01*
X176823000Y-115169740D01*
X176823000Y-115462260D01*
X176880068Y-115749158D01*
X176992010Y-116019411D01*
X177154525Y-116262632D01*
X177361368Y-116469475D01*
X177535760Y-116586000D01*
X177361368Y-116702525D01*
X177154525Y-116909368D01*
X176992010Y-117152589D01*
X176880068Y-117422842D01*
X176823000Y-117709740D01*
X176823000Y-118002260D01*
X176880068Y-118289158D01*
X176992010Y-118559411D01*
X177154525Y-118802632D01*
X177361368Y-119009475D01*
X177535760Y-119126000D01*
X177361368Y-119242525D01*
X177154525Y-119449368D01*
X176992010Y-119692589D01*
X176880068Y-119962842D01*
X176823000Y-120249740D01*
X176823000Y-120542260D01*
X176880068Y-120829158D01*
X176992010Y-121099411D01*
X177154525Y-121342632D01*
X177286380Y-121474487D01*
X177213820Y-121496498D01*
X177103506Y-121555463D01*
X177006815Y-121634815D01*
X176927463Y-121731506D01*
X176868498Y-121841820D01*
X176832188Y-121961518D01*
X176819928Y-122086000D01*
X169706802Y-122086000D01*
X169567608Y-121916392D01*
X169349101Y-121737068D01*
X169216142Y-121666000D01*
X169349101Y-121594932D01*
X169567608Y-121415608D01*
X169746932Y-121197101D01*
X169880182Y-120947808D01*
X169962236Y-120677309D01*
X169989943Y-120396000D01*
X169962236Y-120114691D01*
X169880182Y-119844192D01*
X169746932Y-119594899D01*
X169567608Y-119376392D01*
X169349101Y-119197068D01*
X169216142Y-119126000D01*
X169349101Y-119054932D01*
X169567608Y-118875608D01*
X169746932Y-118657101D01*
X169880182Y-118407808D01*
X169962236Y-118137309D01*
X169989943Y-117856000D01*
X169962236Y-117574691D01*
X169880182Y-117304192D01*
X169746932Y-117054899D01*
X169567608Y-116836392D01*
X169349101Y-116657068D01*
X169216142Y-116586000D01*
X169349101Y-116514932D01*
X169567608Y-116335608D01*
X169746932Y-116117101D01*
X169880182Y-115867808D01*
X169962236Y-115597309D01*
X169989943Y-115316000D01*
X169962236Y-115034691D01*
X169880182Y-114764192D01*
X169746932Y-114514899D01*
X169567608Y-114296392D01*
X169349101Y-114117068D01*
X169216142Y-114046000D01*
X169349101Y-113974932D01*
X169567608Y-113795608D01*
X169746932Y-113577101D01*
X169880182Y-113327808D01*
X169962236Y-113057309D01*
X169989943Y-112776000D01*
X169962236Y-112494691D01*
X169880182Y-112224192D01*
X169746932Y-111974899D01*
X169567608Y-111756392D01*
X169349101Y-111577068D01*
X169216142Y-111506000D01*
X169349101Y-111434932D01*
X169567608Y-111255608D01*
X169746932Y-111037101D01*
X169880182Y-110787808D01*
X169962236Y-110517309D01*
X169989943Y-110236000D01*
X169962236Y-109954691D01*
X169880182Y-109684192D01*
X169746932Y-109434899D01*
X169567608Y-109216392D01*
X169349101Y-109037068D01*
X169216142Y-108966000D01*
X169349101Y-108894932D01*
X169567608Y-108715608D01*
X169746932Y-108497101D01*
X169880182Y-108247808D01*
X169962236Y-107977309D01*
X169989943Y-107696000D01*
X169962236Y-107414691D01*
X169880182Y-107144192D01*
X169746932Y-106894899D01*
X169567608Y-106676392D01*
X169349101Y-106497068D01*
X169216142Y-106426000D01*
X169349101Y-106354932D01*
X169567608Y-106175608D01*
X169746932Y-105957101D01*
X169880182Y-105707808D01*
X169962236Y-105437309D01*
X169989943Y-105156000D01*
X169962236Y-104874691D01*
X169880182Y-104604192D01*
X169746932Y-104354899D01*
X169567608Y-104136392D01*
X169349101Y-103957068D01*
X169216142Y-103886000D01*
X169349101Y-103814932D01*
X169567608Y-103635608D01*
X169746932Y-103417101D01*
X169880182Y-103167808D01*
X169962236Y-102897309D01*
X169989943Y-102616000D01*
X169962236Y-102334691D01*
X169880182Y-102064192D01*
X169746932Y-101814899D01*
X169567608Y-101596392D01*
X169349101Y-101417068D01*
X169216142Y-101346000D01*
X169349101Y-101274932D01*
X169567608Y-101095608D01*
X169746932Y-100877101D01*
X169880182Y-100627808D01*
X169962236Y-100357309D01*
X169989943Y-100076000D01*
X169962236Y-99794691D01*
X169880182Y-99524192D01*
X169746932Y-99274899D01*
X169567608Y-99056392D01*
X169349101Y-98877068D01*
X169221259Y-98808735D01*
X169450839Y-98658601D01*
X169652500Y-98460895D01*
X169811715Y-98227646D01*
X169922367Y-97967818D01*
X169939904Y-97885039D01*
X169817915Y-97663000D01*
X168275000Y-97663000D01*
X168275000Y-97683000D01*
X168021000Y-97683000D01*
X168021000Y-97663000D01*
X166478085Y-97663000D01*
X166356096Y-97885039D01*
X166373633Y-97967818D01*
X166484285Y-98227646D01*
X166643500Y-98460895D01*
X166845161Y-98658601D01*
X167074741Y-98808735D01*
X166946899Y-98877068D01*
X166728392Y-99056392D01*
X166549068Y-99274899D01*
X166415818Y-99524192D01*
X166333764Y-99794691D01*
X166306057Y-100076000D01*
X154749943Y-100076000D01*
X154722236Y-99794691D01*
X154640182Y-99524192D01*
X154506932Y-99274899D01*
X154327608Y-99056392D01*
X154109101Y-98877068D01*
X153976142Y-98806000D01*
X154109101Y-98734932D01*
X154327608Y-98555608D01*
X154506932Y-98337101D01*
X154640182Y-98087808D01*
X154722236Y-97817309D01*
X154749943Y-97536000D01*
X154722236Y-97254691D01*
X154640182Y-96984192D01*
X154506932Y-96734899D01*
X154327608Y-96516392D01*
X154109101Y-96337068D01*
X153976142Y-96266000D01*
X154109101Y-96194932D01*
X154327608Y-96015608D01*
X154506932Y-95797101D01*
X154640182Y-95547808D01*
X154722236Y-95277309D01*
X154749943Y-94996000D01*
X154722236Y-94714691D01*
X154640182Y-94444192D01*
X154506932Y-94194899D01*
X154327608Y-93976392D01*
X154109101Y-93797068D01*
X153976142Y-93726000D01*
X154109101Y-93654932D01*
X154327608Y-93475608D01*
X154506932Y-93257101D01*
X154640182Y-93007808D01*
X154722236Y-92737309D01*
X154749943Y-92456000D01*
X154722236Y-92174691D01*
X154640182Y-91904192D01*
X154506932Y-91654899D01*
X154327608Y-91436392D01*
X154109101Y-91257068D01*
X153976142Y-91186000D01*
X154109101Y-91114932D01*
X154327608Y-90935608D01*
X154506932Y-90717101D01*
X154640182Y-90467808D01*
X154722236Y-90197309D01*
X154749943Y-89916000D01*
X154722236Y-89634691D01*
X154640182Y-89364192D01*
X154506932Y-89114899D01*
X154327608Y-88896392D01*
X154109101Y-88717068D01*
X153976142Y-88646000D01*
X154109101Y-88574932D01*
X154327608Y-88395608D01*
X154506932Y-88177101D01*
X154640182Y-87927808D01*
X154722236Y-87657309D01*
X154749943Y-87376000D01*
X154722236Y-87094691D01*
X154640182Y-86824192D01*
X154506932Y-86574899D01*
X154327608Y-86356392D01*
X154109101Y-86177068D01*
X153976142Y-86106000D01*
X154109101Y-86034932D01*
X154327608Y-85855608D01*
X154506932Y-85637101D01*
X154640182Y-85387808D01*
X154722236Y-85117309D01*
X154749943Y-84836000D01*
X154722236Y-84554691D01*
X154640182Y-84284192D01*
X154506932Y-84034899D01*
X154327608Y-83816392D01*
X154109101Y-83637068D01*
X153976142Y-83566000D01*
X154109101Y-83494932D01*
X154327608Y-83315608D01*
X154506932Y-83097101D01*
X154640182Y-82847808D01*
X154722236Y-82577309D01*
X154749943Y-82296000D01*
X154722236Y-82014691D01*
X154640182Y-81744192D01*
X154506932Y-81494899D01*
X154327608Y-81276392D01*
X154109101Y-81097068D01*
X153976142Y-81026000D01*
X154109101Y-80954932D01*
X154327608Y-80775608D01*
X154506932Y-80557101D01*
X154640182Y-80307808D01*
X154722236Y-80037309D01*
X154749943Y-79756000D01*
X154722236Y-79474691D01*
X154640182Y-79204192D01*
X154506932Y-78954899D01*
X154327608Y-78736392D01*
X154109101Y-78557068D01*
X153976142Y-78486000D01*
X154109101Y-78414932D01*
X154327608Y-78235608D01*
X154506932Y-78017101D01*
X154640182Y-77767808D01*
X154722236Y-77497309D01*
X154749943Y-77216000D01*
X166306057Y-77216000D01*
X166333764Y-77497309D01*
X166415818Y-77767808D01*
X166549068Y-78017101D01*
X166728392Y-78235608D01*
X166946899Y-78414932D01*
X167079858Y-78486000D01*
X166946899Y-78557068D01*
X166728392Y-78736392D01*
X166549068Y-78954899D01*
X166415818Y-79204192D01*
X166333764Y-79474691D01*
X166306057Y-79756000D01*
X166333764Y-80037309D01*
X166415818Y-80307808D01*
X166549068Y-80557101D01*
X166728392Y-80775608D01*
X166946899Y-80954932D01*
X167079858Y-81026000D01*
X166946899Y-81097068D01*
X166728392Y-81276392D01*
X166549068Y-81494899D01*
X166415818Y-81744192D01*
X166333764Y-82014691D01*
X166306057Y-82296000D01*
X166333764Y-82577309D01*
X166415818Y-82847808D01*
X166549068Y-83097101D01*
X166728392Y-83315608D01*
X166946899Y-83494932D01*
X167079858Y-83566000D01*
X166946899Y-83637068D01*
X166728392Y-83816392D01*
X166549068Y-84034899D01*
X166415818Y-84284192D01*
X166333764Y-84554691D01*
X166306057Y-84836000D01*
X166333764Y-85117309D01*
X166415818Y-85387808D01*
X166549068Y-85637101D01*
X166728392Y-85855608D01*
X166946899Y-86034932D01*
X167079858Y-86106000D01*
X166946899Y-86177068D01*
X166728392Y-86356392D01*
X166549068Y-86574899D01*
X166415818Y-86824192D01*
X166333764Y-87094691D01*
X166306057Y-87376000D01*
X166333764Y-87657309D01*
X166415818Y-87927808D01*
X166549068Y-88177101D01*
X166728392Y-88395608D01*
X166946899Y-88574932D01*
X167079858Y-88646000D01*
X166946899Y-88717068D01*
X166728392Y-88896392D01*
X166549068Y-89114899D01*
X166415818Y-89364192D01*
X166333764Y-89634691D01*
X166306057Y-89916000D01*
X166333764Y-90197309D01*
X166415818Y-90467808D01*
X166549068Y-90717101D01*
X166728392Y-90935608D01*
X166946899Y-91114932D01*
X167079858Y-91186000D01*
X166946899Y-91257068D01*
X166728392Y-91436392D01*
X166549068Y-91654899D01*
X166415818Y-91904192D01*
X166333764Y-92174691D01*
X166306057Y-92456000D01*
X166333764Y-92737309D01*
X166415818Y-93007808D01*
X166549068Y-93257101D01*
X166728392Y-93475608D01*
X166946899Y-93654932D01*
X167079858Y-93726000D01*
X166946899Y-93797068D01*
X166728392Y-93976392D01*
X166549068Y-94194899D01*
X166415818Y-94444192D01*
X166333764Y-94714691D01*
X166306057Y-94996000D01*
X166333764Y-95277309D01*
X166415818Y-95547808D01*
X166549068Y-95797101D01*
X166728392Y-96015608D01*
X166946899Y-96194932D01*
X167074741Y-96263265D01*
X166845161Y-96413399D01*
X166643500Y-96611105D01*
X166484285Y-96844354D01*
X166373633Y-97104182D01*
X166356096Y-97186961D01*
X166478085Y-97409000D01*
X168021000Y-97409000D01*
X168021000Y-97389000D01*
X168275000Y-97389000D01*
X168275000Y-97409000D01*
X169817915Y-97409000D01*
X169939904Y-97186961D01*
X169922367Y-97104182D01*
X169811715Y-96844354D01*
X169652500Y-96611105D01*
X169450839Y-96413399D01*
X169221259Y-96263265D01*
X169349101Y-96194932D01*
X169567608Y-96015608D01*
X169746932Y-95797101D01*
X169880182Y-95547808D01*
X169962236Y-95277309D01*
X169989943Y-94996000D01*
X169962236Y-94714691D01*
X169880182Y-94444192D01*
X169746932Y-94194899D01*
X169567608Y-93976392D01*
X169349101Y-93797068D01*
X169216142Y-93726000D01*
X169349101Y-93654932D01*
X169567608Y-93475608D01*
X169746932Y-93257101D01*
X169880182Y-93007808D01*
X169962236Y-92737309D01*
X169989943Y-92456000D01*
X169962236Y-92174691D01*
X169880182Y-91904192D01*
X169746932Y-91654899D01*
X169567608Y-91436392D01*
X169349101Y-91257068D01*
X169216142Y-91186000D01*
X169349101Y-91114932D01*
X169567608Y-90935608D01*
X169746932Y-90717101D01*
X169880182Y-90467808D01*
X169962236Y-90197309D01*
X169989943Y-89916000D01*
X169962236Y-89634691D01*
X169880182Y-89364192D01*
X169746932Y-89114899D01*
X169567608Y-88896392D01*
X169349101Y-88717068D01*
X169216142Y-88646000D01*
X169349101Y-88574932D01*
X169567608Y-88395608D01*
X169746932Y-88177101D01*
X169880182Y-87927808D01*
X169962236Y-87657309D01*
X169989943Y-87376000D01*
X169962236Y-87094691D01*
X169880182Y-86824192D01*
X169746932Y-86574899D01*
X169567608Y-86356392D01*
X169349101Y-86177068D01*
X169216142Y-86106000D01*
X169349101Y-86034932D01*
X169567608Y-85855608D01*
X169746932Y-85637101D01*
X169880182Y-85387808D01*
X169962236Y-85117309D01*
X169989943Y-84836000D01*
X169962236Y-84554691D01*
X169880182Y-84284192D01*
X169746932Y-84034899D01*
X169567608Y-83816392D01*
X169349101Y-83637068D01*
X169216142Y-83566000D01*
X169349101Y-83494932D01*
X169567608Y-83315608D01*
X169746932Y-83097101D01*
X169880182Y-82847808D01*
X169962236Y-82577309D01*
X169989943Y-82296000D01*
X169962236Y-82014691D01*
X169880182Y-81744192D01*
X169746932Y-81494899D01*
X169567608Y-81276392D01*
X169349101Y-81097068D01*
X169216142Y-81026000D01*
X169349101Y-80954932D01*
X169567608Y-80775608D01*
X169746932Y-80557101D01*
X169880182Y-80307808D01*
X169962236Y-80037309D01*
X169989943Y-79756000D01*
X169962236Y-79474691D01*
X169880182Y-79204192D01*
X169746932Y-78954899D01*
X169567608Y-78736392D01*
X169349101Y-78557068D01*
X169216142Y-78486000D01*
X169349101Y-78414932D01*
X169567608Y-78235608D01*
X169746932Y-78017101D01*
X169880182Y-77767808D01*
X169962236Y-77497309D01*
X169989943Y-77216000D01*
X169962236Y-76934691D01*
X169880182Y-76664192D01*
X169746932Y-76414899D01*
X169567608Y-76196392D01*
X169349101Y-76017068D01*
X169221259Y-75948735D01*
X169450839Y-75798601D01*
X169652500Y-75600895D01*
X169737752Y-75476000D01*
X173821928Y-75476000D01*
X173834188Y-75600482D01*
X173870498Y-75720180D01*
X173929463Y-75830494D01*
X174008815Y-75927185D01*
X174105506Y-76006537D01*
X174215820Y-76065502D01*
X174335518Y-76101812D01*
X174343961Y-76102643D01*
X174145363Y-76301241D01*
X173988320Y-76536273D01*
X173880147Y-76797426D01*
X173825000Y-77074665D01*
X173825000Y-77357335D01*
X173880147Y-77634574D01*
X173988320Y-77895727D01*
X174145363Y-78130759D01*
X174345241Y-78330637D01*
X174577759Y-78486000D01*
X174345241Y-78641363D01*
X174145363Y-78841241D01*
X173988320Y-79076273D01*
X173880147Y-79337426D01*
X173825000Y-79614665D01*
X173825000Y-79897335D01*
X173880147Y-80174574D01*
X173988320Y-80435727D01*
X174145363Y-80670759D01*
X174345241Y-80870637D01*
X174577759Y-81026000D01*
X174345241Y-81181363D01*
X174145363Y-81381241D01*
X173988320Y-81616273D01*
X173880147Y-81877426D01*
X173825000Y-82154665D01*
X173825000Y-82437335D01*
X173880147Y-82714574D01*
X173988320Y-82975727D01*
X174145363Y-83210759D01*
X174345241Y-83410637D01*
X174577759Y-83566000D01*
X174345241Y-83721363D01*
X174145363Y-83921241D01*
X173988320Y-84156273D01*
X173880147Y-84417426D01*
X173825000Y-84694665D01*
X173825000Y-84977335D01*
X173880147Y-85254574D01*
X173988320Y-85515727D01*
X174145363Y-85750759D01*
X174345241Y-85950637D01*
X174577759Y-86106000D01*
X174345241Y-86261363D01*
X174145363Y-86461241D01*
X173988320Y-86696273D01*
X173880147Y-86957426D01*
X173825000Y-87234665D01*
X173825000Y-87517335D01*
X173880147Y-87794574D01*
X173988320Y-88055727D01*
X174145363Y-88290759D01*
X174345241Y-88490637D01*
X174577759Y-88646000D01*
X174345241Y-88801363D01*
X174145363Y-89001241D01*
X173988320Y-89236273D01*
X173880147Y-89497426D01*
X173825000Y-89774665D01*
X173825000Y-90057335D01*
X173880147Y-90334574D01*
X173988320Y-90595727D01*
X174145363Y-90830759D01*
X174345241Y-91030637D01*
X174577759Y-91186000D01*
X174345241Y-91341363D01*
X174145363Y-91541241D01*
X173988320Y-91776273D01*
X173880147Y-92037426D01*
X173825000Y-92314665D01*
X173825000Y-92597335D01*
X173880147Y-92874574D01*
X173988320Y-93135727D01*
X174145363Y-93370759D01*
X174345241Y-93570637D01*
X174577759Y-93726000D01*
X174345241Y-93881363D01*
X174145363Y-94081241D01*
X173988320Y-94316273D01*
X173880147Y-94577426D01*
X173825000Y-94854665D01*
X173825000Y-95137335D01*
X173880147Y-95414574D01*
X173988320Y-95675727D01*
X174145363Y-95910759D01*
X174345241Y-96110637D01*
X174580273Y-96267680D01*
X174841426Y-96375853D01*
X175118665Y-96431000D01*
X175401335Y-96431000D01*
X175583887Y-96394688D01*
X185217779Y-106028582D01*
X185217780Y-117360447D01*
X185214103Y-117397779D01*
X185228777Y-117546764D01*
X185272233Y-117690025D01*
X185342805Y-117822055D01*
X185413980Y-117908781D01*
X185437779Y-117937780D01*
X185466777Y-117961578D01*
X187887126Y-120381928D01*
X187060000Y-120381928D01*
X186935518Y-120394188D01*
X186815820Y-120430498D01*
X186705506Y-120489463D01*
X186608815Y-120568815D01*
X186529463Y-120665506D01*
X186470498Y-120775820D01*
X186434188Y-120895518D01*
X186421928Y-121020000D01*
X186421928Y-122820000D01*
X186434188Y-122944482D01*
X186470498Y-123064180D01*
X186529463Y-123174494D01*
X186608815Y-123271185D01*
X186705506Y-123350537D01*
X186815820Y-123409502D01*
X186935518Y-123445812D01*
X187060000Y-123458072D01*
X188860000Y-123458072D01*
X188984482Y-123445812D01*
X189104180Y-123409502D01*
X189214494Y-123350537D01*
X189311185Y-123271185D01*
X189390537Y-123174494D01*
X189449502Y-123064180D01*
X189455056Y-123045873D01*
X189521495Y-123112312D01*
X189772905Y-123280299D01*
X190052257Y-123396011D01*
X190348816Y-123455000D01*
X190651184Y-123455000D01*
X190947743Y-123396011D01*
X191227095Y-123280299D01*
X191478505Y-123112312D01*
X191692312Y-122898505D01*
X191860299Y-122647095D01*
X191976011Y-122367743D01*
X192035000Y-122071184D01*
X192035000Y-121768816D01*
X191976011Y-121472257D01*
X191860299Y-121192905D01*
X191692312Y-120941495D01*
X191478505Y-120727688D01*
X191227095Y-120559701D01*
X190947743Y-120443989D01*
X190651184Y-120385000D01*
X190348816Y-120385000D01*
X190091071Y-120436268D01*
X186737779Y-117082978D01*
X186737779Y-116763788D01*
X186815820Y-116805502D01*
X186935518Y-116841812D01*
X187060000Y-116854072D01*
X188860000Y-116854072D01*
X188984482Y-116841812D01*
X189104180Y-116805502D01*
X189214494Y-116746537D01*
X189311185Y-116667185D01*
X189390537Y-116570494D01*
X189449502Y-116460180D01*
X189455056Y-116441873D01*
X189521495Y-116508312D01*
X189772905Y-116676299D01*
X190052257Y-116792011D01*
X190348816Y-116851000D01*
X190651184Y-116851000D01*
X190947743Y-116792011D01*
X191227095Y-116676299D01*
X191478505Y-116508312D01*
X191692312Y-116294505D01*
X191860299Y-116043095D01*
X191976011Y-115763743D01*
X192035000Y-115467184D01*
X192035000Y-115164816D01*
X191976011Y-114868257D01*
X191860299Y-114588905D01*
X191692312Y-114337495D01*
X191478505Y-114123688D01*
X191227095Y-113955701D01*
X190947743Y-113839989D01*
X190651184Y-113781000D01*
X190348816Y-113781000D01*
X190091071Y-113832269D01*
X187140189Y-110881388D01*
X187140189Y-110250072D01*
X188860000Y-110250072D01*
X188984482Y-110237812D01*
X189104180Y-110201502D01*
X189214494Y-110142537D01*
X189311185Y-110063185D01*
X189390537Y-109966494D01*
X189449502Y-109856180D01*
X189455056Y-109837873D01*
X189521495Y-109904312D01*
X189772905Y-110072299D01*
X190052257Y-110188011D01*
X190348816Y-110247000D01*
X190651184Y-110247000D01*
X190947743Y-110188011D01*
X191227095Y-110072299D01*
X191478505Y-109904312D01*
X191692312Y-109690505D01*
X191860299Y-109439095D01*
X191976011Y-109159743D01*
X192035000Y-108863184D01*
X192035000Y-108560816D01*
X191976011Y-108264257D01*
X191860299Y-107984905D01*
X191692312Y-107733495D01*
X191478505Y-107519688D01*
X191227095Y-107351701D01*
X190947743Y-107235989D01*
X190651184Y-107177000D01*
X190348816Y-107177000D01*
X190091071Y-107228269D01*
X187542599Y-104679798D01*
X187542599Y-103646072D01*
X188860000Y-103646072D01*
X188984482Y-103633812D01*
X189104180Y-103597502D01*
X189214494Y-103538537D01*
X189311185Y-103459185D01*
X189390537Y-103362494D01*
X189449502Y-103252180D01*
X189455056Y-103233873D01*
X189521495Y-103300312D01*
X189772905Y-103468299D01*
X190052257Y-103584011D01*
X190348816Y-103643000D01*
X190651184Y-103643000D01*
X190947743Y-103584011D01*
X191227095Y-103468299D01*
X191478505Y-103300312D01*
X191692312Y-103086505D01*
X191860299Y-102835095D01*
X191976011Y-102555743D01*
X192035000Y-102259184D01*
X192035000Y-101956816D01*
X191976011Y-101660257D01*
X191860299Y-101380905D01*
X191692312Y-101129495D01*
X191478505Y-100915688D01*
X191227095Y-100747701D01*
X190947743Y-100631989D01*
X190666149Y-100575977D01*
X187132244Y-97042072D01*
X188860000Y-97042072D01*
X188984482Y-97029812D01*
X189104180Y-96993502D01*
X189214494Y-96934537D01*
X189311185Y-96855185D01*
X189390537Y-96758494D01*
X189449502Y-96648180D01*
X189455056Y-96629873D01*
X189521495Y-96696312D01*
X189772905Y-96864299D01*
X190052257Y-96980011D01*
X190348816Y-97039000D01*
X190651184Y-97039000D01*
X190947743Y-96980011D01*
X191227095Y-96864299D01*
X191478505Y-96696312D01*
X191692312Y-96482505D01*
X191860299Y-96231095D01*
X191976011Y-95951743D01*
X192035000Y-95655184D01*
X192035000Y-95352816D01*
X191976011Y-95056257D01*
X191860299Y-94776905D01*
X191692312Y-94525495D01*
X191478505Y-94311688D01*
X191227095Y-94143701D01*
X190947743Y-94027989D01*
X190651184Y-93969000D01*
X190348816Y-93969000D01*
X190091070Y-94020269D01*
X180395804Y-84325003D01*
X180372001Y-84295999D01*
X180256276Y-84201026D01*
X180124247Y-84130454D01*
X179980986Y-84086997D01*
X179869333Y-84076000D01*
X179869322Y-84076000D01*
X179832000Y-84072324D01*
X179794678Y-84076000D01*
X176478043Y-84076000D01*
X176374637Y-83921241D01*
X176174759Y-83721363D01*
X175942241Y-83566000D01*
X176174759Y-83410637D01*
X176374637Y-83210759D01*
X176478043Y-83056000D01*
X183581199Y-83056000D01*
X187887126Y-87361928D01*
X187060000Y-87361928D01*
X186935518Y-87374188D01*
X186815820Y-87410498D01*
X186705506Y-87469463D01*
X186608815Y-87548815D01*
X186529463Y-87645506D01*
X186470498Y-87755820D01*
X186434188Y-87875518D01*
X186421928Y-88000000D01*
X186421928Y-89800000D01*
X186434188Y-89924482D01*
X186470498Y-90044180D01*
X186529463Y-90154494D01*
X186608815Y-90251185D01*
X186705506Y-90330537D01*
X186815820Y-90389502D01*
X186935518Y-90425812D01*
X187060000Y-90438072D01*
X188860000Y-90438072D01*
X188984482Y-90425812D01*
X189104180Y-90389502D01*
X189214494Y-90330537D01*
X189311185Y-90251185D01*
X189390537Y-90154494D01*
X189449502Y-90044180D01*
X189455056Y-90025873D01*
X189521495Y-90092312D01*
X189772905Y-90260299D01*
X190052257Y-90376011D01*
X190348816Y-90435000D01*
X190651184Y-90435000D01*
X190947743Y-90376011D01*
X191227095Y-90260299D01*
X191478505Y-90092312D01*
X191692312Y-89878505D01*
X191860299Y-89627095D01*
X191976011Y-89347743D01*
X192035000Y-89051184D01*
X192035000Y-88748816D01*
X191976011Y-88452257D01*
X191860299Y-88172905D01*
X191692312Y-87921495D01*
X191478505Y-87707688D01*
X191227095Y-87539701D01*
X190947743Y-87423989D01*
X190651184Y-87365000D01*
X190348816Y-87365000D01*
X190091070Y-87416269D01*
X184459804Y-81785003D01*
X184436001Y-81755999D01*
X184320276Y-81661026D01*
X184188247Y-81590454D01*
X184044986Y-81546997D01*
X183933333Y-81536000D01*
X183933322Y-81536000D01*
X183896000Y-81532324D01*
X183858678Y-81536000D01*
X176478043Y-81536000D01*
X176374637Y-81381241D01*
X176174759Y-81181363D01*
X175942241Y-81026000D01*
X176174759Y-80870637D01*
X176374637Y-80670759D01*
X176478043Y-80516000D01*
X187645199Y-80516000D01*
X187887127Y-80757928D01*
X187060000Y-80757928D01*
X186935518Y-80770188D01*
X186815820Y-80806498D01*
X186705506Y-80865463D01*
X186608815Y-80944815D01*
X186529463Y-81041506D01*
X186470498Y-81151820D01*
X186434188Y-81271518D01*
X186421928Y-81396000D01*
X186421928Y-83196000D01*
X186434188Y-83320482D01*
X186470498Y-83440180D01*
X186529463Y-83550494D01*
X186608815Y-83647185D01*
X186705506Y-83726537D01*
X186815820Y-83785502D01*
X186935518Y-83821812D01*
X187060000Y-83834072D01*
X188860000Y-83834072D01*
X188984482Y-83821812D01*
X189104180Y-83785502D01*
X189214494Y-83726537D01*
X189311185Y-83647185D01*
X189390537Y-83550494D01*
X189449502Y-83440180D01*
X189455056Y-83421873D01*
X189521495Y-83488312D01*
X189772905Y-83656299D01*
X190052257Y-83772011D01*
X190348816Y-83831000D01*
X190651184Y-83831000D01*
X190947743Y-83772011D01*
X191227095Y-83656299D01*
X191478505Y-83488312D01*
X191692312Y-83274505D01*
X191860299Y-83023095D01*
X191976011Y-82743743D01*
X192035000Y-82447184D01*
X192035000Y-82144816D01*
X191976011Y-81848257D01*
X191860299Y-81568905D01*
X191692312Y-81317495D01*
X191478505Y-81103688D01*
X191227095Y-80935701D01*
X190947743Y-80819989D01*
X190651184Y-80761000D01*
X190348816Y-80761000D01*
X190091071Y-80812268D01*
X188523804Y-79245003D01*
X188500001Y-79215999D01*
X188384276Y-79121026D01*
X188252247Y-79050454D01*
X188108986Y-79006997D01*
X187997333Y-78996000D01*
X187997322Y-78996000D01*
X187960000Y-78992324D01*
X187922678Y-78996000D01*
X176478043Y-78996000D01*
X176374637Y-78841241D01*
X176174759Y-78641363D01*
X175942241Y-78486000D01*
X176174759Y-78330637D01*
X176374637Y-78130759D01*
X176478043Y-77976000D01*
X188938678Y-77976000D01*
X188976000Y-77979676D01*
X189013322Y-77976000D01*
X189013333Y-77976000D01*
X189124986Y-77965003D01*
X189268247Y-77921546D01*
X189400276Y-77850974D01*
X189516001Y-77756001D01*
X189539803Y-77726998D01*
X190091070Y-77175731D01*
X190348816Y-77227000D01*
X190651184Y-77227000D01*
X190947743Y-77168011D01*
X191227095Y-77052299D01*
X191478505Y-76884312D01*
X191692312Y-76670505D01*
X191860299Y-76419095D01*
X191976011Y-76139743D01*
X192035000Y-75843184D01*
X192035000Y-75540816D01*
X191976011Y-75244257D01*
X191860299Y-74964905D01*
X191692312Y-74713495D01*
X191478505Y-74499688D01*
X191227095Y-74331701D01*
X190947743Y-74215989D01*
X190651184Y-74157000D01*
X190348816Y-74157000D01*
X190052257Y-74215989D01*
X189772905Y-74331701D01*
X189521495Y-74499688D01*
X189455056Y-74566127D01*
X189449502Y-74547820D01*
X189390537Y-74437506D01*
X189311185Y-74340815D01*
X189214494Y-74261463D01*
X189104180Y-74202498D01*
X188984482Y-74166188D01*
X188860000Y-74153928D01*
X187060000Y-74153928D01*
X186935518Y-74166188D01*
X186815820Y-74202498D01*
X186705506Y-74261463D01*
X186608815Y-74340815D01*
X186529463Y-74437506D01*
X186470498Y-74547820D01*
X186434188Y-74667518D01*
X186421928Y-74792000D01*
X186421928Y-76456000D01*
X176478043Y-76456000D01*
X176374637Y-76301241D01*
X176176039Y-76102643D01*
X176184482Y-76101812D01*
X176304180Y-76065502D01*
X176414494Y-76006537D01*
X176511185Y-75927185D01*
X176590537Y-75830494D01*
X176649502Y-75720180D01*
X176685812Y-75600482D01*
X176698072Y-75476000D01*
X176695000Y-74961750D01*
X176536250Y-74803000D01*
X175387000Y-74803000D01*
X175387000Y-74823000D01*
X175133000Y-74823000D01*
X175133000Y-74803000D01*
X173983750Y-74803000D01*
X173825000Y-74961750D01*
X173821928Y-75476000D01*
X169737752Y-75476000D01*
X169811715Y-75367646D01*
X169922367Y-75107818D01*
X169939904Y-75025039D01*
X169817915Y-74803000D01*
X168275000Y-74803000D01*
X168275000Y-74823000D01*
X168021000Y-74823000D01*
X168021000Y-74803000D01*
X166478085Y-74803000D01*
X166356096Y-75025039D01*
X166373633Y-75107818D01*
X166484285Y-75367646D01*
X166643500Y-75600895D01*
X166845161Y-75798601D01*
X167074741Y-75948735D01*
X166946899Y-76017068D01*
X166728392Y-76196392D01*
X166549068Y-76414899D01*
X166415818Y-76664192D01*
X166333764Y-76934691D01*
X166306057Y-77216000D01*
X154749943Y-77216000D01*
X154722236Y-76934691D01*
X154640182Y-76664192D01*
X154506932Y-76414899D01*
X154327608Y-76196392D01*
X154214518Y-76103581D01*
X154232482Y-76101812D01*
X154352180Y-76065502D01*
X154462494Y-76006537D01*
X154559185Y-75927185D01*
X154638537Y-75830494D01*
X154697502Y-75720180D01*
X154733812Y-75600482D01*
X154746072Y-75476000D01*
X154746072Y-74326961D01*
X166356096Y-74326961D01*
X166478085Y-74549000D01*
X168021000Y-74549000D01*
X168021000Y-73241000D01*
X168275000Y-73241000D01*
X168275000Y-74549000D01*
X169817915Y-74549000D01*
X169939904Y-74326961D01*
X169922367Y-74244182D01*
X169811715Y-73984354D01*
X169737753Y-73876000D01*
X173821928Y-73876000D01*
X173825000Y-74390250D01*
X173983750Y-74549000D01*
X175133000Y-74549000D01*
X175133000Y-73399750D01*
X175387000Y-73399750D01*
X175387000Y-74549000D01*
X176536250Y-74549000D01*
X176695000Y-74390250D01*
X176698072Y-73876000D01*
X176685812Y-73751518D01*
X176649502Y-73631820D01*
X176590537Y-73521506D01*
X176511185Y-73424815D01*
X176414494Y-73345463D01*
X176304180Y-73286498D01*
X176184482Y-73250188D01*
X176060000Y-73237928D01*
X175545750Y-73241000D01*
X175387000Y-73399750D01*
X175133000Y-73399750D01*
X174974250Y-73241000D01*
X174460000Y-73237928D01*
X174335518Y-73250188D01*
X174215820Y-73286498D01*
X174105506Y-73345463D01*
X174008815Y-73424815D01*
X173929463Y-73521506D01*
X173870498Y-73631820D01*
X173834188Y-73751518D01*
X173821928Y-73876000D01*
X169737753Y-73876000D01*
X169652500Y-73751105D01*
X169450839Y-73553399D01*
X169214483Y-73398834D01*
X168952514Y-73293350D01*
X168675000Y-73241000D01*
X168275000Y-73241000D01*
X168021000Y-73241000D01*
X167621000Y-73241000D01*
X167343486Y-73293350D01*
X167081517Y-73398834D01*
X166845161Y-73553399D01*
X166643500Y-73751105D01*
X166484285Y-73984354D01*
X166373633Y-74244182D01*
X166356096Y-74326961D01*
X154746072Y-74326961D01*
X154746072Y-73876000D01*
X154733812Y-73751518D01*
X154697502Y-73631820D01*
X154638537Y-73521506D01*
X154559185Y-73424815D01*
X154462494Y-73345463D01*
X154352180Y-73286498D01*
X154232482Y-73250188D01*
X154108000Y-73237928D01*
X151708000Y-73237928D01*
X151583518Y-73250188D01*
X151463820Y-73286498D01*
X151353506Y-73345463D01*
X151256815Y-73424815D01*
X151177463Y-73521506D01*
X151118498Y-73631820D01*
X151082188Y-73751518D01*
X151069928Y-73876000D01*
X151069928Y-75476000D01*
X151082188Y-75600482D01*
X151118498Y-75720180D01*
X151177463Y-75830494D01*
X151256815Y-75927185D01*
X151353506Y-76006537D01*
X151463820Y-76065502D01*
X151583518Y-76101812D01*
X151601482Y-76103581D01*
X151488392Y-76196392D01*
X151309068Y-76414899D01*
X151175818Y-76664192D01*
X151093764Y-76934691D01*
X151066057Y-77216000D01*
X151093764Y-77497309D01*
X151175818Y-77767808D01*
X151309068Y-78017101D01*
X151488392Y-78235608D01*
X151706899Y-78414932D01*
X151839858Y-78486000D01*
X151706899Y-78557068D01*
X151488392Y-78736392D01*
X151309068Y-78954899D01*
X151175818Y-79204192D01*
X151093764Y-79474691D01*
X151066057Y-79756000D01*
X151093764Y-80037309D01*
X151175818Y-80307808D01*
X151309068Y-80557101D01*
X151488392Y-80775608D01*
X151706899Y-80954932D01*
X151839858Y-81026000D01*
X151706899Y-81097068D01*
X151488392Y-81276392D01*
X151309068Y-81494899D01*
X151175818Y-81744192D01*
X151093764Y-82014691D01*
X151066057Y-82296000D01*
X151093764Y-82577309D01*
X151175818Y-82847808D01*
X151309068Y-83097101D01*
X151488392Y-83315608D01*
X151706899Y-83494932D01*
X151839858Y-83566000D01*
X151706899Y-83637068D01*
X151488392Y-83816392D01*
X151309068Y-84034899D01*
X151175818Y-84284192D01*
X151093764Y-84554691D01*
X151066057Y-84836000D01*
X151093764Y-85117309D01*
X151175818Y-85387808D01*
X151309068Y-85637101D01*
X151488392Y-85855608D01*
X151706899Y-86034932D01*
X151839858Y-86106000D01*
X151706899Y-86177068D01*
X151488392Y-86356392D01*
X151309068Y-86574899D01*
X151175818Y-86824192D01*
X151093764Y-87094691D01*
X151066057Y-87376000D01*
X151093764Y-87657309D01*
X151175818Y-87927808D01*
X151309068Y-88177101D01*
X151488392Y-88395608D01*
X151706899Y-88574932D01*
X151839858Y-88646000D01*
X151706899Y-88717068D01*
X151488392Y-88896392D01*
X151309068Y-89114899D01*
X151287099Y-89156000D01*
X141483506Y-89156000D01*
X141523990Y-89095411D01*
X141635932Y-88825158D01*
X141693000Y-88538260D01*
X141693000Y-88245740D01*
X141635932Y-87958842D01*
X141523990Y-87688589D01*
X141361475Y-87445368D01*
X141154632Y-87238525D01*
X140980240Y-87122000D01*
X141154632Y-87005475D01*
X141361475Y-86798632D01*
X141523990Y-86555411D01*
X141635932Y-86285158D01*
X141693000Y-85998260D01*
X141693000Y-85705740D01*
X141635932Y-85418842D01*
X141523990Y-85148589D01*
X141361475Y-84905368D01*
X141154632Y-84698525D01*
X140980240Y-84582000D01*
X141154632Y-84465475D01*
X141361475Y-84258632D01*
X141523990Y-84015411D01*
X141635932Y-83745158D01*
X141693000Y-83458260D01*
X141693000Y-83165740D01*
X141635932Y-82878842D01*
X141523990Y-82608589D01*
X141361475Y-82365368D01*
X141154632Y-82158525D01*
X140980240Y-82042000D01*
X141154632Y-81925475D01*
X141361475Y-81718632D01*
X141523990Y-81475411D01*
X141635932Y-81205158D01*
X141693000Y-80918260D01*
X141693000Y-80625740D01*
X141635932Y-80338842D01*
X141523990Y-80068589D01*
X141361475Y-79825368D01*
X141154632Y-79618525D01*
X140980240Y-79502000D01*
X141154632Y-79385475D01*
X141361475Y-79178632D01*
X141523990Y-78935411D01*
X141635932Y-78665158D01*
X141693000Y-78378260D01*
X141693000Y-78085740D01*
X141635932Y-77798842D01*
X141523990Y-77528589D01*
X141361475Y-77285368D01*
X141154632Y-77078525D01*
X140980240Y-76962000D01*
X141154632Y-76845475D01*
X141361475Y-76638632D01*
X141523990Y-76395411D01*
X141635932Y-76125158D01*
X141693000Y-75838260D01*
X141693000Y-75545740D01*
X141635932Y-75258842D01*
X141523990Y-74988589D01*
X141361475Y-74745368D01*
X141154632Y-74538525D01*
X140980240Y-74422000D01*
X141154632Y-74305475D01*
X141361475Y-74098632D01*
X141523990Y-73855411D01*
X141635932Y-73585158D01*
X141693000Y-73298260D01*
X141693000Y-73005740D01*
X141635932Y-72718842D01*
X141523990Y-72448589D01*
X141361475Y-72205368D01*
X141229620Y-72073513D01*
X141302180Y-72051502D01*
X141412494Y-71992537D01*
X141509185Y-71913185D01*
X141588537Y-71816494D01*
X141647502Y-71706180D01*
X141683812Y-71586482D01*
X141696072Y-71462000D01*
X141696072Y-70978665D01*
X162181000Y-70978665D01*
X162181000Y-71261335D01*
X162236147Y-71538574D01*
X162344320Y-71799727D01*
X162501363Y-72034759D01*
X162701241Y-72234637D01*
X162936273Y-72391680D01*
X163197426Y-72499853D01*
X163474665Y-72555000D01*
X163757335Y-72555000D01*
X164034574Y-72499853D01*
X164295727Y-72391680D01*
X164530759Y-72234637D01*
X164652694Y-72112702D01*
X165302903Y-72112702D01*
X165374486Y-72356671D01*
X165629996Y-72477571D01*
X165904184Y-72546300D01*
X166186512Y-72560217D01*
X166466130Y-72518787D01*
X166732292Y-72423603D01*
X166857514Y-72356671D01*
X166929097Y-72112702D01*
X166116000Y-71299605D01*
X165302903Y-72112702D01*
X164652694Y-72112702D01*
X164730637Y-72034759D01*
X164864692Y-71834131D01*
X164879329Y-71861514D01*
X165123298Y-71933097D01*
X165936395Y-71120000D01*
X166295605Y-71120000D01*
X167108702Y-71933097D01*
X167352671Y-71861514D01*
X167473571Y-71606004D01*
X167542300Y-71331816D01*
X167556217Y-71049488D01*
X167514787Y-70769870D01*
X167419603Y-70503708D01*
X167352671Y-70378486D01*
X167108702Y-70306903D01*
X166295605Y-71120000D01*
X165936395Y-71120000D01*
X165123298Y-70306903D01*
X164879329Y-70378486D01*
X164865676Y-70407341D01*
X164730637Y-70205241D01*
X164652694Y-70127298D01*
X165302903Y-70127298D01*
X166116000Y-70940395D01*
X166929097Y-70127298D01*
X166857514Y-69883329D01*
X166602004Y-69762429D01*
X166327816Y-69693700D01*
X166045488Y-69679783D01*
X165765870Y-69721213D01*
X165499708Y-69816397D01*
X165374486Y-69883329D01*
X165302903Y-70127298D01*
X164652694Y-70127298D01*
X164530759Y-70005363D01*
X164295727Y-69848320D01*
X164034574Y-69740147D01*
X163757335Y-69685000D01*
X163474665Y-69685000D01*
X163197426Y-69740147D01*
X162936273Y-69848320D01*
X162701241Y-70005363D01*
X162501363Y-70205241D01*
X162344320Y-70440273D01*
X162236147Y-70701426D01*
X162181000Y-70978665D01*
X141696072Y-70978665D01*
X141696072Y-69762000D01*
X141683812Y-69637518D01*
X141647502Y-69517820D01*
X141588537Y-69407506D01*
X141509185Y-69310815D01*
X141412494Y-69231463D01*
X141302180Y-69172498D01*
X141182482Y-69136188D01*
X141058000Y-69123928D01*
X139358000Y-69123928D01*
X139233518Y-69136188D01*
X139113820Y-69172498D01*
X139003506Y-69231463D01*
X138906815Y-69310815D01*
X138827463Y-69407506D01*
X138768498Y-69517820D01*
X138732188Y-69637518D01*
X138719928Y-69762000D01*
X138719928Y-71462000D01*
X138732188Y-71586482D01*
X138768498Y-71706180D01*
X138827463Y-71816494D01*
X138906815Y-71913185D01*
X139003506Y-71992537D01*
X139113820Y-72051502D01*
X139186380Y-72073513D01*
X139054525Y-72205368D01*
X138892010Y-72448589D01*
X138780068Y-72718842D01*
X138723000Y-73005740D01*
X138723000Y-73298260D01*
X138780068Y-73585158D01*
X138892010Y-73855411D01*
X139054525Y-74098632D01*
X139261368Y-74305475D01*
X139435760Y-74422000D01*
X139261368Y-74538525D01*
X139054525Y-74745368D01*
X138892010Y-74988589D01*
X138780068Y-75258842D01*
X138723000Y-75545740D01*
X138723000Y-75838260D01*
X138780068Y-76125158D01*
X138892010Y-76395411D01*
X139054525Y-76638632D01*
X139261368Y-76845475D01*
X139435760Y-76962000D01*
X139261368Y-77078525D01*
X139054525Y-77285368D01*
X138892010Y-77528589D01*
X138780068Y-77798842D01*
X138723000Y-78085740D01*
X138723000Y-78378260D01*
X138780068Y-78665158D01*
X138892010Y-78935411D01*
X139054525Y-79178632D01*
X139261368Y-79385475D01*
X139435760Y-79502000D01*
X139261368Y-79618525D01*
X139054525Y-79825368D01*
X138892010Y-80068589D01*
X138780068Y-80338842D01*
X138723000Y-80625740D01*
X138723000Y-80918260D01*
X138780068Y-81205158D01*
X138892010Y-81475411D01*
X139054525Y-81718632D01*
X139261368Y-81925475D01*
X139435760Y-82042000D01*
X139261368Y-82158525D01*
X139054525Y-82365368D01*
X138892010Y-82608589D01*
X138780068Y-82878842D01*
X138723000Y-83165740D01*
X138723000Y-83458260D01*
X138780068Y-83745158D01*
X138892010Y-84015411D01*
X139054525Y-84258632D01*
X139261368Y-84465475D01*
X139435760Y-84582000D01*
X139261368Y-84698525D01*
X139054525Y-84905368D01*
X138892010Y-85148589D01*
X138780068Y-85418842D01*
X138723000Y-85705740D01*
X138723000Y-85998260D01*
X138780068Y-86285158D01*
X138892010Y-86555411D01*
X139054525Y-86798632D01*
X139261368Y-87005475D01*
X139435760Y-87122000D01*
X139261368Y-87238525D01*
X139054525Y-87445368D01*
X138892010Y-87688589D01*
X138780068Y-87958842D01*
X138723000Y-88245740D01*
X138723000Y-88538260D01*
X138780068Y-88825158D01*
X138892010Y-89095411D01*
X139054525Y-89338632D01*
X139261368Y-89545475D01*
X139504589Y-89707990D01*
X139774842Y-89819932D01*
X140061740Y-89877000D01*
X140188198Y-89877000D01*
X136649003Y-93416196D01*
X136619999Y-93439999D01*
X136590776Y-93475608D01*
X136525026Y-93555724D01*
X136501909Y-93598973D01*
X136454454Y-93687754D01*
X136410997Y-93831015D01*
X136400000Y-93942668D01*
X136400000Y-93942678D01*
X136396324Y-93980000D01*
X136400000Y-94017323D01*
X136400001Y-99256831D01*
X135494257Y-100177510D01*
X135491853Y-100165426D01*
X135383680Y-99904273D01*
X135226637Y-99669241D01*
X135026759Y-99469363D01*
X134794241Y-99314000D01*
X135026759Y-99158637D01*
X135226637Y-98958759D01*
X135383680Y-98723727D01*
X135491853Y-98462574D01*
X135547000Y-98185335D01*
X135547000Y-97902665D01*
X135491853Y-97625426D01*
X135383680Y-97364273D01*
X135226637Y-97129241D01*
X135026759Y-96929363D01*
X134794241Y-96774000D01*
X135026759Y-96618637D01*
X135226637Y-96418759D01*
X135383680Y-96183727D01*
X135491853Y-95922574D01*
X135547000Y-95645335D01*
X135547000Y-95362665D01*
X135491853Y-95085426D01*
X135383680Y-94824273D01*
X135226637Y-94589241D01*
X135026759Y-94389363D01*
X134794241Y-94234000D01*
X135026759Y-94078637D01*
X135226637Y-93878759D01*
X135383680Y-93643727D01*
X135491853Y-93382574D01*
X135547000Y-93105335D01*
X135547000Y-92822665D01*
X135491853Y-92545426D01*
X135383680Y-92284273D01*
X135226637Y-92049241D01*
X135026759Y-91849363D01*
X134794241Y-91694000D01*
X135026759Y-91538637D01*
X135226637Y-91338759D01*
X135383680Y-91103727D01*
X135491853Y-90842574D01*
X135547000Y-90565335D01*
X135547000Y-90282665D01*
X135491853Y-90005426D01*
X135383680Y-89744273D01*
X135226637Y-89509241D01*
X135026759Y-89309363D01*
X134794241Y-89154000D01*
X135026759Y-88998637D01*
X135226637Y-88798759D01*
X135383680Y-88563727D01*
X135491853Y-88302574D01*
X135547000Y-88025335D01*
X135547000Y-87742665D01*
X135491853Y-87465426D01*
X135383680Y-87204273D01*
X135226637Y-86969241D01*
X135026759Y-86769363D01*
X134791727Y-86612320D01*
X134781135Y-86607933D01*
X134967131Y-86496385D01*
X135175519Y-86307414D01*
X135343037Y-86081420D01*
X135463246Y-85827087D01*
X135503904Y-85693039D01*
X135381915Y-85471000D01*
X134239000Y-85471000D01*
X134239000Y-85491000D01*
X133985000Y-85491000D01*
X133985000Y-85471000D01*
X132842085Y-85471000D01*
X132817872Y-85515071D01*
X132297762Y-84994961D01*
X132720096Y-84994961D01*
X132842085Y-85217000D01*
X133985000Y-85217000D01*
X133985000Y-84073376D01*
X134239000Y-84073376D01*
X134239000Y-85217000D01*
X135381915Y-85217000D01*
X135503904Y-84994961D01*
X135463246Y-84860913D01*
X135343037Y-84606580D01*
X135175519Y-84380586D01*
X134967131Y-84191615D01*
X134725881Y-84046930D01*
X134461040Y-83952091D01*
X134239000Y-84073376D01*
X133985000Y-84073376D01*
X133762960Y-83952091D01*
X133498119Y-84046930D01*
X133256869Y-84191615D01*
X133048481Y-84380586D01*
X132880963Y-84606580D01*
X132760754Y-84860913D01*
X132720096Y-84994961D01*
X132297762Y-84994961D01*
X132135804Y-84833003D01*
X132112001Y-84803999D01*
X131996276Y-84709026D01*
X131864247Y-84638454D01*
X131720986Y-84594997D01*
X131609333Y-84584000D01*
X131609322Y-84584000D01*
X131572000Y-84580324D01*
X131534678Y-84584000D01*
X127930072Y-84584000D01*
X127930072Y-84544000D01*
X127917812Y-84419518D01*
X127881502Y-84299820D01*
X127822537Y-84189506D01*
X127743185Y-84092815D01*
X127646494Y-84013463D01*
X127536180Y-83954498D01*
X127416482Y-83918188D01*
X127292000Y-83905928D01*
X125692000Y-83905928D01*
X125567518Y-83918188D01*
X125447820Y-83954498D01*
X125337506Y-84013463D01*
X125240815Y-84092815D01*
X125161463Y-84189506D01*
X125102498Y-84299820D01*
X125066188Y-84419518D01*
X125053928Y-84544000D01*
X125053928Y-84689674D01*
X125017724Y-84709026D01*
X124901999Y-84803999D01*
X124878196Y-84833003D01*
X124457003Y-85254196D01*
X124427999Y-85277999D01*
X124373834Y-85344000D01*
X124333026Y-85393724D01*
X124267814Y-85515727D01*
X124262454Y-85525754D01*
X124218997Y-85669015D01*
X124208000Y-85780668D01*
X124208000Y-85780678D01*
X124204324Y-85818000D01*
X120736894Y-85818000D01*
X120759853Y-85762574D01*
X120815000Y-85485335D01*
X120815000Y-85202665D01*
X120759853Y-84925426D01*
X120651680Y-84664273D01*
X120494637Y-84429241D01*
X120294759Y-84229363D01*
X120059727Y-84072320D01*
X119798574Y-83964147D01*
X119521335Y-83909000D01*
X119238665Y-83909000D01*
X118961426Y-83964147D01*
X118700273Y-84072320D01*
X118465241Y-84229363D01*
X118265363Y-84429241D01*
X118108320Y-84664273D01*
X118000147Y-84925426D01*
X117945000Y-85202665D01*
X116584000Y-85202665D01*
X116584000Y-83288702D01*
X133298903Y-83288702D01*
X133370486Y-83532671D01*
X133625996Y-83653571D01*
X133900184Y-83722300D01*
X134182512Y-83736217D01*
X134462130Y-83694787D01*
X134728292Y-83599603D01*
X134853514Y-83532671D01*
X134925097Y-83288702D01*
X134112000Y-82475605D01*
X133298903Y-83288702D01*
X116584000Y-83288702D01*
X116584000Y-82558178D01*
X116770632Y-82433475D01*
X116977475Y-82226632D01*
X117094000Y-82052240D01*
X117210525Y-82226632D01*
X117417368Y-82433475D01*
X117660589Y-82595990D01*
X117930842Y-82707932D01*
X118217740Y-82765000D01*
X118510260Y-82765000D01*
X118797158Y-82707932D01*
X119067411Y-82595990D01*
X119310632Y-82433475D01*
X119377595Y-82366512D01*
X132671783Y-82366512D01*
X132713213Y-82646130D01*
X132808397Y-82912292D01*
X132875329Y-83037514D01*
X133119298Y-83109097D01*
X133932395Y-82296000D01*
X134291605Y-82296000D01*
X135104702Y-83109097D01*
X135348671Y-83037514D01*
X135469571Y-82782004D01*
X135538300Y-82507816D01*
X135552217Y-82225488D01*
X135510787Y-81945870D01*
X135415603Y-81679708D01*
X135348671Y-81554486D01*
X135104702Y-81482903D01*
X134291605Y-82296000D01*
X133932395Y-82296000D01*
X133119298Y-81482903D01*
X132875329Y-81554486D01*
X132754429Y-81809996D01*
X132685700Y-82084184D01*
X132671783Y-82366512D01*
X119377595Y-82366512D01*
X119517475Y-82226632D01*
X119679990Y-81983411D01*
X119791932Y-81713158D01*
X119849000Y-81426260D01*
X119849000Y-81133740D01*
X119791932Y-80846842D01*
X119679990Y-80576589D01*
X119517475Y-80333368D01*
X119310632Y-80126525D01*
X119067411Y-79964010D01*
X118797158Y-79852068D01*
X118510260Y-79795000D01*
X118217740Y-79795000D01*
X117930842Y-79852068D01*
X117660589Y-79964010D01*
X117417368Y-80126525D01*
X117210525Y-80333368D01*
X117094000Y-80507760D01*
X116977475Y-80333368D01*
X116770632Y-80126525D01*
X116584000Y-80001822D01*
X116584000Y-79032000D01*
X123529928Y-79032000D01*
X123542188Y-79156482D01*
X123578498Y-79276180D01*
X123637463Y-79386494D01*
X123716815Y-79483185D01*
X123813506Y-79562537D01*
X123923820Y-79621502D01*
X124043518Y-79657812D01*
X124168000Y-79670072D01*
X124682250Y-79667000D01*
X124841000Y-79508250D01*
X124841000Y-78359000D01*
X125095000Y-78359000D01*
X125095000Y-79508250D01*
X125253750Y-79667000D01*
X125768000Y-79670072D01*
X125892482Y-79657812D01*
X126012180Y-79621502D01*
X126122494Y-79562537D01*
X126219185Y-79483185D01*
X126298537Y-79386494D01*
X126357502Y-79276180D01*
X126393812Y-79156482D01*
X126406072Y-79032000D01*
X126403000Y-78517750D01*
X126244250Y-78359000D01*
X125095000Y-78359000D01*
X124841000Y-78359000D01*
X123691750Y-78359000D01*
X123533000Y-78517750D01*
X123529928Y-79032000D01*
X116584000Y-79032000D01*
X116584000Y-77432000D01*
X123529928Y-77432000D01*
X123533000Y-77946250D01*
X123691750Y-78105000D01*
X124841000Y-78105000D01*
X124841000Y-76955750D01*
X125095000Y-76955750D01*
X125095000Y-78105000D01*
X126244250Y-78105000D01*
X126258585Y-78090665D01*
X127033000Y-78090665D01*
X127033000Y-78373335D01*
X127088147Y-78650574D01*
X127196320Y-78911727D01*
X127353363Y-79146759D01*
X127553241Y-79346637D01*
X127788273Y-79503680D01*
X128049426Y-79611853D01*
X128326665Y-79667000D01*
X128609335Y-79667000D01*
X128671346Y-79654665D01*
X132677000Y-79654665D01*
X132677000Y-79937335D01*
X132732147Y-80214574D01*
X132840320Y-80475727D01*
X132997363Y-80710759D01*
X133197241Y-80910637D01*
X133397869Y-81044692D01*
X133370486Y-81059329D01*
X133298903Y-81303298D01*
X134112000Y-82116395D01*
X134925097Y-81303298D01*
X134853514Y-81059329D01*
X134824659Y-81045676D01*
X135026759Y-80910637D01*
X135226637Y-80710759D01*
X135383680Y-80475727D01*
X135491853Y-80214574D01*
X135547000Y-79937335D01*
X135547000Y-79654665D01*
X135491853Y-79377426D01*
X135383680Y-79116273D01*
X135226637Y-78881241D01*
X135026759Y-78681363D01*
X134791727Y-78524320D01*
X134530574Y-78416147D01*
X134253335Y-78361000D01*
X133970665Y-78361000D01*
X133693426Y-78416147D01*
X133432273Y-78524320D01*
X133197241Y-78681363D01*
X132997363Y-78881241D01*
X132840320Y-79116273D01*
X132732147Y-79377426D01*
X132677000Y-79654665D01*
X128671346Y-79654665D01*
X128886574Y-79611853D01*
X129147727Y-79503680D01*
X129382759Y-79346637D01*
X129582637Y-79146759D01*
X129739680Y-78911727D01*
X129847853Y-78650574D01*
X129903000Y-78373335D01*
X129903000Y-78090665D01*
X129847853Y-77813426D01*
X129739680Y-77552273D01*
X129582637Y-77317241D01*
X129382759Y-77117363D01*
X129147727Y-76960320D01*
X128886574Y-76852147D01*
X128609335Y-76797000D01*
X128326665Y-76797000D01*
X128049426Y-76852147D01*
X127788273Y-76960320D01*
X127553241Y-77117363D01*
X127353363Y-77317241D01*
X127196320Y-77552273D01*
X127088147Y-77813426D01*
X127033000Y-78090665D01*
X126258585Y-78090665D01*
X126403000Y-77946250D01*
X126406072Y-77432000D01*
X126393812Y-77307518D01*
X126357502Y-77187820D01*
X126298537Y-77077506D01*
X126219185Y-76980815D01*
X126122494Y-76901463D01*
X126012180Y-76842498D01*
X125892482Y-76806188D01*
X125768000Y-76793928D01*
X125253750Y-76797000D01*
X125095000Y-76955750D01*
X124841000Y-76955750D01*
X124682250Y-76797000D01*
X124168000Y-76793928D01*
X124043518Y-76806188D01*
X123923820Y-76842498D01*
X123813506Y-76901463D01*
X123716815Y-76980815D01*
X123637463Y-77077506D01*
X123578498Y-77187820D01*
X123542188Y-77307518D01*
X123529928Y-77432000D01*
X116584000Y-77432000D01*
X116584000Y-77253322D01*
X116587676Y-77215999D01*
X116584000Y-77178676D01*
X116584000Y-77178667D01*
X116573003Y-77067014D01*
X116529546Y-76923753D01*
X116458974Y-76791724D01*
X116364001Y-76675999D01*
X116335003Y-76652201D01*
X108586688Y-68903887D01*
X108623000Y-68721335D01*
X108623000Y-68438665D01*
X113373000Y-68438665D01*
X113373000Y-68721335D01*
X113428147Y-68998574D01*
X113536320Y-69259727D01*
X113693363Y-69494759D01*
X113893241Y-69694637D01*
X114128273Y-69851680D01*
X114389426Y-69959853D01*
X114666665Y-70015000D01*
X114949335Y-70015000D01*
X115226574Y-69959853D01*
X115487727Y-69851680D01*
X115722759Y-69694637D01*
X115922637Y-69494759D01*
X116026043Y-69340000D01*
X119365928Y-69340000D01*
X119365928Y-71004000D01*
X119378188Y-71128482D01*
X119414498Y-71248180D01*
X119473463Y-71358494D01*
X119552815Y-71455185D01*
X119649506Y-71534537D01*
X119759820Y-71593502D01*
X119879518Y-71629812D01*
X120004000Y-71642072D01*
X120831127Y-71642072D01*
X120297200Y-72175999D01*
X116243000Y-72175999D01*
X116243000Y-71994665D01*
X116187853Y-71717426D01*
X116079680Y-71456273D01*
X115922637Y-71221241D01*
X115722759Y-71021363D01*
X115487727Y-70864320D01*
X115226574Y-70756147D01*
X114949335Y-70701000D01*
X114666665Y-70701000D01*
X114389426Y-70756147D01*
X114128273Y-70864320D01*
X113893241Y-71021363D01*
X113693363Y-71221241D01*
X113536320Y-71456273D01*
X113428147Y-71717426D01*
X113373000Y-71994665D01*
X113373000Y-72277335D01*
X113428147Y-72554574D01*
X113536320Y-72815727D01*
X113693363Y-73050759D01*
X113893241Y-73250637D01*
X114128273Y-73407680D01*
X114389426Y-73515853D01*
X114666665Y-73571000D01*
X114949335Y-73571000D01*
X115138022Y-73533467D01*
X115183723Y-73570973D01*
X115315752Y-73641545D01*
X115459013Y-73685002D01*
X115570666Y-73695999D01*
X115570675Y-73695999D01*
X115607998Y-73699675D01*
X115645321Y-73695999D01*
X120574679Y-73695999D01*
X120612001Y-73699675D01*
X120649323Y-73695999D01*
X120649334Y-73695999D01*
X120760987Y-73685002D01*
X120904248Y-73641545D01*
X121036277Y-73570973D01*
X121152002Y-73476000D01*
X121175805Y-73446996D01*
X123035071Y-71587731D01*
X123292816Y-71639000D01*
X123595184Y-71639000D01*
X123891743Y-71580011D01*
X124171095Y-71464299D01*
X124422505Y-71296312D01*
X124636312Y-71082505D01*
X124804299Y-70831095D01*
X124920011Y-70551743D01*
X124979000Y-70255184D01*
X124979000Y-69952816D01*
X124920011Y-69656257D01*
X124804299Y-69376905D01*
X124779640Y-69340000D01*
X128509928Y-69340000D01*
X128509928Y-71004000D01*
X128522188Y-71128482D01*
X128558498Y-71248180D01*
X128617463Y-71358494D01*
X128696815Y-71455185D01*
X128793506Y-71534537D01*
X128903820Y-71593502D01*
X129023518Y-71629812D01*
X129148000Y-71642072D01*
X130948000Y-71642072D01*
X131072482Y-71629812D01*
X131192180Y-71593502D01*
X131302494Y-71534537D01*
X131399185Y-71455185D01*
X131478537Y-71358494D01*
X131537502Y-71248180D01*
X131543056Y-71229873D01*
X131609495Y-71296312D01*
X131860905Y-71464299D01*
X132140257Y-71580011D01*
X132436816Y-71639000D01*
X132739184Y-71639000D01*
X133035743Y-71580011D01*
X133315095Y-71464299D01*
X133566505Y-71296312D01*
X133780312Y-71082505D01*
X133948299Y-70831095D01*
X134064011Y-70551743D01*
X134123000Y-70255184D01*
X134123000Y-69952816D01*
X134064011Y-69656257D01*
X133948299Y-69376905D01*
X133780312Y-69125495D01*
X133566505Y-68911688D01*
X133315095Y-68743701D01*
X133035743Y-68627989D01*
X132739184Y-68569000D01*
X132436816Y-68569000D01*
X132179070Y-68620269D01*
X131627803Y-68069002D01*
X131604001Y-68039999D01*
X131488276Y-67945026D01*
X131356247Y-67874454D01*
X131212986Y-67830997D01*
X131101333Y-67820000D01*
X131101322Y-67820000D01*
X131064000Y-67816324D01*
X131026678Y-67820000D01*
X116026043Y-67820000D01*
X115922637Y-67665241D01*
X115722759Y-67465363D01*
X115487727Y-67308320D01*
X115226574Y-67200147D01*
X114949335Y-67145000D01*
X114666665Y-67145000D01*
X114389426Y-67200147D01*
X114128273Y-67308320D01*
X113893241Y-67465363D01*
X113693363Y-67665241D01*
X113536320Y-67900273D01*
X113428147Y-68161426D01*
X113373000Y-68438665D01*
X108623000Y-68438665D01*
X108567853Y-68161426D01*
X108459680Y-67900273D01*
X108302637Y-67665241D01*
X108102759Y-67465363D01*
X107867727Y-67308320D01*
X107606574Y-67200147D01*
X107329335Y-67145000D01*
X107046665Y-67145000D01*
X106769426Y-67200147D01*
X106508273Y-67308320D01*
X106273241Y-67465363D01*
X106073363Y-67665241D01*
X105916320Y-67900273D01*
X105808147Y-68161426D01*
X105753000Y-68438665D01*
X105358000Y-68438665D01*
X105358000Y-66750000D01*
X195378000Y-66750000D01*
X195378001Y-126290000D01*
G37*
X195378001Y-126290000D02*
X105358000Y-126290000D01*
X105358000Y-121778665D01*
X138305000Y-121778665D01*
X138305000Y-122061335D01*
X138360147Y-122338574D01*
X138468320Y-122599727D01*
X138625363Y-122834759D01*
X138825241Y-123034637D01*
X139060273Y-123191680D01*
X139321426Y-123299853D01*
X139598665Y-123355000D01*
X139881335Y-123355000D01*
X140158574Y-123299853D01*
X140419727Y-123191680D01*
X140654759Y-123034637D01*
X140854637Y-122834759D01*
X140990000Y-122632173D01*
X141125363Y-122834759D01*
X141325241Y-123034637D01*
X141560273Y-123191680D01*
X141821426Y-123299853D01*
X142098665Y-123355000D01*
X142381335Y-123355000D01*
X142658574Y-123299853D01*
X142919727Y-123191680D01*
X143154759Y-123034637D01*
X143354637Y-122834759D01*
X143511680Y-122599727D01*
X143619853Y-122338574D01*
X143675000Y-122061335D01*
X143675000Y-121778665D01*
X143619853Y-121501426D01*
X143526309Y-121275589D01*
X145427000Y-121275589D01*
X145427000Y-121548411D01*
X145480225Y-121815989D01*
X145584629Y-122068043D01*
X145736201Y-122294886D01*
X145929114Y-122487799D01*
X146155957Y-122639371D01*
X146408011Y-122743775D01*
X146675589Y-122797000D01*
X146948411Y-122797000D01*
X147215989Y-122743775D01*
X147468043Y-122639371D01*
X147694886Y-122487799D01*
X147887799Y-122294886D01*
X148039371Y-122068043D01*
X148143775Y-121815989D01*
X148197000Y-121548411D01*
X148197000Y-121275589D01*
X148143775Y-121008011D01*
X148039371Y-120755957D01*
X147887799Y-120529114D01*
X147694886Y-120336201D01*
X147468043Y-120184629D01*
X147215989Y-120080225D01*
X146948411Y-120027000D01*
X146675589Y-120027000D01*
X146408011Y-120080225D01*
X146155957Y-120184629D01*
X145929114Y-120336201D01*
X145736201Y-120529114D01*
X145584629Y-120755957D01*
X145480225Y-121008011D01*
X145427000Y-121275589D01*
X143526309Y-121275589D01*
X143511680Y-121240273D01*
X143354637Y-121005241D01*
X143154759Y-120805363D01*
X142919727Y-120648320D01*
X142658574Y-120540147D01*
X142381335Y-120485000D01*
X142098665Y-120485000D01*
X141821426Y-120540147D01*
X141560273Y-120648320D01*
X141325241Y-120805363D01*
X141125363Y-121005241D01*
X140990000Y-121207827D01*
X140854637Y-121005241D01*
X140654759Y-120805363D01*
X140419727Y-120648320D01*
X140158574Y-120540147D01*
X139881335Y-120485000D01*
X139598665Y-120485000D01*
X139321426Y-120540147D01*
X139060273Y-120648320D01*
X138825241Y-120805363D01*
X138625363Y-121005241D01*
X138468320Y-121240273D01*
X138360147Y-121501426D01*
X138305000Y-121778665D01*
X105358000Y-121778665D01*
X105358000Y-118638967D01*
X113681000Y-118638967D01*
X113681000Y-118961033D01*
X113743832Y-119276912D01*
X113867082Y-119574463D01*
X114046013Y-119842252D01*
X114273748Y-120069987D01*
X114541537Y-120248918D01*
X114839088Y-120372168D01*
X115154967Y-120435000D01*
X115477033Y-120435000D01*
X115792912Y-120372168D01*
X116090463Y-120248918D01*
X116358252Y-120069987D01*
X116585987Y-119842252D01*
X116764918Y-119574463D01*
X116888168Y-119276912D01*
X116951000Y-118961033D01*
X116951000Y-118638967D01*
X120181000Y-118638967D01*
X120181000Y-118961033D01*
X120243832Y-119276912D01*
X120367082Y-119574463D01*
X120546013Y-119842252D01*
X120773748Y-120069987D01*
X121041537Y-120248918D01*
X121339088Y-120372168D01*
X121654967Y-120435000D01*
X121977033Y-120435000D01*
X122292912Y-120372168D01*
X122590463Y-120248918D01*
X122858252Y-120069987D01*
X123085987Y-119842252D01*
X123264918Y-119574463D01*
X123388168Y-119276912D01*
X123451000Y-118961033D01*
X123451000Y-118638967D01*
X125365000Y-118638967D01*
X125365000Y-118961033D01*
X125427832Y-119276912D01*
X125551082Y-119574463D01*
X125730013Y-119842252D01*
X125957748Y-120069987D01*
X126225537Y-120248918D01*
X126523088Y-120372168D01*
X126838967Y-120435000D01*
X127161033Y-120435000D01*
X127476912Y-120372168D01*
X127774463Y-120248918D01*
X128042252Y-120069987D01*
X128269987Y-119842252D01*
X128448918Y-119574463D01*
X128572168Y-119276912D01*
X128635000Y-118961033D01*
X128635000Y-118638967D01*
X131865000Y-118638967D01*
X131865000Y-118961033D01*
X131927832Y-119276912D01*
X132051082Y-119574463D01*
X132230013Y-119842252D01*
X132457748Y-120069987D01*
X132725537Y-120248918D01*
X133023088Y-120372168D01*
X133338967Y-120435000D01*
X133661033Y-120435000D01*
X133976912Y-120372168D01*
X134274463Y-120248918D01*
X134542252Y-120069987D01*
X134769987Y-119842252D01*
X134948918Y-119574463D01*
X135072168Y-119276912D01*
X135135000Y-118961033D01*
X135135000Y-118638967D01*
X135072168Y-118323088D01*
X134948918Y-118025537D01*
X134769987Y-117757748D01*
X134542252Y-117530013D01*
X134274463Y-117351082D01*
X133976912Y-117227832D01*
X133661033Y-117165000D01*
X133338967Y-117165000D01*
X133023088Y-117227832D01*
X132725537Y-117351082D01*
X132457748Y-117530013D01*
X132230013Y-117757748D01*
X132051082Y-118025537D01*
X131927832Y-118323088D01*
X131865000Y-118638967D01*
X128635000Y-118638967D01*
X128572168Y-118323088D01*
X128448918Y-118025537D01*
X128269987Y-117757748D01*
X128042252Y-117530013D01*
X127774463Y-117351082D01*
X127476912Y-117227832D01*
X127161033Y-117165000D01*
X126838967Y-117165000D01*
X126523088Y-117227832D01*
X126225537Y-117351082D01*
X125957748Y-117530013D01*
X125730013Y-117757748D01*
X125551082Y-118025537D01*
X125427832Y-118323088D01*
X125365000Y-118638967D01*
X123451000Y-118638967D01*
X123388168Y-118323088D01*
X123264918Y-118025537D01*
X123085987Y-117757748D01*
X122858252Y-117530013D01*
X122590463Y-117351082D01*
X122292912Y-117227832D01*
X121977033Y-117165000D01*
X121654967Y-117165000D01*
X121339088Y-117227832D01*
X121041537Y-117351082D01*
X120773748Y-117530013D01*
X120546013Y-117757748D01*
X120367082Y-118025537D01*
X120243832Y-118323088D01*
X120181000Y-118638967D01*
X116951000Y-118638967D01*
X116888168Y-118323088D01*
X116764918Y-118025537D01*
X116585987Y-117757748D01*
X116358252Y-117530013D01*
X116090463Y-117351082D01*
X115792912Y-117227832D01*
X115477033Y-117165000D01*
X115154967Y-117165000D01*
X114839088Y-117227832D01*
X114541537Y-117351082D01*
X114273748Y-117530013D01*
X114046013Y-117757748D01*
X113867082Y-118025537D01*
X113743832Y-118323088D01*
X113681000Y-118638967D01*
X105358000Y-118638967D01*
X105358000Y-116190665D01*
X138305000Y-116190665D01*
X138305000Y-116473335D01*
X138360147Y-116750574D01*
X138468320Y-117011727D01*
X138625363Y-117246759D01*
X138825241Y-117446637D01*
X139060273Y-117603680D01*
X139321426Y-117711853D01*
X139598665Y-117767000D01*
X139881335Y-117767000D01*
X140158574Y-117711853D01*
X140419727Y-117603680D01*
X140654759Y-117446637D01*
X140854637Y-117246759D01*
X140990000Y-117044173D01*
X141125363Y-117246759D01*
X141325241Y-117446637D01*
X141560273Y-117603680D01*
X141821426Y-117711853D01*
X142098665Y-117767000D01*
X142381335Y-117767000D01*
X142658574Y-117711853D01*
X142919727Y-117603680D01*
X143154759Y-117446637D01*
X143354637Y-117246759D01*
X143511680Y-117011727D01*
X143619853Y-116750574D01*
X143675000Y-116473335D01*
X143675000Y-116395589D01*
X145427000Y-116395589D01*
X145427000Y-116668411D01*
X145480225Y-116935989D01*
X145584629Y-117188043D01*
X145736201Y-117414886D01*
X145929114Y-117607799D01*
X146155957Y-117759371D01*
X146408011Y-117863775D01*
X146675589Y-117917000D01*
X146948411Y-117917000D01*
X147215989Y-117863775D01*
X147468043Y-117759371D01*
X147694886Y-117607799D01*
X147887799Y-117414886D01*
X148039371Y-117188043D01*
X148143775Y-116935989D01*
X148197000Y-116668411D01*
X148197000Y-116395589D01*
X148143775Y-116128011D01*
X148039371Y-115875957D01*
X147887799Y-115649114D01*
X147694886Y-115456201D01*
X147468043Y-115304629D01*
X147215989Y-115200225D01*
X146948411Y-115147000D01*
X146675589Y-115147000D01*
X146408011Y-115200225D01*
X146155957Y-115304629D01*
X145929114Y-115456201D01*
X145736201Y-115649114D01*
X145584629Y-115875957D01*
X145480225Y-116128011D01*
X145427000Y-116395589D01*
X143675000Y-116395589D01*
X143675000Y-116190665D01*
X143619853Y-115913426D01*
X143511680Y-115652273D01*
X143354637Y-115417241D01*
X143154759Y-115217363D01*
X142919727Y-115060320D01*
X142658574Y-114952147D01*
X142381335Y-114897000D01*
X142098665Y-114897000D01*
X141821426Y-114952147D01*
X141560273Y-115060320D01*
X141325241Y-115217363D01*
X141125363Y-115417241D01*
X140990000Y-115619827D01*
X140854637Y-115417241D01*
X140654759Y-115217363D01*
X140419727Y-115060320D01*
X140158574Y-114952147D01*
X139881335Y-114897000D01*
X139598665Y-114897000D01*
X139321426Y-114952147D01*
X139060273Y-115060320D01*
X138825241Y-115217363D01*
X138625363Y-115417241D01*
X138468320Y-115652273D01*
X138360147Y-115913426D01*
X138305000Y-116190665D01*
X105358000Y-116190665D01*
X105358000Y-114138967D01*
X113681000Y-114138967D01*
X113681000Y-114461033D01*
X113743832Y-114776912D01*
X113867082Y-115074463D01*
X114046013Y-115342252D01*
X114273748Y-115569987D01*
X114541537Y-115748918D01*
X114839088Y-115872168D01*
X115154967Y-115935000D01*
X115477033Y-115935000D01*
X115792912Y-115872168D01*
X116090463Y-115748918D01*
X116358252Y-115569987D01*
X116585987Y-115342252D01*
X116764918Y-115074463D01*
X116888168Y-114776912D01*
X116951000Y-114461033D01*
X116951000Y-114138967D01*
X120181000Y-114138967D01*
X120181000Y-114461033D01*
X120243832Y-114776912D01*
X120367082Y-115074463D01*
X120546013Y-115342252D01*
X120773748Y-115569987D01*
X121041537Y-115748918D01*
X121339088Y-115872168D01*
X121654967Y-115935000D01*
X121977033Y-115935000D01*
X122292912Y-115872168D01*
X122590463Y-115748918D01*
X122858252Y-115569987D01*
X123085987Y-115342252D01*
X123264918Y-115074463D01*
X123388168Y-114776912D01*
X123451000Y-114461033D01*
X123451000Y-114138967D01*
X125365000Y-114138967D01*
X125365000Y-114461033D01*
X125427832Y-114776912D01*
X125551082Y-115074463D01*
X125730013Y-115342252D01*
X125957748Y-115569987D01*
X126225537Y-115748918D01*
X126523088Y-115872168D01*
X126838967Y-115935000D01*
X127161033Y-115935000D01*
X127476912Y-115872168D01*
X127774463Y-115748918D01*
X128042252Y-115569987D01*
X128269987Y-115342252D01*
X128448918Y-115074463D01*
X128572168Y-114776912D01*
X128635000Y-114461033D01*
X128635000Y-114138967D01*
X131865000Y-114138967D01*
X131865000Y-114461033D01*
X131927832Y-114776912D01*
X132051082Y-115074463D01*
X132230013Y-115342252D01*
X132457748Y-115569987D01*
X132725537Y-115748918D01*
X133023088Y-115872168D01*
X133338967Y-115935000D01*
X133661033Y-115935000D01*
X133976912Y-115872168D01*
X134274463Y-115748918D01*
X134542252Y-115569987D01*
X134769987Y-115342252D01*
X134948918Y-115074463D01*
X135072168Y-114776912D01*
X135135000Y-114461033D01*
X135135000Y-114138967D01*
X135072168Y-113823088D01*
X134948918Y-113525537D01*
X134769987Y-113257748D01*
X134542252Y-113030013D01*
X134274463Y-112851082D01*
X133976912Y-112727832D01*
X133661033Y-112665000D01*
X133338967Y-112665000D01*
X133023088Y-112727832D01*
X132725537Y-112851082D01*
X132457748Y-113030013D01*
X132230013Y-113257748D01*
X132051082Y-113525537D01*
X131927832Y-113823088D01*
X131865000Y-114138967D01*
X128635000Y-114138967D01*
X128572168Y-113823088D01*
X128448918Y-113525537D01*
X128269987Y-113257748D01*
X128042252Y-113030013D01*
X127774463Y-112851082D01*
X127476912Y-112727832D01*
X127161033Y-112665000D01*
X126838967Y-112665000D01*
X126523088Y-112727832D01*
X126225537Y-112851082D01*
X125957748Y-113030013D01*
X125730013Y-113257748D01*
X125551082Y-113525537D01*
X125427832Y-113823088D01*
X125365000Y-114138967D01*
X123451000Y-114138967D01*
X123388168Y-113823088D01*
X123264918Y-113525537D01*
X123085987Y-113257748D01*
X122858252Y-113030013D01*
X122590463Y-112851082D01*
X122292912Y-112727832D01*
X121977033Y-112665000D01*
X121654967Y-112665000D01*
X121339088Y-112727832D01*
X121041537Y-112851082D01*
X120773748Y-113030013D01*
X120546013Y-113257748D01*
X120367082Y-113525537D01*
X120243832Y-113823088D01*
X120181000Y-114138967D01*
X116951000Y-114138967D01*
X116888168Y-113823088D01*
X116764918Y-113525537D01*
X116585987Y-113257748D01*
X116358252Y-113030013D01*
X116090463Y-112851082D01*
X115792912Y-112727832D01*
X115477033Y-112665000D01*
X115154967Y-112665000D01*
X114839088Y-112727832D01*
X114541537Y-112851082D01*
X114273748Y-113030013D01*
X114046013Y-113257748D01*
X113867082Y-113525537D01*
X113743832Y-113823088D01*
X113681000Y-114138967D01*
X105358000Y-114138967D01*
X105358000Y-91846061D01*
X108185000Y-91846061D01*
X108185000Y-92049939D01*
X108224774Y-92249898D01*
X108302795Y-92438256D01*
X108416063Y-92607774D01*
X108560226Y-92751937D01*
X108729744Y-92865205D01*
X108918102Y-92943226D01*
X109118061Y-92983000D01*
X109321939Y-92983000D01*
X109521898Y-92943226D01*
X109710256Y-92865205D01*
X109879774Y-92751937D01*
X109923711Y-92708000D01*
X112072289Y-92708000D01*
X112116226Y-92751937D01*
X112285744Y-92865205D01*
X112474102Y-92943226D01*
X112674061Y-92983000D01*
X112877939Y-92983000D01*
X113077898Y-92943226D01*
X113266256Y-92865205D01*
X113435774Y-92751937D01*
X113579937Y-92607774D01*
X113693205Y-92438256D01*
X113771226Y-92249898D01*
X113811000Y-92049939D01*
X113811000Y-91846061D01*
X113771226Y-91646102D01*
X113693205Y-91457744D01*
X113579937Y-91288226D01*
X113435774Y-91144063D01*
X113266256Y-91030795D01*
X113077898Y-90952774D01*
X112877939Y-90913000D01*
X112674061Y-90913000D01*
X112474102Y-90952774D01*
X112285744Y-91030795D01*
X112116226Y-91144063D01*
X112072289Y-91188000D01*
X109923711Y-91188000D01*
X109879774Y-91144063D01*
X109710256Y-91030795D01*
X109521898Y-90952774D01*
X109321939Y-90913000D01*
X109118061Y-90913000D01*
X108918102Y-90952774D01*
X108729744Y-91030795D01*
X108560226Y-91144063D01*
X108416063Y-91288226D01*
X108302795Y-91457744D01*
X108224774Y-91646102D01*
X108185000Y-91846061D01*
X105358000Y-91846061D01*
X105358000Y-82130000D01*
X109255928Y-82130000D01*
X109268188Y-82254482D01*
X109304498Y-82374180D01*
X109363463Y-82484494D01*
X109442815Y-82581185D01*
X109539506Y-82660537D01*
X109649820Y-82719502D01*
X109769518Y-82755812D01*
X109894000Y-82768072D01*
X110458250Y-82765000D01*
X110617000Y-82606250D01*
X110617000Y-81407000D01*
X109417750Y-81407000D01*
X109259000Y-81565750D01*
X109255928Y-82130000D01*
X105358000Y-82130000D01*
X105358000Y-80430000D01*
X109255928Y-80430000D01*
X109259000Y-80994250D01*
X109417750Y-81153000D01*
X110617000Y-81153000D01*
X110617000Y-79953750D01*
X110458250Y-79795000D01*
X109894000Y-79791928D01*
X109769518Y-79804188D01*
X109649820Y-79840498D01*
X109539506Y-79899463D01*
X109442815Y-79978815D01*
X109363463Y-80075506D01*
X109304498Y-80185820D01*
X109268188Y-80305518D01*
X109255928Y-80430000D01*
X105358000Y-80430000D01*
X105358000Y-73128702D01*
X106374903Y-73128702D01*
X106446486Y-73372671D01*
X106701996Y-73493571D01*
X106976184Y-73562300D01*
X107258512Y-73576217D01*
X107538130Y-73534787D01*
X107804292Y-73439603D01*
X107929514Y-73372671D01*
X108001097Y-73128702D01*
X107188000Y-72315605D01*
X106374903Y-73128702D01*
X105358000Y-73128702D01*
X105358000Y-72206512D01*
X105747783Y-72206512D01*
X105789213Y-72486130D01*
X105884397Y-72752292D01*
X105951329Y-72877514D01*
X106195298Y-72949097D01*
X107008395Y-72136000D01*
X107367605Y-72136000D01*
X108180702Y-72949097D01*
X108424671Y-72877514D01*
X108545571Y-72622004D01*
X108614300Y-72347816D01*
X108628217Y-72065488D01*
X108586787Y-71785870D01*
X108491603Y-71519708D01*
X108424671Y-71394486D01*
X108180702Y-71322903D01*
X107367605Y-72136000D01*
X107008395Y-72136000D01*
X106195298Y-71322903D01*
X105951329Y-71394486D01*
X105830429Y-71649996D01*
X105761700Y-71924184D01*
X105747783Y-72206512D01*
X105358000Y-72206512D01*
X105358000Y-71143298D01*
X106374903Y-71143298D01*
X107188000Y-71956395D01*
X108001097Y-71143298D01*
X107929514Y-70899329D01*
X107674004Y-70778429D01*
X107399816Y-70709700D01*
X107117488Y-70695783D01*
X106837870Y-70737213D01*
X106571708Y-70832397D01*
X106446486Y-70899329D01*
X106374903Y-71143298D01*
X105358000Y-71143298D01*
X105358000Y-68438665D01*
X105753000Y-68438665D01*
X105753000Y-68721335D01*
X105808147Y-68998574D01*
X105916320Y-69259727D01*
X106073363Y-69494759D01*
X106273241Y-69694637D01*
X106508273Y-69851680D01*
X106769426Y-69959853D01*
X107046665Y-70015000D01*
X107329335Y-70015000D01*
X107511887Y-69978688D01*
X115064001Y-77530803D01*
X115064000Y-80001821D01*
X114877368Y-80126525D01*
X114670525Y-80333368D01*
X114554000Y-80507760D01*
X114437475Y-80333368D01*
X114230632Y-80126525D01*
X113987411Y-79964010D01*
X113717158Y-79852068D01*
X113430260Y-79795000D01*
X113137740Y-79795000D01*
X112850842Y-79852068D01*
X112580589Y-79964010D01*
X112337368Y-80126525D01*
X112205513Y-80258380D01*
X112183502Y-80185820D01*
X112124537Y-80075506D01*
X112045185Y-79978815D01*
X111948494Y-79899463D01*
X111838180Y-79840498D01*
X111718482Y-79804188D01*
X111594000Y-79791928D01*
X111029750Y-79795000D01*
X110871000Y-79953750D01*
X110871000Y-81153000D01*
X110891000Y-81153000D01*
X110891000Y-81407000D01*
X110871000Y-81407000D01*
X110871000Y-82606250D01*
X111029750Y-82765000D01*
X111594000Y-82768072D01*
X111718482Y-82755812D01*
X111838180Y-82719502D01*
X111948494Y-82660537D01*
X112045185Y-82581185D01*
X112124537Y-82484494D01*
X112183502Y-82374180D01*
X112205513Y-82301620D01*
X112337368Y-82433475D01*
X112580589Y-82595990D01*
X112850842Y-82707932D01*
X113137740Y-82765000D01*
X113430260Y-82765000D01*
X113717158Y-82707932D01*
X113987411Y-82595990D01*
X114230632Y-82433475D01*
X114437475Y-82226632D01*
X114554000Y-82052240D01*
X114670525Y-82226632D01*
X114877368Y-82433475D01*
X115064000Y-82558179D01*
X115064000Y-83274668D01*
X115064001Y-109024288D01*
X115020063Y-109068226D01*
X114906795Y-109237744D01*
X114828774Y-109426102D01*
X114789000Y-109626061D01*
X114789000Y-109829939D01*
X114828774Y-110029898D01*
X114906795Y-110218256D01*
X115020063Y-110387774D01*
X115164226Y-110531937D01*
X115333744Y-110645205D01*
X115522102Y-110723226D01*
X115722061Y-110763000D01*
X115925939Y-110763000D01*
X116125898Y-110723226D01*
X116314256Y-110645205D01*
X116483774Y-110531937D01*
X116627937Y-110387774D01*
X116741205Y-110218256D01*
X116819226Y-110029898D01*
X116859000Y-109829939D01*
X116859000Y-109626061D01*
X116819226Y-109426102D01*
X116741205Y-109237744D01*
X116627937Y-109068226D01*
X116584000Y-109024289D01*
X116584000Y-106538665D01*
X119977000Y-106538665D01*
X119977000Y-106821335D01*
X120032147Y-107098574D01*
X120140320Y-107359727D01*
X120297363Y-107594759D01*
X120497241Y-107794637D01*
X120732273Y-107951680D01*
X120993426Y-108059853D01*
X121270665Y-108115000D01*
X121553335Y-108115000D01*
X121830574Y-108059853D01*
X122091727Y-107951680D01*
X122326759Y-107794637D01*
X122526637Y-107594759D01*
X122683680Y-107359727D01*
X122791853Y-107098574D01*
X122847000Y-106821335D01*
X122847000Y-106538665D01*
X122791853Y-106261426D01*
X122683680Y-106000273D01*
X122526637Y-105765241D01*
X122326759Y-105565363D01*
X122091727Y-105408320D01*
X121830574Y-105300147D01*
X121553335Y-105245000D01*
X121270665Y-105245000D01*
X120993426Y-105300147D01*
X120732273Y-105408320D01*
X120497241Y-105565363D01*
X120297363Y-105765241D01*
X120140320Y-106000273D01*
X120032147Y-106261426D01*
X119977000Y-106538665D01*
X116584000Y-106538665D01*
X116584000Y-93313040D01*
X117988091Y-93313040D01*
X118082930Y-93577881D01*
X118227615Y-93819131D01*
X118416586Y-94027519D01*
X118642580Y-94195037D01*
X118896913Y-94315246D01*
X119030961Y-94355904D01*
X119253000Y-94233915D01*
X119253000Y-93091000D01*
X119507000Y-93091000D01*
X119507000Y-94233915D01*
X119729039Y-94355904D01*
X119863087Y-94315246D01*
X120117420Y-94195037D01*
X120343414Y-94027519D01*
X120532385Y-93819131D01*
X120677070Y-93577881D01*
X120771909Y-93313040D01*
X120650624Y-93091000D01*
X119507000Y-93091000D01*
X119253000Y-93091000D01*
X118109376Y-93091000D01*
X117988091Y-93313040D01*
X116584000Y-93313040D01*
X116584000Y-92614960D01*
X117988091Y-92614960D01*
X118109376Y-92837000D01*
X119253000Y-92837000D01*
X119253000Y-91694085D01*
X119507000Y-91694085D01*
X119507000Y-92837000D01*
X120650624Y-92837000D01*
X120771909Y-92614960D01*
X120677070Y-92350119D01*
X120532385Y-92108869D01*
X120343414Y-91900481D01*
X120117420Y-91732963D01*
X119863087Y-91612754D01*
X119729039Y-91572096D01*
X119507000Y-91694085D01*
X119253000Y-91694085D01*
X119030961Y-91572096D01*
X118896913Y-91612754D01*
X118642580Y-91732963D01*
X118416586Y-91900481D01*
X118227615Y-92108869D01*
X118082930Y-92350119D01*
X117988091Y-92614960D01*
X116584000Y-92614960D01*
X116584000Y-85202665D01*
X117945000Y-85202665D01*
X117945000Y-85485335D01*
X118000147Y-85762574D01*
X118108320Y-86023727D01*
X118265363Y-86258759D01*
X118465241Y-86458637D01*
X118700273Y-86615680D01*
X118961426Y-86723853D01*
X119238665Y-86779000D01*
X119521335Y-86779000D01*
X119798574Y-86723853D01*
X120059727Y-86615680D01*
X120294759Y-86458637D01*
X120494637Y-86258759D01*
X120651680Y-86023727D01*
X120736894Y-85818000D01*
X124204324Y-85818000D01*
X124208000Y-85855323D01*
X124208001Y-91402668D01*
X124204324Y-91440000D01*
X124208001Y-91477333D01*
X124217335Y-91572096D01*
X124218998Y-91588985D01*
X124262454Y-91732246D01*
X124333026Y-91864276D01*
X124401737Y-91948000D01*
X124428000Y-91980001D01*
X124456998Y-92003799D01*
X125093312Y-92640114D01*
X125057000Y-92822665D01*
X125057000Y-93105335D01*
X125112147Y-93382574D01*
X125220320Y-93643727D01*
X125377363Y-93878759D01*
X125577241Y-94078637D01*
X125809759Y-94234000D01*
X125577241Y-94389363D01*
X125377363Y-94589241D01*
X125220320Y-94824273D01*
X125112147Y-95085426D01*
X125057000Y-95362665D01*
X125057000Y-95645335D01*
X125112147Y-95922574D01*
X125220320Y-96183727D01*
X125377363Y-96418759D01*
X125577241Y-96618637D01*
X125809759Y-96774000D01*
X125577241Y-96929363D01*
X125377363Y-97129241D01*
X125220320Y-97364273D01*
X125112147Y-97625426D01*
X125057000Y-97902665D01*
X125057000Y-98185335D01*
X125112147Y-98462574D01*
X125220320Y-98723727D01*
X125377363Y-98958759D01*
X125577241Y-99158637D01*
X125809759Y-99314000D01*
X125577241Y-99469363D01*
X125377363Y-99669241D01*
X125220320Y-99904273D01*
X125112147Y-100165426D01*
X125057000Y-100442665D01*
X125057000Y-100725335D01*
X125112147Y-101002574D01*
X125220320Y-101263727D01*
X125377363Y-101498759D01*
X125577241Y-101698637D01*
X125812273Y-101855680D01*
X126073426Y-101963853D01*
X126350665Y-102019000D01*
X126522198Y-102019000D01*
X125944199Y-102597000D01*
X125882061Y-102597000D01*
X125682102Y-102636774D01*
X125493744Y-102714795D01*
X125324226Y-102828063D01*
X125180063Y-102972226D01*
X125066795Y-103141744D01*
X124988774Y-103330102D01*
X124949000Y-103530061D01*
X124949000Y-103733939D01*
X124988774Y-103933898D01*
X125066795Y-104122256D01*
X125180063Y-104291774D01*
X125324226Y-104435937D01*
X125493744Y-104549205D01*
X125682102Y-104627226D01*
X125882061Y-104667000D01*
X126085939Y-104667000D01*
X126285898Y-104627226D01*
X126474256Y-104549205D01*
X126643774Y-104435937D01*
X126787937Y-104291774D01*
X126901205Y-104122256D01*
X126979226Y-103933898D01*
X127019000Y-103733939D01*
X127019000Y-103671801D01*
X128080405Y-102610397D01*
X128109402Y-102586600D01*
X128204375Y-102470875D01*
X128274947Y-102338846D01*
X128318404Y-102195585D01*
X128329401Y-102083932D01*
X128329401Y-102083931D01*
X128333078Y-102046599D01*
X128329401Y-102009266D01*
X128329401Y-88998726D01*
X128333077Y-88961401D01*
X128329401Y-88924076D01*
X128329401Y-88924068D01*
X128318404Y-88812415D01*
X128274947Y-88669154D01*
X128204375Y-88537125D01*
X128109402Y-88421400D01*
X128080398Y-88397597D01*
X127890688Y-88207887D01*
X127927000Y-88025335D01*
X127927000Y-87742665D01*
X127871853Y-87465426D01*
X127763680Y-87204273D01*
X127606637Y-86969241D01*
X127408039Y-86770643D01*
X127416482Y-86769812D01*
X127536180Y-86733502D01*
X127646494Y-86674537D01*
X127743185Y-86595185D01*
X127822537Y-86498494D01*
X127881502Y-86388180D01*
X127917812Y-86268482D01*
X127930072Y-86144000D01*
X127930072Y-86104000D01*
X131257199Y-86104000D01*
X132713312Y-87560114D01*
X132677000Y-87742665D01*
X132677000Y-88025335D01*
X132713312Y-88207887D01*
X132523601Y-88397597D01*
X132494598Y-88421400D01*
X132469275Y-88452257D01*
X132399625Y-88537125D01*
X132348377Y-88633002D01*
X132329053Y-88669155D01*
X132285596Y-88812416D01*
X132274599Y-88924069D01*
X132274599Y-88924079D01*
X132270923Y-88961401D01*
X132274599Y-88998724D01*
X132274600Y-94389267D01*
X132270923Y-94426599D01*
X132274600Y-94463932D01*
X132285597Y-94575585D01*
X132297545Y-94614974D01*
X132329053Y-94718845D01*
X132399625Y-94850875D01*
X132470800Y-94937601D01*
X132494599Y-94966600D01*
X132523597Y-94990398D01*
X132713312Y-95180113D01*
X132677000Y-95362665D01*
X132677000Y-95645335D01*
X132732147Y-95922574D01*
X132840320Y-96183727D01*
X132997363Y-96418759D01*
X133197241Y-96618637D01*
X133429759Y-96774000D01*
X133197241Y-96929363D01*
X132997363Y-97129241D01*
X132840320Y-97364273D01*
X132732147Y-97625426D01*
X132677000Y-97902665D01*
X132677000Y-98185335D01*
X132732147Y-98462574D01*
X132840320Y-98723727D01*
X132997363Y-98958759D01*
X133197241Y-99158637D01*
X133429759Y-99314000D01*
X133197241Y-99469363D01*
X132997363Y-99669241D01*
X132840320Y-99904273D01*
X132732147Y-100165426D01*
X132677000Y-100442665D01*
X132677000Y-100725335D01*
X132732147Y-101002574D01*
X132840320Y-101263727D01*
X132997363Y-101498759D01*
X133197241Y-101698637D01*
X133432273Y-101855680D01*
X133693426Y-101963853D01*
X133729778Y-101971084D01*
X130071292Y-105689896D01*
X129946759Y-105565363D01*
X129711727Y-105408320D01*
X129450574Y-105300147D01*
X129173335Y-105245000D01*
X128890665Y-105245000D01*
X128613426Y-105300147D01*
X128352273Y-105408320D01*
X128117241Y-105565363D01*
X127917363Y-105765241D01*
X127760320Y-106000273D01*
X127652147Y-106261426D01*
X127597000Y-106538665D01*
X127597000Y-106821335D01*
X127652147Y-107098574D01*
X127760320Y-107359727D01*
X127917363Y-107594759D01*
X128117241Y-107794637D01*
X128352273Y-107951680D01*
X128613426Y-108059853D01*
X128890665Y-108115000D01*
X129173335Y-108115000D01*
X129450574Y-108059853D01*
X129711727Y-107951680D01*
X129946759Y-107794637D01*
X130146637Y-107594759D01*
X130253519Y-107434798D01*
X130312356Y-107429003D01*
X130315361Y-107428091D01*
X130318475Y-107427759D01*
X130386858Y-107406403D01*
X130455617Y-107385546D01*
X130458387Y-107384066D01*
X130461376Y-107383132D01*
X130524307Y-107348830D01*
X130587646Y-107314974D01*
X130590072Y-107312983D01*
X130592824Y-107311483D01*
X130647869Y-107265550D01*
X130703371Y-107220001D01*
X130729148Y-107188591D01*
X137673409Y-100129824D01*
X137700001Y-100108001D01*
X137725776Y-100076594D01*
X137727958Y-100074376D01*
X137749441Y-100047758D01*
X137794974Y-99992276D01*
X137796452Y-99989510D01*
X137798421Y-99987071D01*
X137831686Y-99923594D01*
X137865546Y-99860247D01*
X137866458Y-99857241D01*
X137867911Y-99854468D01*
X137888141Y-99785761D01*
X137909003Y-99716986D01*
X137909311Y-99713860D01*
X137910195Y-99710857D01*
X137916629Y-99639559D01*
X137920000Y-99605333D01*
X137920000Y-99602203D01*
X137923650Y-99561756D01*
X137920000Y-99527564D01*
X137920000Y-94294801D01*
X138745645Y-93469156D01*
X138732188Y-93513518D01*
X138719928Y-93638000D01*
X138719928Y-95338000D01*
X138732188Y-95462482D01*
X138768498Y-95582180D01*
X138827463Y-95692494D01*
X138906815Y-95789185D01*
X139003506Y-95868537D01*
X139113820Y-95927502D01*
X139186380Y-95949513D01*
X139054525Y-96081368D01*
X138892010Y-96324589D01*
X138780068Y-96594842D01*
X138723000Y-96881740D01*
X138723000Y-97174260D01*
X138780068Y-97461158D01*
X138892010Y-97731411D01*
X139054525Y-97974632D01*
X139261368Y-98181475D01*
X139435760Y-98298000D01*
X139261368Y-98414525D01*
X139054525Y-98621368D01*
X138892010Y-98864589D01*
X138780068Y-99134842D01*
X138723000Y-99421740D01*
X138723000Y-99714260D01*
X138780068Y-100001158D01*
X138892010Y-100271411D01*
X139054525Y-100514632D01*
X139261368Y-100721475D01*
X139435760Y-100838000D01*
X139261368Y-100954525D01*
X139054525Y-101161368D01*
X138892010Y-101404589D01*
X138780068Y-101674842D01*
X138723000Y-101961740D01*
X138723000Y-102254260D01*
X138780068Y-102541158D01*
X138892010Y-102811411D01*
X139054525Y-103054632D01*
X139261368Y-103261475D01*
X139435760Y-103378000D01*
X139261368Y-103494525D01*
X139054525Y-103701368D01*
X138892010Y-103944589D01*
X138780068Y-104214842D01*
X138723000Y-104501740D01*
X138723000Y-104794260D01*
X138780068Y-105081158D01*
X138892010Y-105351411D01*
X139054525Y-105594632D01*
X139261368Y-105801475D01*
X139435760Y-105918000D01*
X139261368Y-106034525D01*
X139054525Y-106241368D01*
X138892010Y-106484589D01*
X138780068Y-106754842D01*
X138723000Y-107041740D01*
X138723000Y-107334260D01*
X138780068Y-107621158D01*
X138892010Y-107891411D01*
X139054525Y-108134632D01*
X139261368Y-108341475D01*
X139435760Y-108458000D01*
X139261368Y-108574525D01*
X139054525Y-108781368D01*
X138892010Y-109024589D01*
X138780068Y-109294842D01*
X138723000Y-109581740D01*
X138723000Y-109874260D01*
X138780068Y-110161158D01*
X138892010Y-110431411D01*
X139054525Y-110674632D01*
X139261368Y-110881475D01*
X139435760Y-110998000D01*
X139261368Y-111114525D01*
X139054525Y-111321368D01*
X138892010Y-111564589D01*
X138780068Y-111834842D01*
X138723000Y-112121740D01*
X138723000Y-112414260D01*
X138780068Y-112701158D01*
X138892010Y-112971411D01*
X139054525Y-113214632D01*
X139261368Y-113421475D01*
X139504589Y-113583990D01*
X139774842Y-113695932D01*
X140061740Y-113753000D01*
X140354260Y-113753000D01*
X140641158Y-113695932D01*
X140911411Y-113583990D01*
X141154632Y-113421475D01*
X141361475Y-113214632D01*
X141523990Y-112971411D01*
X141635932Y-112701158D01*
X141693000Y-112414260D01*
X141693000Y-112121740D01*
X141635932Y-111834842D01*
X141523990Y-111564589D01*
X141361475Y-111321368D01*
X141154632Y-111114525D01*
X140980240Y-110998000D01*
X141154632Y-110881475D01*
X141361475Y-110674632D01*
X141523990Y-110431411D01*
X141635932Y-110161158D01*
X141693000Y-109874260D01*
X141693000Y-109581740D01*
X141635932Y-109294842D01*
X141523990Y-109024589D01*
X141361475Y-108781368D01*
X141154632Y-108574525D01*
X140980240Y-108458000D01*
X141154632Y-108341475D01*
X141361475Y-108134632D01*
X141523990Y-107891411D01*
X141635932Y-107621158D01*
X141693000Y-107334260D01*
X141693000Y-107041740D01*
X141635932Y-106754842D01*
X141523990Y-106484589D01*
X141361475Y-106241368D01*
X141154632Y-106034525D01*
X140980240Y-105918000D01*
X141154632Y-105801475D01*
X141361475Y-105594632D01*
X141523990Y-105351411D01*
X141635932Y-105081158D01*
X141693000Y-104794260D01*
X141693000Y-104501740D01*
X141635932Y-104214842D01*
X141523990Y-103944589D01*
X141361475Y-103701368D01*
X141154632Y-103494525D01*
X140980240Y-103378000D01*
X141154632Y-103261475D01*
X141361475Y-103054632D01*
X141523990Y-102811411D01*
X141635932Y-102541158D01*
X141693000Y-102254260D01*
X141693000Y-101961740D01*
X141635932Y-101674842D01*
X141523990Y-101404589D01*
X141361475Y-101161368D01*
X141154632Y-100954525D01*
X140980240Y-100838000D01*
X141154632Y-100721475D01*
X141361475Y-100514632D01*
X141523990Y-100271411D01*
X141635932Y-100001158D01*
X141693000Y-99714260D01*
X141693000Y-99421740D01*
X141635932Y-99134842D01*
X141523990Y-98864589D01*
X141361475Y-98621368D01*
X141154632Y-98414525D01*
X140980240Y-98298000D01*
X141154632Y-98181475D01*
X141361475Y-97974632D01*
X141523990Y-97731411D01*
X141635932Y-97461158D01*
X141693000Y-97174260D01*
X141693000Y-96881740D01*
X141635932Y-96594842D01*
X141523990Y-96324589D01*
X141361475Y-96081368D01*
X141229620Y-95949513D01*
X141302180Y-95927502D01*
X141412494Y-95868537D01*
X141509185Y-95789185D01*
X141588537Y-95692494D01*
X141647502Y-95582180D01*
X141683812Y-95462482D01*
X141696072Y-95338000D01*
X141696072Y-93638000D01*
X141683812Y-93513518D01*
X141647502Y-93393820D01*
X141588537Y-93283506D01*
X141509185Y-93186815D01*
X141412494Y-93107463D01*
X141302180Y-93048498D01*
X141182482Y-93012188D01*
X141058000Y-92999928D01*
X139358000Y-92999928D01*
X139233518Y-93012188D01*
X139189156Y-93025645D01*
X141538802Y-90676000D01*
X151287099Y-90676000D01*
X151309068Y-90717101D01*
X151488392Y-90935608D01*
X151706899Y-91114932D01*
X151839858Y-91186000D01*
X151706899Y-91257068D01*
X151488392Y-91436392D01*
X151309068Y-91654899D01*
X151175818Y-91904192D01*
X151093764Y-92174691D01*
X151066057Y-92456000D01*
X151093764Y-92737309D01*
X151175818Y-93007808D01*
X151309068Y-93257101D01*
X151488392Y-93475608D01*
X151706899Y-93654932D01*
X151839858Y-93726000D01*
X151706899Y-93797068D01*
X151488392Y-93976392D01*
X151309068Y-94194899D01*
X151175818Y-94444192D01*
X151093764Y-94714691D01*
X151066057Y-94996000D01*
X151093764Y-95277309D01*
X151175818Y-95547808D01*
X151309068Y-95797101D01*
X151488392Y-96015608D01*
X151706899Y-96194932D01*
X151839858Y-96266000D01*
X151706899Y-96337068D01*
X151488392Y-96516392D01*
X151309068Y-96734899D01*
X151175818Y-96984192D01*
X151093764Y-97254691D01*
X151066057Y-97536000D01*
X151093764Y-97817309D01*
X151175818Y-98087808D01*
X151309068Y-98337101D01*
X151488392Y-98555608D01*
X151706899Y-98734932D01*
X151839858Y-98806000D01*
X151706899Y-98877068D01*
X151488392Y-99056392D01*
X151309068Y-99274899D01*
X151175818Y-99524192D01*
X151093764Y-99794691D01*
X151066057Y-100076000D01*
X151093764Y-100357309D01*
X151175818Y-100627808D01*
X151309068Y-100877101D01*
X151488392Y-101095608D01*
X151706899Y-101274932D01*
X151839858Y-101346000D01*
X151706899Y-101417068D01*
X151488392Y-101596392D01*
X151309068Y-101814899D01*
X151175818Y-102064192D01*
X151093764Y-102334691D01*
X151066057Y-102616000D01*
X151093764Y-102897309D01*
X151175818Y-103167808D01*
X151309068Y-103417101D01*
X151488392Y-103635608D01*
X151706899Y-103814932D01*
X151839858Y-103886000D01*
X151706899Y-103957068D01*
X151488392Y-104136392D01*
X151309068Y-104354899D01*
X151175818Y-104604192D01*
X151093764Y-104874691D01*
X151066057Y-105156000D01*
X151093764Y-105437309D01*
X151175818Y-105707808D01*
X151309068Y-105957101D01*
X151488392Y-106175608D01*
X151706899Y-106354932D01*
X151839858Y-106426000D01*
X151706899Y-106497068D01*
X151488392Y-106676392D01*
X151309068Y-106894899D01*
X151175818Y-107144192D01*
X151093764Y-107414691D01*
X151066057Y-107696000D01*
X151093764Y-107977309D01*
X151175818Y-108247808D01*
X151309068Y-108497101D01*
X151488392Y-108715608D01*
X151706899Y-108894932D01*
X151839858Y-108966000D01*
X151706899Y-109037068D01*
X151488392Y-109216392D01*
X151309068Y-109434899D01*
X151175818Y-109684192D01*
X151093764Y-109954691D01*
X151066057Y-110236000D01*
X151093764Y-110517309D01*
X151175818Y-110787808D01*
X151309068Y-111037101D01*
X151488392Y-111255608D01*
X151706899Y-111434932D01*
X151839858Y-111506000D01*
X151706899Y-111577068D01*
X151488392Y-111756392D01*
X151309068Y-111974899D01*
X151175818Y-112224192D01*
X151093764Y-112494691D01*
X151066057Y-112776000D01*
X151093764Y-113057309D01*
X151175818Y-113327808D01*
X151309068Y-113577101D01*
X151488392Y-113795608D01*
X151706899Y-113974932D01*
X151839858Y-114046000D01*
X151706899Y-114117068D01*
X151488392Y-114296392D01*
X151309068Y-114514899D01*
X151175818Y-114764192D01*
X151093764Y-115034691D01*
X151066057Y-115316000D01*
X151093764Y-115597309D01*
X151175818Y-115867808D01*
X151309068Y-116117101D01*
X151488392Y-116335608D01*
X151706899Y-116514932D01*
X151839858Y-116586000D01*
X151706899Y-116657068D01*
X151488392Y-116836392D01*
X151309068Y-117054899D01*
X151175818Y-117304192D01*
X151093764Y-117574691D01*
X151066057Y-117856000D01*
X151093764Y-118137309D01*
X151175818Y-118407808D01*
X151309068Y-118657101D01*
X151488392Y-118875608D01*
X151706899Y-119054932D01*
X151839858Y-119126000D01*
X151706899Y-119197068D01*
X151488392Y-119376392D01*
X151309068Y-119594899D01*
X151175818Y-119844192D01*
X151093764Y-120114691D01*
X151066057Y-120396000D01*
X151093764Y-120677309D01*
X151175818Y-120947808D01*
X151309068Y-121197101D01*
X151488392Y-121415608D01*
X151706899Y-121594932D01*
X151839858Y-121666000D01*
X151706899Y-121737068D01*
X151488392Y-121916392D01*
X151309068Y-122134899D01*
X151175818Y-122384192D01*
X151093764Y-122654691D01*
X151066057Y-122936000D01*
X151093764Y-123217309D01*
X151175818Y-123487808D01*
X151309068Y-123737101D01*
X151488392Y-123955608D01*
X151706899Y-124134932D01*
X151956192Y-124268182D01*
X152226691Y-124350236D01*
X152437508Y-124371000D01*
X153378492Y-124371000D01*
X153589309Y-124350236D01*
X153859808Y-124268182D01*
X154109101Y-124134932D01*
X154327608Y-123955608D01*
X154506932Y-123737101D01*
X154640182Y-123487808D01*
X154722236Y-123217309D01*
X154749943Y-122936000D01*
X154722236Y-122654691D01*
X154640182Y-122384192D01*
X154506932Y-122134899D01*
X154327608Y-121916392D01*
X154109101Y-121737068D01*
X153976142Y-121666000D01*
X154109101Y-121594932D01*
X154327608Y-121415608D01*
X154506932Y-121197101D01*
X154640182Y-120947808D01*
X154722236Y-120677309D01*
X154749943Y-120396000D01*
X154722236Y-120114691D01*
X154640182Y-119844192D01*
X154506932Y-119594899D01*
X154327608Y-119376392D01*
X154109101Y-119197068D01*
X153976142Y-119126000D01*
X154109101Y-119054932D01*
X154327608Y-118875608D01*
X154506932Y-118657101D01*
X154640182Y-118407808D01*
X154722236Y-118137309D01*
X154749943Y-117856000D01*
X154722236Y-117574691D01*
X154640182Y-117304192D01*
X154506932Y-117054899D01*
X154327608Y-116836392D01*
X154109101Y-116657068D01*
X153976142Y-116586000D01*
X154109101Y-116514932D01*
X154327608Y-116335608D01*
X154506932Y-116117101D01*
X154640182Y-115867808D01*
X154722236Y-115597309D01*
X154749943Y-115316000D01*
X154722236Y-115034691D01*
X154640182Y-114764192D01*
X154506932Y-114514899D01*
X154327608Y-114296392D01*
X154109101Y-114117068D01*
X153976142Y-114046000D01*
X154109101Y-113974932D01*
X154327608Y-113795608D01*
X154506932Y-113577101D01*
X154640182Y-113327808D01*
X154722236Y-113057309D01*
X154749943Y-112776000D01*
X154722236Y-112494691D01*
X154640182Y-112224192D01*
X154506932Y-111974899D01*
X154327608Y-111756392D01*
X154109101Y-111577068D01*
X153976142Y-111506000D01*
X154109101Y-111434932D01*
X154327608Y-111255608D01*
X154506932Y-111037101D01*
X154640182Y-110787808D01*
X154722236Y-110517309D01*
X154749943Y-110236000D01*
X154722236Y-109954691D01*
X154640182Y-109684192D01*
X154506932Y-109434899D01*
X154327608Y-109216392D01*
X154109101Y-109037068D01*
X153976142Y-108966000D01*
X154109101Y-108894932D01*
X154327608Y-108715608D01*
X154506932Y-108497101D01*
X154640182Y-108247808D01*
X154722236Y-107977309D01*
X154749943Y-107696000D01*
X154722236Y-107414691D01*
X154640182Y-107144192D01*
X154506932Y-106894899D01*
X154327608Y-106676392D01*
X154109101Y-106497068D01*
X153976142Y-106426000D01*
X154109101Y-106354932D01*
X154327608Y-106175608D01*
X154506932Y-105957101D01*
X154640182Y-105707808D01*
X154722236Y-105437309D01*
X154749943Y-105156000D01*
X154722236Y-104874691D01*
X154640182Y-104604192D01*
X154506932Y-104354899D01*
X154327608Y-104136392D01*
X154109101Y-103957068D01*
X153976142Y-103886000D01*
X154109101Y-103814932D01*
X154327608Y-103635608D01*
X154506932Y-103417101D01*
X154640182Y-103167808D01*
X154722236Y-102897309D01*
X154749943Y-102616000D01*
X154722236Y-102334691D01*
X154640182Y-102064192D01*
X154506932Y-101814899D01*
X154327608Y-101596392D01*
X154109101Y-101417068D01*
X153976142Y-101346000D01*
X154109101Y-101274932D01*
X154327608Y-101095608D01*
X154506932Y-100877101D01*
X154640182Y-100627808D01*
X154722236Y-100357309D01*
X154749943Y-100076000D01*
X166306057Y-100076000D01*
X166333764Y-100357309D01*
X166415818Y-100627808D01*
X166549068Y-100877101D01*
X166728392Y-101095608D01*
X166946899Y-101274932D01*
X167079858Y-101346000D01*
X166946899Y-101417068D01*
X166728392Y-101596392D01*
X166549068Y-101814899D01*
X166415818Y-102064192D01*
X166333764Y-102334691D01*
X166306057Y-102616000D01*
X166333764Y-102897309D01*
X166415818Y-103167808D01*
X166549068Y-103417101D01*
X166728392Y-103635608D01*
X166946899Y-103814932D01*
X167079858Y-103886000D01*
X166946899Y-103957068D01*
X166728392Y-104136392D01*
X166549068Y-104354899D01*
X166415818Y-104604192D01*
X166333764Y-104874691D01*
X166306057Y-105156000D01*
X166333764Y-105437309D01*
X166415818Y-105707808D01*
X166549068Y-105957101D01*
X166728392Y-106175608D01*
X166946899Y-106354932D01*
X167079858Y-106426000D01*
X166946899Y-106497068D01*
X166728392Y-106676392D01*
X166549068Y-106894899D01*
X166415818Y-107144192D01*
X166333764Y-107414691D01*
X166306057Y-107696000D01*
X166333764Y-107977309D01*
X166415818Y-108247808D01*
X166549068Y-108497101D01*
X166728392Y-108715608D01*
X166946899Y-108894932D01*
X167079858Y-108966000D01*
X166946899Y-109037068D01*
X166728392Y-109216392D01*
X166549068Y-109434899D01*
X166415818Y-109684192D01*
X166333764Y-109954691D01*
X166306057Y-110236000D01*
X166333764Y-110517309D01*
X166415818Y-110787808D01*
X166549068Y-111037101D01*
X166728392Y-111255608D01*
X166946899Y-111434932D01*
X167079858Y-111506000D01*
X166946899Y-111577068D01*
X166728392Y-111756392D01*
X166549068Y-111974899D01*
X166415818Y-112224192D01*
X166333764Y-112494691D01*
X166306057Y-112776000D01*
X166333764Y-113057309D01*
X166415818Y-113327808D01*
X166549068Y-113577101D01*
X166728392Y-113795608D01*
X166946899Y-113974932D01*
X167079858Y-114046000D01*
X166946899Y-114117068D01*
X166728392Y-114296392D01*
X166549068Y-114514899D01*
X166415818Y-114764192D01*
X166333764Y-115034691D01*
X166306057Y-115316000D01*
X166333764Y-115597309D01*
X166415818Y-115867808D01*
X166549068Y-116117101D01*
X166728392Y-116335608D01*
X166946899Y-116514932D01*
X167079858Y-116586000D01*
X166946899Y-116657068D01*
X166728392Y-116836392D01*
X166549068Y-117054899D01*
X166415818Y-117304192D01*
X166333764Y-117574691D01*
X166306057Y-117856000D01*
X166333764Y-118137309D01*
X166415818Y-118407808D01*
X166549068Y-118657101D01*
X166728392Y-118875608D01*
X166946899Y-119054932D01*
X167079858Y-119126000D01*
X166946899Y-119197068D01*
X166728392Y-119376392D01*
X166549068Y-119594899D01*
X166415818Y-119844192D01*
X166333764Y-120114691D01*
X166306057Y-120396000D01*
X166333764Y-120677309D01*
X166415818Y-120947808D01*
X166549068Y-121197101D01*
X166728392Y-121415608D01*
X166946899Y-121594932D01*
X167079858Y-121666000D01*
X166946899Y-121737068D01*
X166728392Y-121916392D01*
X166549068Y-122134899D01*
X166415818Y-122384192D01*
X166333764Y-122654691D01*
X166306057Y-122936000D01*
X166333764Y-123217309D01*
X166415818Y-123487808D01*
X166549068Y-123737101D01*
X166728392Y-123955608D01*
X166946899Y-124134932D01*
X167196192Y-124268182D01*
X167466691Y-124350236D01*
X167677508Y-124371000D01*
X168618492Y-124371000D01*
X168829309Y-124350236D01*
X169099808Y-124268182D01*
X169349101Y-124134932D01*
X169567608Y-123955608D01*
X169746932Y-123737101D01*
X169880182Y-123487808D01*
X169962236Y-123217309D01*
X169989943Y-122936000D01*
X169962236Y-122654691D01*
X169880182Y-122384192D01*
X169746932Y-122134899D01*
X169706802Y-122086000D01*
X176819928Y-122086000D01*
X176819928Y-123786000D01*
X176832188Y-123910482D01*
X176868498Y-124030180D01*
X176927463Y-124140494D01*
X177006815Y-124237185D01*
X177103506Y-124316537D01*
X177213820Y-124375502D01*
X177333518Y-124411812D01*
X177458000Y-124424072D01*
X179158000Y-124424072D01*
X179282482Y-124411812D01*
X179402180Y-124375502D01*
X179512494Y-124316537D01*
X179609185Y-124237185D01*
X179688537Y-124140494D01*
X179747502Y-124030180D01*
X179783812Y-123910482D01*
X179796072Y-123786000D01*
X179796072Y-122086000D01*
X179783812Y-121961518D01*
X179747502Y-121841820D01*
X179688537Y-121731506D01*
X179609185Y-121634815D01*
X179512494Y-121555463D01*
X179402180Y-121496498D01*
X179329620Y-121474487D01*
X179461475Y-121342632D01*
X179623990Y-121099411D01*
X179735932Y-120829158D01*
X179793000Y-120542260D01*
X179793000Y-120249740D01*
X179735932Y-119962842D01*
X179623990Y-119692589D01*
X179461475Y-119449368D01*
X179254632Y-119242525D01*
X179080240Y-119126000D01*
X179254632Y-119009475D01*
X179461475Y-118802632D01*
X179623990Y-118559411D01*
X179735932Y-118289158D01*
X179793000Y-118002260D01*
X179793000Y-117709740D01*
X179735932Y-117422842D01*
X179623990Y-117152589D01*
X179461475Y-116909368D01*
X179254632Y-116702525D01*
X179080240Y-116586000D01*
X179254632Y-116469475D01*
X179461475Y-116262632D01*
X179623990Y-116019411D01*
X179735932Y-115749158D01*
X179793000Y-115462260D01*
X179793000Y-115169740D01*
X179735932Y-114882842D01*
X179623990Y-114612589D01*
X179461475Y-114369368D01*
X179254632Y-114162525D01*
X179080240Y-114046000D01*
X179254632Y-113929475D01*
X179461475Y-113722632D01*
X179623990Y-113479411D01*
X179735932Y-113209158D01*
X179793000Y-112922260D01*
X179793000Y-112629740D01*
X179735932Y-112342842D01*
X179623990Y-112072589D01*
X179461475Y-111829368D01*
X179254632Y-111622525D01*
X179080240Y-111506000D01*
X179254632Y-111389475D01*
X179461475Y-111182632D01*
X179623990Y-110939411D01*
X179735932Y-110669158D01*
X179793000Y-110382260D01*
X179793000Y-110089740D01*
X179735932Y-109802842D01*
X179623990Y-109532589D01*
X179461475Y-109289368D01*
X179254632Y-109082525D01*
X179080240Y-108966000D01*
X179254632Y-108849475D01*
X179461475Y-108642632D01*
X179623990Y-108399411D01*
X179735932Y-108129158D01*
X179793000Y-107842260D01*
X179793000Y-107549740D01*
X179735932Y-107262842D01*
X179623990Y-106992589D01*
X179461475Y-106749368D01*
X179254632Y-106542525D01*
X179080240Y-106426000D01*
X179254632Y-106309475D01*
X179461475Y-106102632D01*
X179623990Y-105859411D01*
X179735932Y-105589158D01*
X179793000Y-105302260D01*
X179793000Y-105009740D01*
X179735932Y-104722842D01*
X179623990Y-104452589D01*
X179461475Y-104209368D01*
X179254632Y-104002525D01*
X179011411Y-103840010D01*
X178741158Y-103728068D01*
X178454260Y-103671000D01*
X178161740Y-103671000D01*
X177874842Y-103728068D01*
X177604589Y-103840010D01*
X177361368Y-104002525D01*
X177154525Y-104209368D01*
X176992010Y-104452589D01*
X176880068Y-104722842D01*
X176823000Y-105009740D01*
X176823000Y-105302260D01*
X176880068Y-105589158D01*
X176992010Y-105859411D01*
X177154525Y-106102632D01*
X177361368Y-106309475D01*
X177535760Y-106426000D01*
X177361368Y-106542525D01*
X177154525Y-106749368D01*
X176992010Y-106992589D01*
X176880068Y-107262842D01*
X176823000Y-107549740D01*
X176823000Y-107842260D01*
X176880068Y-108129158D01*
X176992010Y-108399411D01*
X177154525Y-108642632D01*
X177361368Y-108849475D01*
X177535760Y-108966000D01*
X177361368Y-109082525D01*
X177154525Y-109289368D01*
X176992010Y-109532589D01*
X176880068Y-109802842D01*
X176823000Y-110089740D01*
X176823000Y-110382260D01*
X176880068Y-110669158D01*
X176992010Y-110939411D01*
X177154525Y-111182632D01*
X177361368Y-111389475D01*
X177535760Y-111506000D01*
X177361368Y-111622525D01*
X177154525Y-111829368D01*
X176992010Y-112072589D01*
X176880068Y-112342842D01*
X176823000Y-112629740D01*
X176823000Y-112922260D01*
X176880068Y-113209158D01*
X176992010Y-113479411D01*
X177154525Y-113722632D01*
X177361368Y-113929475D01*
X177535760Y-114046000D01*
X177361368Y-114162525D01*
X177154525Y-114369368D01*
X176992010Y-114612589D01*
X176880068Y-114882842D01*
X176823000Y-115169740D01*
X176823000Y-115462260D01*
X176880068Y-115749158D01*
X176992010Y-116019411D01*
X177154525Y-116262632D01*
X177361368Y-116469475D01*
X177535760Y-116586000D01*
X177361368Y-116702525D01*
X177154525Y-116909368D01*
X176992010Y-117152589D01*
X176880068Y-117422842D01*
X176823000Y-117709740D01*
X176823000Y-118002260D01*
X176880068Y-118289158D01*
X176992010Y-118559411D01*
X177154525Y-118802632D01*
X177361368Y-119009475D01*
X177535760Y-119126000D01*
X177361368Y-119242525D01*
X177154525Y-119449368D01*
X176992010Y-119692589D01*
X176880068Y-119962842D01*
X176823000Y-120249740D01*
X176823000Y-120542260D01*
X176880068Y-120829158D01*
X176992010Y-121099411D01*
X177154525Y-121342632D01*
X177286380Y-121474487D01*
X177213820Y-121496498D01*
X177103506Y-121555463D01*
X177006815Y-121634815D01*
X176927463Y-121731506D01*
X176868498Y-121841820D01*
X176832188Y-121961518D01*
X176819928Y-122086000D01*
X169706802Y-122086000D01*
X169567608Y-121916392D01*
X169349101Y-121737068D01*
X169216142Y-121666000D01*
X169349101Y-121594932D01*
X169567608Y-121415608D01*
X169746932Y-121197101D01*
X169880182Y-120947808D01*
X169962236Y-120677309D01*
X169989943Y-120396000D01*
X169962236Y-120114691D01*
X169880182Y-119844192D01*
X169746932Y-119594899D01*
X169567608Y-119376392D01*
X169349101Y-119197068D01*
X169216142Y-119126000D01*
X169349101Y-119054932D01*
X169567608Y-118875608D01*
X169746932Y-118657101D01*
X169880182Y-118407808D01*
X169962236Y-118137309D01*
X169989943Y-117856000D01*
X169962236Y-117574691D01*
X169880182Y-117304192D01*
X169746932Y-117054899D01*
X169567608Y-116836392D01*
X169349101Y-116657068D01*
X169216142Y-116586000D01*
X169349101Y-116514932D01*
X169567608Y-116335608D01*
X169746932Y-116117101D01*
X169880182Y-115867808D01*
X169962236Y-115597309D01*
X169989943Y-115316000D01*
X169962236Y-115034691D01*
X169880182Y-114764192D01*
X169746932Y-114514899D01*
X169567608Y-114296392D01*
X169349101Y-114117068D01*
X169216142Y-114046000D01*
X169349101Y-113974932D01*
X169567608Y-113795608D01*
X169746932Y-113577101D01*
X169880182Y-113327808D01*
X169962236Y-113057309D01*
X169989943Y-112776000D01*
X169962236Y-112494691D01*
X169880182Y-112224192D01*
X169746932Y-111974899D01*
X169567608Y-111756392D01*
X169349101Y-111577068D01*
X169216142Y-111506000D01*
X169349101Y-111434932D01*
X169567608Y-111255608D01*
X169746932Y-111037101D01*
X169880182Y-110787808D01*
X169962236Y-110517309D01*
X169989943Y-110236000D01*
X169962236Y-109954691D01*
X169880182Y-109684192D01*
X169746932Y-109434899D01*
X169567608Y-109216392D01*
X169349101Y-109037068D01*
X169216142Y-108966000D01*
X169349101Y-108894932D01*
X169567608Y-108715608D01*
X169746932Y-108497101D01*
X169880182Y-108247808D01*
X169962236Y-107977309D01*
X169989943Y-107696000D01*
X169962236Y-107414691D01*
X169880182Y-107144192D01*
X169746932Y-106894899D01*
X169567608Y-106676392D01*
X169349101Y-106497068D01*
X169216142Y-106426000D01*
X169349101Y-106354932D01*
X169567608Y-106175608D01*
X169746932Y-105957101D01*
X169880182Y-105707808D01*
X169962236Y-105437309D01*
X169989943Y-105156000D01*
X169962236Y-104874691D01*
X169880182Y-104604192D01*
X169746932Y-104354899D01*
X169567608Y-104136392D01*
X169349101Y-103957068D01*
X169216142Y-103886000D01*
X169349101Y-103814932D01*
X169567608Y-103635608D01*
X169746932Y-103417101D01*
X169880182Y-103167808D01*
X169962236Y-102897309D01*
X169989943Y-102616000D01*
X169962236Y-102334691D01*
X169880182Y-102064192D01*
X169746932Y-101814899D01*
X169567608Y-101596392D01*
X169349101Y-101417068D01*
X169216142Y-101346000D01*
X169349101Y-101274932D01*
X169567608Y-101095608D01*
X169746932Y-100877101D01*
X169880182Y-100627808D01*
X169962236Y-100357309D01*
X169989943Y-100076000D01*
X169962236Y-99794691D01*
X169880182Y-99524192D01*
X169746932Y-99274899D01*
X169567608Y-99056392D01*
X169349101Y-98877068D01*
X169221259Y-98808735D01*
X169450839Y-98658601D01*
X169652500Y-98460895D01*
X169811715Y-98227646D01*
X169922367Y-97967818D01*
X169939904Y-97885039D01*
X169817915Y-97663000D01*
X168275000Y-97663000D01*
X168275000Y-97683000D01*
X168021000Y-97683000D01*
X168021000Y-97663000D01*
X166478085Y-97663000D01*
X166356096Y-97885039D01*
X166373633Y-97967818D01*
X166484285Y-98227646D01*
X166643500Y-98460895D01*
X166845161Y-98658601D01*
X167074741Y-98808735D01*
X166946899Y-98877068D01*
X166728392Y-99056392D01*
X166549068Y-99274899D01*
X166415818Y-99524192D01*
X166333764Y-99794691D01*
X166306057Y-100076000D01*
X154749943Y-100076000D01*
X154722236Y-99794691D01*
X154640182Y-99524192D01*
X154506932Y-99274899D01*
X154327608Y-99056392D01*
X154109101Y-98877068D01*
X153976142Y-98806000D01*
X154109101Y-98734932D01*
X154327608Y-98555608D01*
X154506932Y-98337101D01*
X154640182Y-98087808D01*
X154722236Y-97817309D01*
X154749943Y-97536000D01*
X154722236Y-97254691D01*
X154640182Y-96984192D01*
X154506932Y-96734899D01*
X154327608Y-96516392D01*
X154109101Y-96337068D01*
X153976142Y-96266000D01*
X154109101Y-96194932D01*
X154327608Y-96015608D01*
X154506932Y-95797101D01*
X154640182Y-95547808D01*
X154722236Y-95277309D01*
X154749943Y-94996000D01*
X154722236Y-94714691D01*
X154640182Y-94444192D01*
X154506932Y-94194899D01*
X154327608Y-93976392D01*
X154109101Y-93797068D01*
X153976142Y-93726000D01*
X154109101Y-93654932D01*
X154327608Y-93475608D01*
X154506932Y-93257101D01*
X154640182Y-93007808D01*
X154722236Y-92737309D01*
X154749943Y-92456000D01*
X154722236Y-92174691D01*
X154640182Y-91904192D01*
X154506932Y-91654899D01*
X154327608Y-91436392D01*
X154109101Y-91257068D01*
X153976142Y-91186000D01*
X154109101Y-91114932D01*
X154327608Y-90935608D01*
X154506932Y-90717101D01*
X154640182Y-90467808D01*
X154722236Y-90197309D01*
X154749943Y-89916000D01*
X154722236Y-89634691D01*
X154640182Y-89364192D01*
X154506932Y-89114899D01*
X154327608Y-88896392D01*
X154109101Y-88717068D01*
X153976142Y-88646000D01*
X154109101Y-88574932D01*
X154327608Y-88395608D01*
X154506932Y-88177101D01*
X154640182Y-87927808D01*
X154722236Y-87657309D01*
X154749943Y-87376000D01*
X154722236Y-87094691D01*
X154640182Y-86824192D01*
X154506932Y-86574899D01*
X154327608Y-86356392D01*
X154109101Y-86177068D01*
X153976142Y-86106000D01*
X154109101Y-86034932D01*
X154327608Y-85855608D01*
X154506932Y-85637101D01*
X154640182Y-85387808D01*
X154722236Y-85117309D01*
X154749943Y-84836000D01*
X154722236Y-84554691D01*
X154640182Y-84284192D01*
X154506932Y-84034899D01*
X154327608Y-83816392D01*
X154109101Y-83637068D01*
X153976142Y-83566000D01*
X154109101Y-83494932D01*
X154327608Y-83315608D01*
X154506932Y-83097101D01*
X154640182Y-82847808D01*
X154722236Y-82577309D01*
X154749943Y-82296000D01*
X154722236Y-82014691D01*
X154640182Y-81744192D01*
X154506932Y-81494899D01*
X154327608Y-81276392D01*
X154109101Y-81097068D01*
X153976142Y-81026000D01*
X154109101Y-80954932D01*
X154327608Y-80775608D01*
X154506932Y-80557101D01*
X154640182Y-80307808D01*
X154722236Y-80037309D01*
X154749943Y-79756000D01*
X154722236Y-79474691D01*
X154640182Y-79204192D01*
X154506932Y-78954899D01*
X154327608Y-78736392D01*
X154109101Y-78557068D01*
X153976142Y-78486000D01*
X154109101Y-78414932D01*
X154327608Y-78235608D01*
X154506932Y-78017101D01*
X154640182Y-77767808D01*
X154722236Y-77497309D01*
X154749943Y-77216000D01*
X166306057Y-77216000D01*
X166333764Y-77497309D01*
X166415818Y-77767808D01*
X166549068Y-78017101D01*
X166728392Y-78235608D01*
X166946899Y-78414932D01*
X167079858Y-78486000D01*
X166946899Y-78557068D01*
X166728392Y-78736392D01*
X166549068Y-78954899D01*
X166415818Y-79204192D01*
X166333764Y-79474691D01*
X166306057Y-79756000D01*
X166333764Y-80037309D01*
X166415818Y-80307808D01*
X166549068Y-80557101D01*
X166728392Y-80775608D01*
X166946899Y-80954932D01*
X167079858Y-81026000D01*
X166946899Y-81097068D01*
X166728392Y-81276392D01*
X166549068Y-81494899D01*
X166415818Y-81744192D01*
X166333764Y-82014691D01*
X166306057Y-82296000D01*
X166333764Y-82577309D01*
X166415818Y-82847808D01*
X166549068Y-83097101D01*
X166728392Y-83315608D01*
X166946899Y-83494932D01*
X167079858Y-83566000D01*
X166946899Y-83637068D01*
X166728392Y-83816392D01*
X166549068Y-84034899D01*
X166415818Y-84284192D01*
X166333764Y-84554691D01*
X166306057Y-84836000D01*
X166333764Y-85117309D01*
X166415818Y-85387808D01*
X166549068Y-85637101D01*
X166728392Y-85855608D01*
X166946899Y-86034932D01*
X167079858Y-86106000D01*
X166946899Y-86177068D01*
X166728392Y-86356392D01*
X166549068Y-86574899D01*
X166415818Y-86824192D01*
X166333764Y-87094691D01*
X166306057Y-87376000D01*
X166333764Y-87657309D01*
X166415818Y-87927808D01*
X166549068Y-88177101D01*
X166728392Y-88395608D01*
X166946899Y-88574932D01*
X167079858Y-88646000D01*
X166946899Y-88717068D01*
X166728392Y-88896392D01*
X166549068Y-89114899D01*
X166415818Y-89364192D01*
X166333764Y-89634691D01*
X166306057Y-89916000D01*
X166333764Y-90197309D01*
X166415818Y-90467808D01*
X166549068Y-90717101D01*
X166728392Y-90935608D01*
X166946899Y-91114932D01*
X167079858Y-91186000D01*
X166946899Y-91257068D01*
X166728392Y-91436392D01*
X166549068Y-91654899D01*
X166415818Y-91904192D01*
X166333764Y-92174691D01*
X166306057Y-92456000D01*
X166333764Y-92737309D01*
X166415818Y-93007808D01*
X166549068Y-93257101D01*
X166728392Y-93475608D01*
X166946899Y-93654932D01*
X167079858Y-93726000D01*
X166946899Y-93797068D01*
X166728392Y-93976392D01*
X166549068Y-94194899D01*
X166415818Y-94444192D01*
X166333764Y-94714691D01*
X166306057Y-94996000D01*
X166333764Y-95277309D01*
X166415818Y-95547808D01*
X166549068Y-95797101D01*
X166728392Y-96015608D01*
X166946899Y-96194932D01*
X167074741Y-96263265D01*
X166845161Y-96413399D01*
X166643500Y-96611105D01*
X166484285Y-96844354D01*
X166373633Y-97104182D01*
X166356096Y-97186961D01*
X166478085Y-97409000D01*
X168021000Y-97409000D01*
X168021000Y-97389000D01*
X168275000Y-97389000D01*
X168275000Y-97409000D01*
X169817915Y-97409000D01*
X169939904Y-97186961D01*
X169922367Y-97104182D01*
X169811715Y-96844354D01*
X169652500Y-96611105D01*
X169450839Y-96413399D01*
X169221259Y-96263265D01*
X169349101Y-96194932D01*
X169567608Y-96015608D01*
X169746932Y-95797101D01*
X169880182Y-95547808D01*
X169962236Y-95277309D01*
X169989943Y-94996000D01*
X169962236Y-94714691D01*
X169880182Y-94444192D01*
X169746932Y-94194899D01*
X169567608Y-93976392D01*
X169349101Y-93797068D01*
X169216142Y-93726000D01*
X169349101Y-93654932D01*
X169567608Y-93475608D01*
X169746932Y-93257101D01*
X169880182Y-93007808D01*
X169962236Y-92737309D01*
X169989943Y-92456000D01*
X169962236Y-92174691D01*
X169880182Y-91904192D01*
X169746932Y-91654899D01*
X169567608Y-91436392D01*
X169349101Y-91257068D01*
X169216142Y-91186000D01*
X169349101Y-91114932D01*
X169567608Y-90935608D01*
X169746932Y-90717101D01*
X169880182Y-90467808D01*
X169962236Y-90197309D01*
X169989943Y-89916000D01*
X169962236Y-89634691D01*
X169880182Y-89364192D01*
X169746932Y-89114899D01*
X169567608Y-88896392D01*
X169349101Y-88717068D01*
X169216142Y-88646000D01*
X169349101Y-88574932D01*
X169567608Y-88395608D01*
X169746932Y-88177101D01*
X169880182Y-87927808D01*
X169962236Y-87657309D01*
X169989943Y-87376000D01*
X169962236Y-87094691D01*
X169880182Y-86824192D01*
X169746932Y-86574899D01*
X169567608Y-86356392D01*
X169349101Y-86177068D01*
X169216142Y-86106000D01*
X169349101Y-86034932D01*
X169567608Y-85855608D01*
X169746932Y-85637101D01*
X169880182Y-85387808D01*
X169962236Y-85117309D01*
X169989943Y-84836000D01*
X169962236Y-84554691D01*
X169880182Y-84284192D01*
X169746932Y-84034899D01*
X169567608Y-83816392D01*
X169349101Y-83637068D01*
X169216142Y-83566000D01*
X169349101Y-83494932D01*
X169567608Y-83315608D01*
X169746932Y-83097101D01*
X169880182Y-82847808D01*
X169962236Y-82577309D01*
X169989943Y-82296000D01*
X169962236Y-82014691D01*
X169880182Y-81744192D01*
X169746932Y-81494899D01*
X169567608Y-81276392D01*
X169349101Y-81097068D01*
X169216142Y-81026000D01*
X169349101Y-80954932D01*
X169567608Y-80775608D01*
X169746932Y-80557101D01*
X169880182Y-80307808D01*
X169962236Y-80037309D01*
X169989943Y-79756000D01*
X169962236Y-79474691D01*
X169880182Y-79204192D01*
X169746932Y-78954899D01*
X169567608Y-78736392D01*
X169349101Y-78557068D01*
X169216142Y-78486000D01*
X169349101Y-78414932D01*
X169567608Y-78235608D01*
X169746932Y-78017101D01*
X169880182Y-77767808D01*
X169962236Y-77497309D01*
X169989943Y-77216000D01*
X169962236Y-76934691D01*
X169880182Y-76664192D01*
X169746932Y-76414899D01*
X169567608Y-76196392D01*
X169349101Y-76017068D01*
X169221259Y-75948735D01*
X169450839Y-75798601D01*
X169652500Y-75600895D01*
X169737752Y-75476000D01*
X173821928Y-75476000D01*
X173834188Y-75600482D01*
X173870498Y-75720180D01*
X173929463Y-75830494D01*
X174008815Y-75927185D01*
X174105506Y-76006537D01*
X174215820Y-76065502D01*
X174335518Y-76101812D01*
X174343961Y-76102643D01*
X174145363Y-76301241D01*
X173988320Y-76536273D01*
X173880147Y-76797426D01*
X173825000Y-77074665D01*
X173825000Y-77357335D01*
X173880147Y-77634574D01*
X173988320Y-77895727D01*
X174145363Y-78130759D01*
X174345241Y-78330637D01*
X174577759Y-78486000D01*
X174345241Y-78641363D01*
X174145363Y-78841241D01*
X173988320Y-79076273D01*
X173880147Y-79337426D01*
X173825000Y-79614665D01*
X173825000Y-79897335D01*
X173880147Y-80174574D01*
X173988320Y-80435727D01*
X174145363Y-80670759D01*
X174345241Y-80870637D01*
X174577759Y-81026000D01*
X174345241Y-81181363D01*
X174145363Y-81381241D01*
X173988320Y-81616273D01*
X173880147Y-81877426D01*
X173825000Y-82154665D01*
X173825000Y-82437335D01*
X173880147Y-82714574D01*
X173988320Y-82975727D01*
X174145363Y-83210759D01*
X174345241Y-83410637D01*
X174577759Y-83566000D01*
X174345241Y-83721363D01*
X174145363Y-83921241D01*
X173988320Y-84156273D01*
X173880147Y-84417426D01*
X173825000Y-84694665D01*
X173825000Y-84977335D01*
X173880147Y-85254574D01*
X173988320Y-85515727D01*
X174145363Y-85750759D01*
X174345241Y-85950637D01*
X174577759Y-86106000D01*
X174345241Y-86261363D01*
X174145363Y-86461241D01*
X173988320Y-86696273D01*
X173880147Y-86957426D01*
X173825000Y-87234665D01*
X173825000Y-87517335D01*
X173880147Y-87794574D01*
X173988320Y-88055727D01*
X174145363Y-88290759D01*
X174345241Y-88490637D01*
X174577759Y-88646000D01*
X174345241Y-88801363D01*
X174145363Y-89001241D01*
X173988320Y-89236273D01*
X173880147Y-89497426D01*
X173825000Y-89774665D01*
X173825000Y-90057335D01*
X173880147Y-90334574D01*
X173988320Y-90595727D01*
X174145363Y-90830759D01*
X174345241Y-91030637D01*
X174577759Y-91186000D01*
X174345241Y-91341363D01*
X174145363Y-91541241D01*
X173988320Y-91776273D01*
X173880147Y-92037426D01*
X173825000Y-92314665D01*
X173825000Y-92597335D01*
X173880147Y-92874574D01*
X173988320Y-93135727D01*
X174145363Y-93370759D01*
X174345241Y-93570637D01*
X174577759Y-93726000D01*
X174345241Y-93881363D01*
X174145363Y-94081241D01*
X173988320Y-94316273D01*
X173880147Y-94577426D01*
X173825000Y-94854665D01*
X173825000Y-95137335D01*
X173880147Y-95414574D01*
X173988320Y-95675727D01*
X174145363Y-95910759D01*
X174345241Y-96110637D01*
X174580273Y-96267680D01*
X174841426Y-96375853D01*
X175118665Y-96431000D01*
X175401335Y-96431000D01*
X175583887Y-96394688D01*
X185217779Y-106028582D01*
X185217780Y-117360447D01*
X185214103Y-117397779D01*
X185228777Y-117546764D01*
X185272233Y-117690025D01*
X185342805Y-117822055D01*
X185413980Y-117908781D01*
X185437779Y-117937780D01*
X185466777Y-117961578D01*
X187887126Y-120381928D01*
X187060000Y-120381928D01*
X186935518Y-120394188D01*
X186815820Y-120430498D01*
X186705506Y-120489463D01*
X186608815Y-120568815D01*
X186529463Y-120665506D01*
X186470498Y-120775820D01*
X186434188Y-120895518D01*
X186421928Y-121020000D01*
X186421928Y-122820000D01*
X186434188Y-122944482D01*
X186470498Y-123064180D01*
X186529463Y-123174494D01*
X186608815Y-123271185D01*
X186705506Y-123350537D01*
X186815820Y-123409502D01*
X186935518Y-123445812D01*
X187060000Y-123458072D01*
X188860000Y-123458072D01*
X188984482Y-123445812D01*
X189104180Y-123409502D01*
X189214494Y-123350537D01*
X189311185Y-123271185D01*
X189390537Y-123174494D01*
X189449502Y-123064180D01*
X189455056Y-123045873D01*
X189521495Y-123112312D01*
X189772905Y-123280299D01*
X190052257Y-123396011D01*
X190348816Y-123455000D01*
X190651184Y-123455000D01*
X190947743Y-123396011D01*
X191227095Y-123280299D01*
X191478505Y-123112312D01*
X191692312Y-122898505D01*
X191860299Y-122647095D01*
X191976011Y-122367743D01*
X192035000Y-122071184D01*
X192035000Y-121768816D01*
X191976011Y-121472257D01*
X191860299Y-121192905D01*
X191692312Y-120941495D01*
X191478505Y-120727688D01*
X191227095Y-120559701D01*
X190947743Y-120443989D01*
X190651184Y-120385000D01*
X190348816Y-120385000D01*
X190091071Y-120436268D01*
X186737779Y-117082978D01*
X186737779Y-116763788D01*
X186815820Y-116805502D01*
X186935518Y-116841812D01*
X187060000Y-116854072D01*
X188860000Y-116854072D01*
X188984482Y-116841812D01*
X189104180Y-116805502D01*
X189214494Y-116746537D01*
X189311185Y-116667185D01*
X189390537Y-116570494D01*
X189449502Y-116460180D01*
X189455056Y-116441873D01*
X189521495Y-116508312D01*
X189772905Y-116676299D01*
X190052257Y-116792011D01*
X190348816Y-116851000D01*
X190651184Y-116851000D01*
X190947743Y-116792011D01*
X191227095Y-116676299D01*
X191478505Y-116508312D01*
X191692312Y-116294505D01*
X191860299Y-116043095D01*
X191976011Y-115763743D01*
X192035000Y-115467184D01*
X192035000Y-115164816D01*
X191976011Y-114868257D01*
X191860299Y-114588905D01*
X191692312Y-114337495D01*
X191478505Y-114123688D01*
X191227095Y-113955701D01*
X190947743Y-113839989D01*
X190651184Y-113781000D01*
X190348816Y-113781000D01*
X190091071Y-113832269D01*
X187140189Y-110881388D01*
X187140189Y-110250072D01*
X188860000Y-110250072D01*
X188984482Y-110237812D01*
X189104180Y-110201502D01*
X189214494Y-110142537D01*
X189311185Y-110063185D01*
X189390537Y-109966494D01*
X189449502Y-109856180D01*
X189455056Y-109837873D01*
X189521495Y-109904312D01*
X189772905Y-110072299D01*
X190052257Y-110188011D01*
X190348816Y-110247000D01*
X190651184Y-110247000D01*
X190947743Y-110188011D01*
X191227095Y-110072299D01*
X191478505Y-109904312D01*
X191692312Y-109690505D01*
X191860299Y-109439095D01*
X191976011Y-109159743D01*
X192035000Y-108863184D01*
X192035000Y-108560816D01*
X191976011Y-108264257D01*
X191860299Y-107984905D01*
X191692312Y-107733495D01*
X191478505Y-107519688D01*
X191227095Y-107351701D01*
X190947743Y-107235989D01*
X190651184Y-107177000D01*
X190348816Y-107177000D01*
X190091071Y-107228269D01*
X187542599Y-104679798D01*
X187542599Y-103646072D01*
X188860000Y-103646072D01*
X188984482Y-103633812D01*
X189104180Y-103597502D01*
X189214494Y-103538537D01*
X189311185Y-103459185D01*
X189390537Y-103362494D01*
X189449502Y-103252180D01*
X189455056Y-103233873D01*
X189521495Y-103300312D01*
X189772905Y-103468299D01*
X190052257Y-103584011D01*
X190348816Y-103643000D01*
X190651184Y-103643000D01*
X190947743Y-103584011D01*
X191227095Y-103468299D01*
X191478505Y-103300312D01*
X191692312Y-103086505D01*
X191860299Y-102835095D01*
X191976011Y-102555743D01*
X192035000Y-102259184D01*
X192035000Y-101956816D01*
X191976011Y-101660257D01*
X191860299Y-101380905D01*
X191692312Y-101129495D01*
X191478505Y-100915688D01*
X191227095Y-100747701D01*
X190947743Y-100631989D01*
X190666149Y-100575977D01*
X187132244Y-97042072D01*
X188860000Y-97042072D01*
X188984482Y-97029812D01*
X189104180Y-96993502D01*
X189214494Y-96934537D01*
X189311185Y-96855185D01*
X189390537Y-96758494D01*
X189449502Y-96648180D01*
X189455056Y-96629873D01*
X189521495Y-96696312D01*
X189772905Y-96864299D01*
X190052257Y-96980011D01*
X190348816Y-97039000D01*
X190651184Y-97039000D01*
X190947743Y-96980011D01*
X191227095Y-96864299D01*
X191478505Y-96696312D01*
X191692312Y-96482505D01*
X191860299Y-96231095D01*
X191976011Y-95951743D01*
X192035000Y-95655184D01*
X192035000Y-95352816D01*
X191976011Y-95056257D01*
X191860299Y-94776905D01*
X191692312Y-94525495D01*
X191478505Y-94311688D01*
X191227095Y-94143701D01*
X190947743Y-94027989D01*
X190651184Y-93969000D01*
X190348816Y-93969000D01*
X190091070Y-94020269D01*
X180395804Y-84325003D01*
X180372001Y-84295999D01*
X180256276Y-84201026D01*
X180124247Y-84130454D01*
X179980986Y-84086997D01*
X179869333Y-84076000D01*
X179869322Y-84076000D01*
X179832000Y-84072324D01*
X179794678Y-84076000D01*
X176478043Y-84076000D01*
X176374637Y-83921241D01*
X176174759Y-83721363D01*
X175942241Y-83566000D01*
X176174759Y-83410637D01*
X176374637Y-83210759D01*
X176478043Y-83056000D01*
X183581199Y-83056000D01*
X187887126Y-87361928D01*
X187060000Y-87361928D01*
X186935518Y-87374188D01*
X186815820Y-87410498D01*
X186705506Y-87469463D01*
X186608815Y-87548815D01*
X186529463Y-87645506D01*
X186470498Y-87755820D01*
X186434188Y-87875518D01*
X186421928Y-88000000D01*
X186421928Y-89800000D01*
X186434188Y-89924482D01*
X186470498Y-90044180D01*
X186529463Y-90154494D01*
X186608815Y-90251185D01*
X186705506Y-90330537D01*
X186815820Y-90389502D01*
X186935518Y-90425812D01*
X187060000Y-90438072D01*
X188860000Y-90438072D01*
X188984482Y-90425812D01*
X189104180Y-90389502D01*
X189214494Y-90330537D01*
X189311185Y-90251185D01*
X189390537Y-90154494D01*
X189449502Y-90044180D01*
X189455056Y-90025873D01*
X189521495Y-90092312D01*
X189772905Y-90260299D01*
X190052257Y-90376011D01*
X190348816Y-90435000D01*
X190651184Y-90435000D01*
X190947743Y-90376011D01*
X191227095Y-90260299D01*
X191478505Y-90092312D01*
X191692312Y-89878505D01*
X191860299Y-89627095D01*
X191976011Y-89347743D01*
X192035000Y-89051184D01*
X192035000Y-88748816D01*
X191976011Y-88452257D01*
X191860299Y-88172905D01*
X191692312Y-87921495D01*
X191478505Y-87707688D01*
X191227095Y-87539701D01*
X190947743Y-87423989D01*
X190651184Y-87365000D01*
X190348816Y-87365000D01*
X190091070Y-87416269D01*
X184459804Y-81785003D01*
X184436001Y-81755999D01*
X184320276Y-81661026D01*
X184188247Y-81590454D01*
X184044986Y-81546997D01*
X183933333Y-81536000D01*
X183933322Y-81536000D01*
X183896000Y-81532324D01*
X183858678Y-81536000D01*
X176478043Y-81536000D01*
X176374637Y-81381241D01*
X176174759Y-81181363D01*
X175942241Y-81026000D01*
X176174759Y-80870637D01*
X176374637Y-80670759D01*
X176478043Y-80516000D01*
X187645199Y-80516000D01*
X187887127Y-80757928D01*
X187060000Y-80757928D01*
X186935518Y-80770188D01*
X186815820Y-80806498D01*
X186705506Y-80865463D01*
X186608815Y-80944815D01*
X186529463Y-81041506D01*
X186470498Y-81151820D01*
X186434188Y-81271518D01*
X186421928Y-81396000D01*
X186421928Y-83196000D01*
X186434188Y-83320482D01*
X186470498Y-83440180D01*
X186529463Y-83550494D01*
X186608815Y-83647185D01*
X186705506Y-83726537D01*
X186815820Y-83785502D01*
X186935518Y-83821812D01*
X187060000Y-83834072D01*
X188860000Y-83834072D01*
X188984482Y-83821812D01*
X189104180Y-83785502D01*
X189214494Y-83726537D01*
X189311185Y-83647185D01*
X189390537Y-83550494D01*
X189449502Y-83440180D01*
X189455056Y-83421873D01*
X189521495Y-83488312D01*
X189772905Y-83656299D01*
X190052257Y-83772011D01*
X190348816Y-83831000D01*
X190651184Y-83831000D01*
X190947743Y-83772011D01*
X191227095Y-83656299D01*
X191478505Y-83488312D01*
X191692312Y-83274505D01*
X191860299Y-83023095D01*
X191976011Y-82743743D01*
X192035000Y-82447184D01*
X192035000Y-82144816D01*
X191976011Y-81848257D01*
X191860299Y-81568905D01*
X191692312Y-81317495D01*
X191478505Y-81103688D01*
X191227095Y-80935701D01*
X190947743Y-80819989D01*
X190651184Y-80761000D01*
X190348816Y-80761000D01*
X190091071Y-80812268D01*
X188523804Y-79245003D01*
X188500001Y-79215999D01*
X188384276Y-79121026D01*
X188252247Y-79050454D01*
X188108986Y-79006997D01*
X187997333Y-78996000D01*
X187997322Y-78996000D01*
X187960000Y-78992324D01*
X187922678Y-78996000D01*
X176478043Y-78996000D01*
X176374637Y-78841241D01*
X176174759Y-78641363D01*
X175942241Y-78486000D01*
X176174759Y-78330637D01*
X176374637Y-78130759D01*
X176478043Y-77976000D01*
X188938678Y-77976000D01*
X188976000Y-77979676D01*
X189013322Y-77976000D01*
X189013333Y-77976000D01*
X189124986Y-77965003D01*
X189268247Y-77921546D01*
X189400276Y-77850974D01*
X189516001Y-77756001D01*
X189539803Y-77726998D01*
X190091070Y-77175731D01*
X190348816Y-77227000D01*
X190651184Y-77227000D01*
X190947743Y-77168011D01*
X191227095Y-77052299D01*
X191478505Y-76884312D01*
X191692312Y-76670505D01*
X191860299Y-76419095D01*
X191976011Y-76139743D01*
X192035000Y-75843184D01*
X192035000Y-75540816D01*
X191976011Y-75244257D01*
X191860299Y-74964905D01*
X191692312Y-74713495D01*
X191478505Y-74499688D01*
X191227095Y-74331701D01*
X190947743Y-74215989D01*
X190651184Y-74157000D01*
X190348816Y-74157000D01*
X190052257Y-74215989D01*
X189772905Y-74331701D01*
X189521495Y-74499688D01*
X189455056Y-74566127D01*
X189449502Y-74547820D01*
X189390537Y-74437506D01*
X189311185Y-74340815D01*
X189214494Y-74261463D01*
X189104180Y-74202498D01*
X188984482Y-74166188D01*
X188860000Y-74153928D01*
X187060000Y-74153928D01*
X186935518Y-74166188D01*
X186815820Y-74202498D01*
X186705506Y-74261463D01*
X186608815Y-74340815D01*
X186529463Y-74437506D01*
X186470498Y-74547820D01*
X186434188Y-74667518D01*
X186421928Y-74792000D01*
X186421928Y-76456000D01*
X176478043Y-76456000D01*
X176374637Y-76301241D01*
X176176039Y-76102643D01*
X176184482Y-76101812D01*
X176304180Y-76065502D01*
X176414494Y-76006537D01*
X176511185Y-75927185D01*
X176590537Y-75830494D01*
X176649502Y-75720180D01*
X176685812Y-75600482D01*
X176698072Y-75476000D01*
X176695000Y-74961750D01*
X176536250Y-74803000D01*
X175387000Y-74803000D01*
X175387000Y-74823000D01*
X175133000Y-74823000D01*
X175133000Y-74803000D01*
X173983750Y-74803000D01*
X173825000Y-74961750D01*
X173821928Y-75476000D01*
X169737752Y-75476000D01*
X169811715Y-75367646D01*
X169922367Y-75107818D01*
X169939904Y-75025039D01*
X169817915Y-74803000D01*
X168275000Y-74803000D01*
X168275000Y-74823000D01*
X168021000Y-74823000D01*
X168021000Y-74803000D01*
X166478085Y-74803000D01*
X166356096Y-75025039D01*
X166373633Y-75107818D01*
X166484285Y-75367646D01*
X166643500Y-75600895D01*
X166845161Y-75798601D01*
X167074741Y-75948735D01*
X166946899Y-76017068D01*
X166728392Y-76196392D01*
X166549068Y-76414899D01*
X166415818Y-76664192D01*
X166333764Y-76934691D01*
X166306057Y-77216000D01*
X154749943Y-77216000D01*
X154722236Y-76934691D01*
X154640182Y-76664192D01*
X154506932Y-76414899D01*
X154327608Y-76196392D01*
X154214518Y-76103581D01*
X154232482Y-76101812D01*
X154352180Y-76065502D01*
X154462494Y-76006537D01*
X154559185Y-75927185D01*
X154638537Y-75830494D01*
X154697502Y-75720180D01*
X154733812Y-75600482D01*
X154746072Y-75476000D01*
X154746072Y-74326961D01*
X166356096Y-74326961D01*
X166478085Y-74549000D01*
X168021000Y-74549000D01*
X168021000Y-73241000D01*
X168275000Y-73241000D01*
X168275000Y-74549000D01*
X169817915Y-74549000D01*
X169939904Y-74326961D01*
X169922367Y-74244182D01*
X169811715Y-73984354D01*
X169737753Y-73876000D01*
X173821928Y-73876000D01*
X173825000Y-74390250D01*
X173983750Y-74549000D01*
X175133000Y-74549000D01*
X175133000Y-73399750D01*
X175387000Y-73399750D01*
X175387000Y-74549000D01*
X176536250Y-74549000D01*
X176695000Y-74390250D01*
X176698072Y-73876000D01*
X176685812Y-73751518D01*
X176649502Y-73631820D01*
X176590537Y-73521506D01*
X176511185Y-73424815D01*
X176414494Y-73345463D01*
X176304180Y-73286498D01*
X176184482Y-73250188D01*
X176060000Y-73237928D01*
X175545750Y-73241000D01*
X175387000Y-73399750D01*
X175133000Y-73399750D01*
X174974250Y-73241000D01*
X174460000Y-73237928D01*
X174335518Y-73250188D01*
X174215820Y-73286498D01*
X174105506Y-73345463D01*
X174008815Y-73424815D01*
X173929463Y-73521506D01*
X173870498Y-73631820D01*
X173834188Y-73751518D01*
X173821928Y-73876000D01*
X169737753Y-73876000D01*
X169652500Y-73751105D01*
X169450839Y-73553399D01*
X169214483Y-73398834D01*
X168952514Y-73293350D01*
X168675000Y-73241000D01*
X168275000Y-73241000D01*
X168021000Y-73241000D01*
X167621000Y-73241000D01*
X167343486Y-73293350D01*
X167081517Y-73398834D01*
X166845161Y-73553399D01*
X166643500Y-73751105D01*
X166484285Y-73984354D01*
X166373633Y-74244182D01*
X166356096Y-74326961D01*
X154746072Y-74326961D01*
X154746072Y-73876000D01*
X154733812Y-73751518D01*
X154697502Y-73631820D01*
X154638537Y-73521506D01*
X154559185Y-73424815D01*
X154462494Y-73345463D01*
X154352180Y-73286498D01*
X154232482Y-73250188D01*
X154108000Y-73237928D01*
X151708000Y-73237928D01*
X151583518Y-73250188D01*
X151463820Y-73286498D01*
X151353506Y-73345463D01*
X151256815Y-73424815D01*
X151177463Y-73521506D01*
X151118498Y-73631820D01*
X151082188Y-73751518D01*
X151069928Y-73876000D01*
X151069928Y-75476000D01*
X151082188Y-75600482D01*
X151118498Y-75720180D01*
X151177463Y-75830494D01*
X151256815Y-75927185D01*
X151353506Y-76006537D01*
X151463820Y-76065502D01*
X151583518Y-76101812D01*
X151601482Y-76103581D01*
X151488392Y-76196392D01*
X151309068Y-76414899D01*
X151175818Y-76664192D01*
X151093764Y-76934691D01*
X151066057Y-77216000D01*
X151093764Y-77497309D01*
X151175818Y-77767808D01*
X151309068Y-78017101D01*
X151488392Y-78235608D01*
X151706899Y-78414932D01*
X151839858Y-78486000D01*
X151706899Y-78557068D01*
X151488392Y-78736392D01*
X151309068Y-78954899D01*
X151175818Y-79204192D01*
X151093764Y-79474691D01*
X151066057Y-79756000D01*
X151093764Y-80037309D01*
X151175818Y-80307808D01*
X151309068Y-80557101D01*
X151488392Y-80775608D01*
X151706899Y-80954932D01*
X151839858Y-81026000D01*
X151706899Y-81097068D01*
X151488392Y-81276392D01*
X151309068Y-81494899D01*
X151175818Y-81744192D01*
X151093764Y-82014691D01*
X151066057Y-82296000D01*
X151093764Y-82577309D01*
X151175818Y-82847808D01*
X151309068Y-83097101D01*
X151488392Y-83315608D01*
X151706899Y-83494932D01*
X151839858Y-83566000D01*
X151706899Y-83637068D01*
X151488392Y-83816392D01*
X151309068Y-84034899D01*
X151175818Y-84284192D01*
X151093764Y-84554691D01*
X151066057Y-84836000D01*
X151093764Y-85117309D01*
X151175818Y-85387808D01*
X151309068Y-85637101D01*
X151488392Y-85855608D01*
X151706899Y-86034932D01*
X151839858Y-86106000D01*
X151706899Y-86177068D01*
X151488392Y-86356392D01*
X151309068Y-86574899D01*
X151175818Y-86824192D01*
X151093764Y-87094691D01*
X151066057Y-87376000D01*
X151093764Y-87657309D01*
X151175818Y-87927808D01*
X151309068Y-88177101D01*
X151488392Y-88395608D01*
X151706899Y-88574932D01*
X151839858Y-88646000D01*
X151706899Y-88717068D01*
X151488392Y-88896392D01*
X151309068Y-89114899D01*
X151287099Y-89156000D01*
X141483506Y-89156000D01*
X141523990Y-89095411D01*
X141635932Y-88825158D01*
X141693000Y-88538260D01*
X141693000Y-88245740D01*
X141635932Y-87958842D01*
X141523990Y-87688589D01*
X141361475Y-87445368D01*
X141154632Y-87238525D01*
X140980240Y-87122000D01*
X141154632Y-87005475D01*
X141361475Y-86798632D01*
X141523990Y-86555411D01*
X141635932Y-86285158D01*
X141693000Y-85998260D01*
X141693000Y-85705740D01*
X141635932Y-85418842D01*
X141523990Y-85148589D01*
X141361475Y-84905368D01*
X141154632Y-84698525D01*
X140980240Y-84582000D01*
X141154632Y-84465475D01*
X141361475Y-84258632D01*
X141523990Y-84015411D01*
X141635932Y-83745158D01*
X141693000Y-83458260D01*
X141693000Y-83165740D01*
X141635932Y-82878842D01*
X141523990Y-82608589D01*
X141361475Y-82365368D01*
X141154632Y-82158525D01*
X140980240Y-82042000D01*
X141154632Y-81925475D01*
X141361475Y-81718632D01*
X141523990Y-81475411D01*
X141635932Y-81205158D01*
X141693000Y-80918260D01*
X141693000Y-80625740D01*
X141635932Y-80338842D01*
X141523990Y-80068589D01*
X141361475Y-79825368D01*
X141154632Y-79618525D01*
X140980240Y-79502000D01*
X141154632Y-79385475D01*
X141361475Y-79178632D01*
X141523990Y-78935411D01*
X141635932Y-78665158D01*
X141693000Y-78378260D01*
X141693000Y-78085740D01*
X141635932Y-77798842D01*
X141523990Y-77528589D01*
X141361475Y-77285368D01*
X141154632Y-77078525D01*
X140980240Y-76962000D01*
X141154632Y-76845475D01*
X141361475Y-76638632D01*
X141523990Y-76395411D01*
X141635932Y-76125158D01*
X141693000Y-75838260D01*
X141693000Y-75545740D01*
X141635932Y-75258842D01*
X141523990Y-74988589D01*
X141361475Y-74745368D01*
X141154632Y-74538525D01*
X140980240Y-74422000D01*
X141154632Y-74305475D01*
X141361475Y-74098632D01*
X141523990Y-73855411D01*
X141635932Y-73585158D01*
X141693000Y-73298260D01*
X141693000Y-73005740D01*
X141635932Y-72718842D01*
X141523990Y-72448589D01*
X141361475Y-72205368D01*
X141229620Y-72073513D01*
X141302180Y-72051502D01*
X141412494Y-71992537D01*
X141509185Y-71913185D01*
X141588537Y-71816494D01*
X141647502Y-71706180D01*
X141683812Y-71586482D01*
X141696072Y-71462000D01*
X141696072Y-70978665D01*
X162181000Y-70978665D01*
X162181000Y-71261335D01*
X162236147Y-71538574D01*
X162344320Y-71799727D01*
X162501363Y-72034759D01*
X162701241Y-72234637D01*
X162936273Y-72391680D01*
X163197426Y-72499853D01*
X163474665Y-72555000D01*
X163757335Y-72555000D01*
X164034574Y-72499853D01*
X164295727Y-72391680D01*
X164530759Y-72234637D01*
X164652694Y-72112702D01*
X165302903Y-72112702D01*
X165374486Y-72356671D01*
X165629996Y-72477571D01*
X165904184Y-72546300D01*
X166186512Y-72560217D01*
X166466130Y-72518787D01*
X166732292Y-72423603D01*
X166857514Y-72356671D01*
X166929097Y-72112702D01*
X166116000Y-71299605D01*
X165302903Y-72112702D01*
X164652694Y-72112702D01*
X164730637Y-72034759D01*
X164864692Y-71834131D01*
X164879329Y-71861514D01*
X165123298Y-71933097D01*
X165936395Y-71120000D01*
X166295605Y-71120000D01*
X167108702Y-71933097D01*
X167352671Y-71861514D01*
X167473571Y-71606004D01*
X167542300Y-71331816D01*
X167556217Y-71049488D01*
X167514787Y-70769870D01*
X167419603Y-70503708D01*
X167352671Y-70378486D01*
X167108702Y-70306903D01*
X166295605Y-71120000D01*
X165936395Y-71120000D01*
X165123298Y-70306903D01*
X164879329Y-70378486D01*
X164865676Y-70407341D01*
X164730637Y-70205241D01*
X164652694Y-70127298D01*
X165302903Y-70127298D01*
X166116000Y-70940395D01*
X166929097Y-70127298D01*
X166857514Y-69883329D01*
X166602004Y-69762429D01*
X166327816Y-69693700D01*
X166045488Y-69679783D01*
X165765870Y-69721213D01*
X165499708Y-69816397D01*
X165374486Y-69883329D01*
X165302903Y-70127298D01*
X164652694Y-70127298D01*
X164530759Y-70005363D01*
X164295727Y-69848320D01*
X164034574Y-69740147D01*
X163757335Y-69685000D01*
X163474665Y-69685000D01*
X163197426Y-69740147D01*
X162936273Y-69848320D01*
X162701241Y-70005363D01*
X162501363Y-70205241D01*
X162344320Y-70440273D01*
X162236147Y-70701426D01*
X162181000Y-70978665D01*
X141696072Y-70978665D01*
X141696072Y-69762000D01*
X141683812Y-69637518D01*
X141647502Y-69517820D01*
X141588537Y-69407506D01*
X141509185Y-69310815D01*
X141412494Y-69231463D01*
X141302180Y-69172498D01*
X141182482Y-69136188D01*
X141058000Y-69123928D01*
X139358000Y-69123928D01*
X139233518Y-69136188D01*
X139113820Y-69172498D01*
X139003506Y-69231463D01*
X138906815Y-69310815D01*
X138827463Y-69407506D01*
X138768498Y-69517820D01*
X138732188Y-69637518D01*
X138719928Y-69762000D01*
X138719928Y-71462000D01*
X138732188Y-71586482D01*
X138768498Y-71706180D01*
X138827463Y-71816494D01*
X138906815Y-71913185D01*
X139003506Y-71992537D01*
X139113820Y-72051502D01*
X139186380Y-72073513D01*
X139054525Y-72205368D01*
X138892010Y-72448589D01*
X138780068Y-72718842D01*
X138723000Y-73005740D01*
X138723000Y-73298260D01*
X138780068Y-73585158D01*
X138892010Y-73855411D01*
X139054525Y-74098632D01*
X139261368Y-74305475D01*
X139435760Y-74422000D01*
X139261368Y-74538525D01*
X139054525Y-74745368D01*
X138892010Y-74988589D01*
X138780068Y-75258842D01*
X138723000Y-75545740D01*
X138723000Y-75838260D01*
X138780068Y-76125158D01*
X138892010Y-76395411D01*
X139054525Y-76638632D01*
X139261368Y-76845475D01*
X139435760Y-76962000D01*
X139261368Y-77078525D01*
X139054525Y-77285368D01*
X138892010Y-77528589D01*
X138780068Y-77798842D01*
X138723000Y-78085740D01*
X138723000Y-78378260D01*
X138780068Y-78665158D01*
X138892010Y-78935411D01*
X139054525Y-79178632D01*
X139261368Y-79385475D01*
X139435760Y-79502000D01*
X139261368Y-79618525D01*
X139054525Y-79825368D01*
X138892010Y-80068589D01*
X138780068Y-80338842D01*
X138723000Y-80625740D01*
X138723000Y-80918260D01*
X138780068Y-81205158D01*
X138892010Y-81475411D01*
X139054525Y-81718632D01*
X139261368Y-81925475D01*
X139435760Y-82042000D01*
X139261368Y-82158525D01*
X139054525Y-82365368D01*
X138892010Y-82608589D01*
X138780068Y-82878842D01*
X138723000Y-83165740D01*
X138723000Y-83458260D01*
X138780068Y-83745158D01*
X138892010Y-84015411D01*
X139054525Y-84258632D01*
X139261368Y-84465475D01*
X139435760Y-84582000D01*
X139261368Y-84698525D01*
X139054525Y-84905368D01*
X138892010Y-85148589D01*
X138780068Y-85418842D01*
X138723000Y-85705740D01*
X138723000Y-85998260D01*
X138780068Y-86285158D01*
X138892010Y-86555411D01*
X139054525Y-86798632D01*
X139261368Y-87005475D01*
X139435760Y-87122000D01*
X139261368Y-87238525D01*
X139054525Y-87445368D01*
X138892010Y-87688589D01*
X138780068Y-87958842D01*
X138723000Y-88245740D01*
X138723000Y-88538260D01*
X138780068Y-88825158D01*
X138892010Y-89095411D01*
X139054525Y-89338632D01*
X139261368Y-89545475D01*
X139504589Y-89707990D01*
X139774842Y-89819932D01*
X140061740Y-89877000D01*
X140188198Y-89877000D01*
X136649003Y-93416196D01*
X136619999Y-93439999D01*
X136590776Y-93475608D01*
X136525026Y-93555724D01*
X136501909Y-93598973D01*
X136454454Y-93687754D01*
X136410997Y-93831015D01*
X136400000Y-93942668D01*
X136400000Y-93942678D01*
X136396324Y-93980000D01*
X136400000Y-94017323D01*
X136400001Y-99256831D01*
X135494257Y-100177510D01*
X135491853Y-100165426D01*
X135383680Y-99904273D01*
X135226637Y-99669241D01*
X135026759Y-99469363D01*
X134794241Y-99314000D01*
X135026759Y-99158637D01*
X135226637Y-98958759D01*
X135383680Y-98723727D01*
X135491853Y-98462574D01*
X135547000Y-98185335D01*
X135547000Y-97902665D01*
X135491853Y-97625426D01*
X135383680Y-97364273D01*
X135226637Y-97129241D01*
X135026759Y-96929363D01*
X134794241Y-96774000D01*
X135026759Y-96618637D01*
X135226637Y-96418759D01*
X135383680Y-96183727D01*
X135491853Y-95922574D01*
X135547000Y-95645335D01*
X135547000Y-95362665D01*
X135491853Y-95085426D01*
X135383680Y-94824273D01*
X135226637Y-94589241D01*
X135026759Y-94389363D01*
X134794241Y-94234000D01*
X135026759Y-94078637D01*
X135226637Y-93878759D01*
X135383680Y-93643727D01*
X135491853Y-93382574D01*
X135547000Y-93105335D01*
X135547000Y-92822665D01*
X135491853Y-92545426D01*
X135383680Y-92284273D01*
X135226637Y-92049241D01*
X135026759Y-91849363D01*
X134794241Y-91694000D01*
X135026759Y-91538637D01*
X135226637Y-91338759D01*
X135383680Y-91103727D01*
X135491853Y-90842574D01*
X135547000Y-90565335D01*
X135547000Y-90282665D01*
X135491853Y-90005426D01*
X135383680Y-89744273D01*
X135226637Y-89509241D01*
X135026759Y-89309363D01*
X134794241Y-89154000D01*
X135026759Y-88998637D01*
X135226637Y-88798759D01*
X135383680Y-88563727D01*
X135491853Y-88302574D01*
X135547000Y-88025335D01*
X135547000Y-87742665D01*
X135491853Y-87465426D01*
X135383680Y-87204273D01*
X135226637Y-86969241D01*
X135026759Y-86769363D01*
X134791727Y-86612320D01*
X134781135Y-86607933D01*
X134967131Y-86496385D01*
X135175519Y-86307414D01*
X135343037Y-86081420D01*
X135463246Y-85827087D01*
X135503904Y-85693039D01*
X135381915Y-85471000D01*
X134239000Y-85471000D01*
X134239000Y-85491000D01*
X133985000Y-85491000D01*
X133985000Y-85471000D01*
X132842085Y-85471000D01*
X132817872Y-85515071D01*
X132297762Y-84994961D01*
X132720096Y-84994961D01*
X132842085Y-85217000D01*
X133985000Y-85217000D01*
X133985000Y-84073376D01*
X134239000Y-84073376D01*
X134239000Y-85217000D01*
X135381915Y-85217000D01*
X135503904Y-84994961D01*
X135463246Y-84860913D01*
X135343037Y-84606580D01*
X135175519Y-84380586D01*
X134967131Y-84191615D01*
X134725881Y-84046930D01*
X134461040Y-83952091D01*
X134239000Y-84073376D01*
X133985000Y-84073376D01*
X133762960Y-83952091D01*
X133498119Y-84046930D01*
X133256869Y-84191615D01*
X133048481Y-84380586D01*
X132880963Y-84606580D01*
X132760754Y-84860913D01*
X132720096Y-84994961D01*
X132297762Y-84994961D01*
X132135804Y-84833003D01*
X132112001Y-84803999D01*
X131996276Y-84709026D01*
X131864247Y-84638454D01*
X131720986Y-84594997D01*
X131609333Y-84584000D01*
X131609322Y-84584000D01*
X131572000Y-84580324D01*
X131534678Y-84584000D01*
X127930072Y-84584000D01*
X127930072Y-84544000D01*
X127917812Y-84419518D01*
X127881502Y-84299820D01*
X127822537Y-84189506D01*
X127743185Y-84092815D01*
X127646494Y-84013463D01*
X127536180Y-83954498D01*
X127416482Y-83918188D01*
X127292000Y-83905928D01*
X125692000Y-83905928D01*
X125567518Y-83918188D01*
X125447820Y-83954498D01*
X125337506Y-84013463D01*
X125240815Y-84092815D01*
X125161463Y-84189506D01*
X125102498Y-84299820D01*
X125066188Y-84419518D01*
X125053928Y-84544000D01*
X125053928Y-84689674D01*
X125017724Y-84709026D01*
X124901999Y-84803999D01*
X124878196Y-84833003D01*
X124457003Y-85254196D01*
X124427999Y-85277999D01*
X124373834Y-85344000D01*
X124333026Y-85393724D01*
X124267814Y-85515727D01*
X124262454Y-85525754D01*
X124218997Y-85669015D01*
X124208000Y-85780668D01*
X124208000Y-85780678D01*
X124204324Y-85818000D01*
X120736894Y-85818000D01*
X120759853Y-85762574D01*
X120815000Y-85485335D01*
X120815000Y-85202665D01*
X120759853Y-84925426D01*
X120651680Y-84664273D01*
X120494637Y-84429241D01*
X120294759Y-84229363D01*
X120059727Y-84072320D01*
X119798574Y-83964147D01*
X119521335Y-83909000D01*
X119238665Y-83909000D01*
X118961426Y-83964147D01*
X118700273Y-84072320D01*
X118465241Y-84229363D01*
X118265363Y-84429241D01*
X118108320Y-84664273D01*
X118000147Y-84925426D01*
X117945000Y-85202665D01*
X116584000Y-85202665D01*
X116584000Y-83288702D01*
X133298903Y-83288702D01*
X133370486Y-83532671D01*
X133625996Y-83653571D01*
X133900184Y-83722300D01*
X134182512Y-83736217D01*
X134462130Y-83694787D01*
X134728292Y-83599603D01*
X134853514Y-83532671D01*
X134925097Y-83288702D01*
X134112000Y-82475605D01*
X133298903Y-83288702D01*
X116584000Y-83288702D01*
X116584000Y-82558178D01*
X116770632Y-82433475D01*
X116977475Y-82226632D01*
X117094000Y-82052240D01*
X117210525Y-82226632D01*
X117417368Y-82433475D01*
X117660589Y-82595990D01*
X117930842Y-82707932D01*
X118217740Y-82765000D01*
X118510260Y-82765000D01*
X118797158Y-82707932D01*
X119067411Y-82595990D01*
X119310632Y-82433475D01*
X119377595Y-82366512D01*
X132671783Y-82366512D01*
X132713213Y-82646130D01*
X132808397Y-82912292D01*
X132875329Y-83037514D01*
X133119298Y-83109097D01*
X133932395Y-82296000D01*
X134291605Y-82296000D01*
X135104702Y-83109097D01*
X135348671Y-83037514D01*
X135469571Y-82782004D01*
X135538300Y-82507816D01*
X135552217Y-82225488D01*
X135510787Y-81945870D01*
X135415603Y-81679708D01*
X135348671Y-81554486D01*
X135104702Y-81482903D01*
X134291605Y-82296000D01*
X133932395Y-82296000D01*
X133119298Y-81482903D01*
X132875329Y-81554486D01*
X132754429Y-81809996D01*
X132685700Y-82084184D01*
X132671783Y-82366512D01*
X119377595Y-82366512D01*
X119517475Y-82226632D01*
X119679990Y-81983411D01*
X119791932Y-81713158D01*
X119849000Y-81426260D01*
X119849000Y-81133740D01*
X119791932Y-80846842D01*
X119679990Y-80576589D01*
X119517475Y-80333368D01*
X119310632Y-80126525D01*
X119067411Y-79964010D01*
X118797158Y-79852068D01*
X118510260Y-79795000D01*
X118217740Y-79795000D01*
X117930842Y-79852068D01*
X117660589Y-79964010D01*
X117417368Y-80126525D01*
X117210525Y-80333368D01*
X117094000Y-80507760D01*
X116977475Y-80333368D01*
X116770632Y-80126525D01*
X116584000Y-80001822D01*
X116584000Y-79032000D01*
X123529928Y-79032000D01*
X123542188Y-79156482D01*
X123578498Y-79276180D01*
X123637463Y-79386494D01*
X123716815Y-79483185D01*
X123813506Y-79562537D01*
X123923820Y-79621502D01*
X124043518Y-79657812D01*
X124168000Y-79670072D01*
X124682250Y-79667000D01*
X124841000Y-79508250D01*
X124841000Y-78359000D01*
X125095000Y-78359000D01*
X125095000Y-79508250D01*
X125253750Y-79667000D01*
X125768000Y-79670072D01*
X125892482Y-79657812D01*
X126012180Y-79621502D01*
X126122494Y-79562537D01*
X126219185Y-79483185D01*
X126298537Y-79386494D01*
X126357502Y-79276180D01*
X126393812Y-79156482D01*
X126406072Y-79032000D01*
X126403000Y-78517750D01*
X126244250Y-78359000D01*
X125095000Y-78359000D01*
X124841000Y-78359000D01*
X123691750Y-78359000D01*
X123533000Y-78517750D01*
X123529928Y-79032000D01*
X116584000Y-79032000D01*
X116584000Y-77432000D01*
X123529928Y-77432000D01*
X123533000Y-77946250D01*
X123691750Y-78105000D01*
X124841000Y-78105000D01*
X124841000Y-76955750D01*
X125095000Y-76955750D01*
X125095000Y-78105000D01*
X126244250Y-78105000D01*
X126258585Y-78090665D01*
X127033000Y-78090665D01*
X127033000Y-78373335D01*
X127088147Y-78650574D01*
X127196320Y-78911727D01*
X127353363Y-79146759D01*
X127553241Y-79346637D01*
X127788273Y-79503680D01*
X128049426Y-79611853D01*
X128326665Y-79667000D01*
X128609335Y-79667000D01*
X128671346Y-79654665D01*
X132677000Y-79654665D01*
X132677000Y-79937335D01*
X132732147Y-80214574D01*
X132840320Y-80475727D01*
X132997363Y-80710759D01*
X133197241Y-80910637D01*
X133397869Y-81044692D01*
X133370486Y-81059329D01*
X133298903Y-81303298D01*
X134112000Y-82116395D01*
X134925097Y-81303298D01*
X134853514Y-81059329D01*
X134824659Y-81045676D01*
X135026759Y-80910637D01*
X135226637Y-80710759D01*
X135383680Y-80475727D01*
X135491853Y-80214574D01*
X135547000Y-79937335D01*
X135547000Y-79654665D01*
X135491853Y-79377426D01*
X135383680Y-79116273D01*
X135226637Y-78881241D01*
X135026759Y-78681363D01*
X134791727Y-78524320D01*
X134530574Y-78416147D01*
X134253335Y-78361000D01*
X133970665Y-78361000D01*
X133693426Y-78416147D01*
X133432273Y-78524320D01*
X133197241Y-78681363D01*
X132997363Y-78881241D01*
X132840320Y-79116273D01*
X132732147Y-79377426D01*
X132677000Y-79654665D01*
X128671346Y-79654665D01*
X128886574Y-79611853D01*
X129147727Y-79503680D01*
X129382759Y-79346637D01*
X129582637Y-79146759D01*
X129739680Y-78911727D01*
X129847853Y-78650574D01*
X129903000Y-78373335D01*
X129903000Y-78090665D01*
X129847853Y-77813426D01*
X129739680Y-77552273D01*
X129582637Y-77317241D01*
X129382759Y-77117363D01*
X129147727Y-76960320D01*
X128886574Y-76852147D01*
X128609335Y-76797000D01*
X128326665Y-76797000D01*
X128049426Y-76852147D01*
X127788273Y-76960320D01*
X127553241Y-77117363D01*
X127353363Y-77317241D01*
X127196320Y-77552273D01*
X127088147Y-77813426D01*
X127033000Y-78090665D01*
X126258585Y-78090665D01*
X126403000Y-77946250D01*
X126406072Y-77432000D01*
X126393812Y-77307518D01*
X126357502Y-77187820D01*
X126298537Y-77077506D01*
X126219185Y-76980815D01*
X126122494Y-76901463D01*
X126012180Y-76842498D01*
X125892482Y-76806188D01*
X125768000Y-76793928D01*
X125253750Y-76797000D01*
X125095000Y-76955750D01*
X124841000Y-76955750D01*
X124682250Y-76797000D01*
X124168000Y-76793928D01*
X124043518Y-76806188D01*
X123923820Y-76842498D01*
X123813506Y-76901463D01*
X123716815Y-76980815D01*
X123637463Y-77077506D01*
X123578498Y-77187820D01*
X123542188Y-77307518D01*
X123529928Y-77432000D01*
X116584000Y-77432000D01*
X116584000Y-77253322D01*
X116587676Y-77215999D01*
X116584000Y-77178676D01*
X116584000Y-77178667D01*
X116573003Y-77067014D01*
X116529546Y-76923753D01*
X116458974Y-76791724D01*
X116364001Y-76675999D01*
X116335003Y-76652201D01*
X108586688Y-68903887D01*
X108623000Y-68721335D01*
X108623000Y-68438665D01*
X113373000Y-68438665D01*
X113373000Y-68721335D01*
X113428147Y-68998574D01*
X113536320Y-69259727D01*
X113693363Y-69494759D01*
X113893241Y-69694637D01*
X114128273Y-69851680D01*
X114389426Y-69959853D01*
X114666665Y-70015000D01*
X114949335Y-70015000D01*
X115226574Y-69959853D01*
X115487727Y-69851680D01*
X115722759Y-69694637D01*
X115922637Y-69494759D01*
X116026043Y-69340000D01*
X119365928Y-69340000D01*
X119365928Y-71004000D01*
X119378188Y-71128482D01*
X119414498Y-71248180D01*
X119473463Y-71358494D01*
X119552815Y-71455185D01*
X119649506Y-71534537D01*
X119759820Y-71593502D01*
X119879518Y-71629812D01*
X120004000Y-71642072D01*
X120831127Y-71642072D01*
X120297200Y-72175999D01*
X116243000Y-72175999D01*
X116243000Y-71994665D01*
X116187853Y-71717426D01*
X116079680Y-71456273D01*
X115922637Y-71221241D01*
X115722759Y-71021363D01*
X115487727Y-70864320D01*
X115226574Y-70756147D01*
X114949335Y-70701000D01*
X114666665Y-70701000D01*
X114389426Y-70756147D01*
X114128273Y-70864320D01*
X113893241Y-71021363D01*
X113693363Y-71221241D01*
X113536320Y-71456273D01*
X113428147Y-71717426D01*
X113373000Y-71994665D01*
X113373000Y-72277335D01*
X113428147Y-72554574D01*
X113536320Y-72815727D01*
X113693363Y-73050759D01*
X113893241Y-73250637D01*
X114128273Y-73407680D01*
X114389426Y-73515853D01*
X114666665Y-73571000D01*
X114949335Y-73571000D01*
X115138022Y-73533467D01*
X115183723Y-73570973D01*
X115315752Y-73641545D01*
X115459013Y-73685002D01*
X115570666Y-73695999D01*
X115570675Y-73695999D01*
X115607998Y-73699675D01*
X115645321Y-73695999D01*
X120574679Y-73695999D01*
X120612001Y-73699675D01*
X120649323Y-73695999D01*
X120649334Y-73695999D01*
X120760987Y-73685002D01*
X120904248Y-73641545D01*
X121036277Y-73570973D01*
X121152002Y-73476000D01*
X121175805Y-73446996D01*
X123035071Y-71587731D01*
X123292816Y-71639000D01*
X123595184Y-71639000D01*
X123891743Y-71580011D01*
X124171095Y-71464299D01*
X124422505Y-71296312D01*
X124636312Y-71082505D01*
X124804299Y-70831095D01*
X124920011Y-70551743D01*
X124979000Y-70255184D01*
X124979000Y-69952816D01*
X124920011Y-69656257D01*
X124804299Y-69376905D01*
X124779640Y-69340000D01*
X128509928Y-69340000D01*
X128509928Y-71004000D01*
X128522188Y-71128482D01*
X128558498Y-71248180D01*
X128617463Y-71358494D01*
X128696815Y-71455185D01*
X128793506Y-71534537D01*
X128903820Y-71593502D01*
X129023518Y-71629812D01*
X129148000Y-71642072D01*
X130948000Y-71642072D01*
X131072482Y-71629812D01*
X131192180Y-71593502D01*
X131302494Y-71534537D01*
X131399185Y-71455185D01*
X131478537Y-71358494D01*
X131537502Y-71248180D01*
X131543056Y-71229873D01*
X131609495Y-71296312D01*
X131860905Y-71464299D01*
X132140257Y-71580011D01*
X132436816Y-71639000D01*
X132739184Y-71639000D01*
X133035743Y-71580011D01*
X133315095Y-71464299D01*
X133566505Y-71296312D01*
X133780312Y-71082505D01*
X133948299Y-70831095D01*
X134064011Y-70551743D01*
X134123000Y-70255184D01*
X134123000Y-69952816D01*
X134064011Y-69656257D01*
X133948299Y-69376905D01*
X133780312Y-69125495D01*
X133566505Y-68911688D01*
X133315095Y-68743701D01*
X133035743Y-68627989D01*
X132739184Y-68569000D01*
X132436816Y-68569000D01*
X132179070Y-68620269D01*
X131627803Y-68069002D01*
X131604001Y-68039999D01*
X131488276Y-67945026D01*
X131356247Y-67874454D01*
X131212986Y-67830997D01*
X131101333Y-67820000D01*
X131101322Y-67820000D01*
X131064000Y-67816324D01*
X131026678Y-67820000D01*
X116026043Y-67820000D01*
X115922637Y-67665241D01*
X115722759Y-67465363D01*
X115487727Y-67308320D01*
X115226574Y-67200147D01*
X114949335Y-67145000D01*
X114666665Y-67145000D01*
X114389426Y-67200147D01*
X114128273Y-67308320D01*
X113893241Y-67465363D01*
X113693363Y-67665241D01*
X113536320Y-67900273D01*
X113428147Y-68161426D01*
X113373000Y-68438665D01*
X108623000Y-68438665D01*
X108567853Y-68161426D01*
X108459680Y-67900273D01*
X108302637Y-67665241D01*
X108102759Y-67465363D01*
X107867727Y-67308320D01*
X107606574Y-67200147D01*
X107329335Y-67145000D01*
X107046665Y-67145000D01*
X106769426Y-67200147D01*
X106508273Y-67308320D01*
X106273241Y-67465363D01*
X106073363Y-67665241D01*
X105916320Y-67900273D01*
X105808147Y-68161426D01*
X105753000Y-68438665D01*
X105358000Y-68438665D01*
X105358000Y-66750000D01*
X195378000Y-66750000D01*
X195378001Y-126290000D01*
M02*
