M48
; DRILL file {KiCad (5.1.5)-3} date 4/6/2020 2:21:06 PM
; FORMAT={-:-/ absolute / inch / decimal}
; #@! TF.CreationDate,2020-04-06T14:21:06-04:00
; #@! TF.GenerationSoftware,Kicad,Pcbnew,(5.1.5)-3
FMAT,2
INCH
T1C0.0157
T2C0.0315
T3C0.0354
T4C0.0394
T5C0.0433
%
G90
G05
T1
X4.3Y-3.62
X4.44Y-3.62
X4.56Y-4.32
X4.96Y-4.08
T2
X4.78Y-4.2
X5.08Y-4.2
X4.22Y-2.84
X4.52Y-2.84
X5.28Y-3.1416
X5.28Y-3.24
X6.9Y-2.94
X6.9Y-3.04
X6.9Y-3.14
X6.9Y-3.24
X6.9Y-3.34
X6.9Y-3.44
X6.9Y-3.54
X6.9Y-3.64
X6.9Y-3.74
X4.22Y-2.7
X4.52Y-2.7
X6.02Y-2.94
X6.02Y-3.04
X6.02Y-3.14
X6.02Y-3.24
X6.02Y-3.34
X6.02Y-3.44
X6.02Y-3.54
X6.02Y-3.64
X6.02Y-3.74
X6.02Y-3.84
X6.02Y-3.94
X6.02Y-4.04
X6.02Y-4.14
X6.02Y-4.24
X6.02Y-4.34
X6.02Y-4.44
X6.02Y-4.54
X6.02Y-4.64
X6.02Y-4.74
X6.02Y-4.84
X6.62Y-2.94
X6.62Y-3.04
X6.62Y-3.14
X6.62Y-3.24
X6.62Y-3.34
X6.62Y-3.44
X6.62Y-3.54
X6.62Y-3.64
X6.62Y-3.74
X6.62Y-3.84
X6.62Y-3.94
X6.62Y-4.04
X6.62Y-4.14
X6.62Y-4.24
X6.62Y-4.34
X6.62Y-4.44
X6.62Y-4.54
X6.62Y-4.64
X6.62Y-4.74
X6.62Y-4.84
X4.98Y-3.36
X4.98Y-3.46
X4.98Y-3.56
X4.98Y-3.66
X4.98Y-3.76
X4.98Y-3.86
X4.98Y-3.96
X5.28Y-3.36
X5.28Y-3.46
X5.28Y-3.56
X5.28Y-3.66
X5.28Y-3.76
X5.28Y-3.86
X5.28Y-3.96
X4.92Y-3.08
X5.0578Y-3.08
X4.7Y-3.36
X4.7Y-3.66
X6.4416Y-2.8
X6.54Y-2.8
X5.5016Y-4.8
X5.6Y-4.8
X5.78Y-4.5879
X5.78Y-4.78
X5.5016Y-4.58
X5.6Y-4.58
T3
X4.76Y-2.76
X4.86Y-2.76
X7.4Y-4.02
X7.5Y-4.02
X7.4Y-4.28
X7.5Y-4.28
X5.12Y-2.76
X5.22Y-2.76
X7.4Y-4.54
X7.5Y-4.54
X7.4Y-3.76
X7.5Y-3.76
X7.4Y-2.98
X7.5Y-2.98
X7.4Y-3.24
X7.5Y-3.24
X7.4Y-4.8
X7.5Y-4.8
X7.4Y-3.5
X7.5Y-3.5
T4
X7.02Y-4.14
X7.02Y-4.24
X7.02Y-4.34
X7.02Y-4.44
X7.02Y-4.54
X7.02Y-4.64
X7.02Y-4.74
X7.02Y-4.84
X5.52Y-3.72
X5.52Y-3.82
X5.52Y-3.92
X5.52Y-4.02
X5.52Y-4.12
X5.52Y-4.22
X5.52Y-4.32
X5.52Y-4.42
X5.52Y-2.78
X5.52Y-2.88
X5.52Y-2.98
X5.52Y-3.08
X5.52Y-3.18
X5.52Y-3.28
X5.52Y-3.38
X5.52Y-3.48
X4.36Y-3.2
X4.46Y-3.2
X4.56Y-3.2
X4.66Y-3.2
T5
X5.0Y-4.5
X5.0Y-4.6772
X5.2559Y-4.5
X5.2559Y-4.6772
X4.54Y-4.5
X4.54Y-4.6772
X4.7959Y-4.5
X4.7959Y-4.6772
T0
M30
